ExpletusSans-SemiboldItalic.ufo
<glyph name="exclam" format="1">
  <advance width="351"/>
  <unicode hex="0021"/>
  <outline>
    <contour>
      <point x="48" y="59" type="curve" name="hr00"/>
      <point x="53" y="101"/>
      <point x="89" y="134"/>
      <point x="131" y="134" type="curve" smooth="yes"/>
      <point x="173" y="134"/>
      <point x="201" y="101"/>
      <point x="196" y="59" type="curve" smooth="yes"/>
      <point x="191" y="17"/>
      <point x="155" y="-14"/>
      <point x="113" y="-14" type="curve" smooth="yes"/>
      <point x="71" y="-14"/>
      <point x="43" y="17"/>
    </contour>
    <contour>
      <point x="145" y="727" type="line"/>
      <point x="267" y="727" type="line"/>
      <point x="186" y="213" type="line"/>
      <point x="98" y="213" type="line"/>
    </contour>
  </outline>
</glyph>
<glyph name="numbersign" format="1">
  <advance width="894"/>
  <unicode hex="0023"/>
  <outline>
    <contour>
      <point x="459" y="0" type="line"/>
      <point x="472" y="45"/>
      <point x="487" y="90"/>
      <point x="501" y="135" type="curve" smooth="yes"/>
      <point x="511" y="159" type="line"/>
      <point x="332" y="158" type="line" name="hr01"/>
      <point x="353" y="202"/>
      <point x="384" y="237"/>
      <point x="459" y="237" type="curve" smooth="yes"/>
      <point x="531" y="237" type="line"/>
      <point x="594" y="439" type="line"/>
      <point x="607" y="468" type="line"/>
      <point x="396" y="467" type="line"/>
      <point x="250" y="0" type="line" name="hr02"/>
      <point x="152" y="0" type="line"/>
      <point x="166" y="45"/>
      <point x="180" y="92"/>
      <point x="195" y="137" type="curve" smooth="yes"/>
      <point x="205" y="159" type="line"/>
      <point x="90" y="158" type="line" name="hr03"/>
      <point x="99" y="236" type="line"/>
      <point x="224" y="236" type="line"/>
      <point x="290" y="442" type="line"/>
      <point x="300" y="468" type="line"/>
      <point x="187" y="467" type="line"/>
      <point x="197" y="546" type="line"/>
      <point x="323" y="546" type="line"/>
      <point x="371" y="702" type="line" name="hr04"/>
      <point x="469" y="702" type="line"/>
      <point x="420" y="546" type="line" name="hr05"/>
      <point x="629" y="546" type="line"/>
      <point x="678" y="702" type="line" name="hr06"/>
      <point x="776" y="702" type="line"/>
      <point x="727" y="546" type="line" name="hr07"/>
      <point x="839" y="546" type="line"/>
      <point x="829" y="467" type="line"/>
      <point x="702" y="467" type="line"/>
      <point x="630" y="237" type="line"/>
      <point x="741" y="237" type="line"/>
      <point x="731" y="158" type="line"/>
      <point x="607" y="158" type="line"/>
      <point x="557" y="0" type="line" name="hr08"/>
    </contour>
  </outline>
</glyph>
<glyph name="dollar" format="1">
  <advance width="514"/>
  <unicode hex="0024"/>
  <outline>
    <contour>
      <point x="338" y="622" type="curve" smooth="yes"/>
      <point x="276" y="622"/>
      <point x="231" y="585"/>
      <point x="226" y="540" type="curve" smooth="yes"/>
      <point x="209" y="401"/>
      <point x="543" y="401"/>
      <point x="515" y="179" type="curve" smooth="yes"/>
      <point x="504" y="82"/>
      <point x="425" y="11"/>
      <point x="309" y="-7" type="curve"/>
      <point x="296" y="-107" type="line"/>
      <point x="202" y="-107" type="line"/>
      <point x="214" y="-11" type="line" name="hr01"/>
      <point x="163" y="-7"/>
      <point x="101" y="7"/>
      <point x="37" y="38" type="curve"/>
      <point x="81" y="122" type="line"/>
      <point x="146" y="91"/>
      <point x="204" y="80"/>
      <point x="254" y="80" type="curve" smooth="yes"/>
      <point x="331" y="80"/>
      <point x="390" y="127"/>
      <point x="397" y="181" type="curve" smooth="yes"/>
      <point x="415" y="330"/>
      <point x="82" y="322"/>
      <point x="108" y="535" type="curve" smooth="yes"/>
      <point x="120" y="635"/>
      <point x="202" y="698"/>
      <point x="303" y="710" type="curve"/>
      <point x="315" y="810" type="line"/>
      <point x="409" y="810" type="line"/>
      <point x="397" y="709" type="line"/>
      <point x="434" y="705"/>
      <point x="472" y="697"/>
      <point x="524" y="680" type="curve"/>
      <point x="480" y="599" type="line"/>
      <point x="424" y="616"/>
      <point x="380" y="622"/>
    </contour>
  </outline>
</glyph>
<glyph name="percent" format="1">
  <advance width="814"/>
  <unicode hex="0025"/>
  <outline>
    <contour>
      <point x="733" y="191" type="curve" smooth="yes"/>
      <point x="744" y="278"/>
      <point x="723" y="323"/>
      <point x="681" y="323" type="curve" smooth="yes"/>
      <point x="641" y="323"/>
      <point x="609" y="278"/>
      <point x="598" y="191" type="curve" smooth="yes"/>
      <point x="587" y="102"/>
      <point x="609" y="58"/>
      <point x="649" y="58" type="curve" smooth="yes"/>
      <point x="691" y="58"/>
      <point x="722" y="102"/>
    </contour>
    <contour>
      <point x="834" y="191" type="curve" smooth="yes"/>
      <point x="818" y="62"/>
      <point x="742" y="-13"/>
      <point x="640" y="-13" type="curve" smooth="yes"/>
      <point x="539" y="-13"/>
      <point x="482" y="61"/>
      <point x="498" y="191" type="curve" smooth="yes"/>
      <point x="514" y="319"/>
      <point x="589" y="394"/>
      <point x="690" y="394" type="curve" smooth="yes"/>
      <point x="792" y="394"/>
      <point x="850" y="319"/>
    </contour>
    <contour>
      <point x="313" y="514" type="curve" smooth="yes"/>
      <point x="323" y="601"/>
      <point x="303" y="645"/>
      <point x="262" y="645" type="curve" smooth="yes"/>
      <point x="221" y="645"/>
      <point x="188" y="601"/>
      <point x="178" y="514" type="curve" smooth="yes"/>
      <point x="167" y="425"/>
      <point x="188" y="381"/>
      <point x="229" y="381" type="curve" smooth="yes" name="hr01"/>
      <point x="270" y="381"/>
      <point x="302" y="425"/>
    </contour>
    <contour>
      <point x="414" y="514" type="curve" smooth="yes"/>
      <point x="398" y="385"/>
      <point x="322" y="310"/>
      <point x="221" y="310" type="curve" smooth="yes"/>
      <point x="119" y="310"/>
      <point x="62" y="384"/>
      <point x="78" y="514" type="curve" smooth="yes"/>
      <point x="93" y="642"/>
      <point x="169" y="717"/>
      <point x="271" y="717" type="curve" smooth="yes"/>
      <point x="372" y="717"/>
      <point x="429" y="642"/>
    </contour>
    <contour>
      <point x="146" y="0" type="line"/>
      <point x="670" y="702" type="line"/>
      <point x="765" y="702" type="line"/>
      <point x="241" y="0" type="line"/>
    </contour>
  </outline>
</glyph>
<glyph name="ampersand" format="1">
  <advance width="761"/>
  <unicode hex="0026"/>
  <outline>
    <contour>
      <point x="398" y="86" type="curve" smooth="yes"/>
      <point x="446" y="94"/>
      <point x="476" y="73"/>
      <point x="502" y="44" type="curve"/>
      <point x="450" y="8"/>
      <point x="398" y="-11"/>
      <point x="333" y="-11" type="curve" smooth="yes"/>
      <point x="198" y="-11"/>
      <point x="124" y="84"/>
      <point x="139" y="209" type="curve" smooth="yes"/>
      <point x="150" y="299"/>
      <point x="211" y="366"/>
      <point x="282" y="415" type="curve"/>
      <point x="248" y="475"/>
      <point x="241" y="514"/>
      <point x="246" y="555" type="curve" smooth="yes"/>
      <point x="260" y="668"/>
      <point x="355" y="737"/>
      <point x="481" y="737" type="curve" smooth="yes"/>
      <point x="525" y="737"/>
      <point x="583" y="725"/>
      <point x="627" y="703" type="curve"/>
      <point x="590" y="622" type="line"/>
      <point x="552" y="637"/>
      <point x="504" y="645"/>
      <point x="468" y="645" type="curve" smooth="yes"/>
      <point x="410" y="645"/>
      <point x="364" y="611"/>
      <point x="358" y="564" type="curve" smooth="yes"/>
      <point x="352" y="509"/>
      <point x="381" y="470"/>
      <point x="428" y="404" type="curve" smooth="yes"/>
      <point x="560" y="219" type="line"/>
      <point x="589" y="275"/>
      <point x="614" y="318"/>
      <point x="630" y="379" type="curve"/>
      <point x="729" y="379" type="line"/>
      <point x="700" y="291"/>
      <point x="667" y="214"/>
      <point x="618" y="147" type="curve"/>
      <point x="726" y="0" type="line" name="hr01"/>
      <point x="583" y="0" type="line"/>
      <point x="347" y="320" type="line"/>
      <point x="330" y="347" type="line"/>
      <point x="297" y="308"/>
      <point x="268" y="278"/>
      <point x="261" y="222" type="curve" smooth="yes"/>
      <point x="251" y="140"/>
      <point x="283" y="81"/>
      <point x="359" y="81" type="curve" smooth="yes" name="hr02"/>
      <point x="373" y="81"/>
      <point x="384" y="83"/>
    </contour>
  </outline>
</glyph>
<glyph name="quotesingle" format="1">
  <advance width="191"/>
  <unicode hex="0027"/>
  <outline>
    <contour>
      <point x="99" y="512" type="curve" name="hr00"/>
      <point x="126" y="727" type="line"/>
      <point x="233" y="727" type="line"/>
      <point x="223" y="649" type="line" smooth="yes"/>
      <point x="214" y="572"/>
      <point x="178" y="494"/>
    </contour>
  </outline>
</glyph>
<glyph name="parenleft" format="1">
  <advance width="403"/>
  <unicode hex="0028"/>
  <outline>
    <contour>
      <point x="310" y="296" type="curve" smooth="yes" name="hr00"/>
      <point x="283" y="74"/>
      <point x="281" y="-14"/>
      <point x="389" y="-116" type="curve"/>
      <point x="326" y="-176" type="line"/>
      <point x="185" y="-72"/>
      <point x="172" y="46"/>
      <point x="203" y="296" type="curve" smooth="yes"/>
      <point x="233" y="545"/>
      <point x="275" y="663"/>
      <point x="442" y="767" type="curve"/>
      <point x="490" y="708" type="line"/>
      <point x="356" y="604"/>
      <point x="337" y="517"/>
    </contour>
  </outline>
</glyph>
<glyph name="parenright" format="1">
  <advance width="401"/>
  <unicode hex="0029"/>
  <outline>
    <contour>
      <point x="166" y="296" type="curve" smooth="yes" name="hr00"/>
      <point x="193" y="517"/>
      <point x="196" y="604"/>
      <point x="86" y="708" type="curve"/>
      <point x="149" y="767" type="line"/>
      <point x="290" y="663"/>
      <point x="303" y="545"/>
      <point x="273" y="296" type="curve" smooth="yes"/>
      <point x="242" y="46"/>
      <point x="200" y="-72"/>
      <point x="33" y="-176" type="curve"/>
      <point x="-14" y="-116" type="line"/>
      <point x="119" y="-14"/>
      <point x="139" y="74"/>
    </contour>
  </outline>
</glyph>
<glyph name="asterisk" format="1">
  <advance width="530"/>
  <unicode hex="002A"/>
  <outline>
    <contour>
      <point x="322" y="590" type="line" name="hr00"/>
      <point x="400" y="743" type="line"/>
      <point x="477" y="694" type="line"/>
      <point x="414" y="627"/>
      <point x="384" y="594"/>
      <point x="358" y="568" type="curve"/>
      <point x="522" y="593" type="line"/>
      <point x="511" y="497" type="line"/>
      <point x="426" y="510"/>
      <point x="385" y="516"/>
      <point x="351" y="523" type="curve"/>
      <point x="439" y="397" type="line"/>
      <point x="350" y="349" type="line"/>
      <point x="311" y="502" type="line"/>
      <point x="234" y="349" type="line"/>
      <point x="157" y="397" type="line"/>
      <point x="276" y="524" type="line"/>
      <point x="112" y="498" type="line"/>
      <point x="123" y="594" type="line"/>
      <point x="280" y="569" type="line"/>
      <point x="192" y="694" type="line"/>
      <point x="282" y="743" type="line"/>
    </contour>
  </outline>
</glyph>
<glyph name="plus" format="1">
  <advance width="568"/>
  <unicode hex="002B"/>
  <outline>
    <contour>
      <point x="79" y="263" type="line" name="hr00"/>
      <point x="89" y="347" type="line"/>
      <point x="275" y="347" type="line"/>
      <point x="300" y="546" type="line"/>
      <point x="394" y="546" type="line"/>
      <point x="369" y="347" type="line"/>
      <point x="557" y="347" type="line"/>
      <point x="547" y="263" type="line"/>
      <point x="359" y="263" type="line"/>
      <point x="334" y="62" type="line"/>
      <point x="240" y="62" type="line"/>
      <point x="265" y="263" type="line"/>
    </contour>
  </outline>
</glyph>
<glyph name="comma" format="1">
  <advance width="233"/>
  <unicode hex="002C"/>
  <outline>
    <contour>
      <point x="41" y="-117" type="curve" name="hr00"/>
      <point x="68" y="98" type="line"/>
      <point x="177" y="98" type="line"/>
      <point x="167" y="20" type="line" smooth="yes"/>
      <point x="158" y="-57"/>
      <point x="120" y="-135"/>
    </contour>
  </outline>
</glyph>
<glyph name="hyphen" format="1">
  <advance width="375"/>
  <unicode hex="002D"/>
  <outline>
    <contour>
      <point x="379" y="262" type="line" name="hr00"/>
      <point x="77" y="262" type="line"/>
      <point x="87" y="347" type="line"/>
      <point x="389" y="347" type="line"/>
    </contour>
  </outline>
</glyph>
<glyph name="period" format="1">
  <advance width="285"/>
  <unicode hex="002E"/>
  <outline>
    <contour>
      <point x="68" y="58" type="curve" smooth="yes" name="hr00"/>
      <point x="73" y="100"/>
      <point x="109" y="134"/>
      <point x="151" y="134" type="curve" smooth="yes"/>
      <point x="193" y="134"/>
      <point x="221" y="100"/>
      <point x="216" y="58" type="curve" smooth="yes"/>
      <point x="211" y="17"/>
      <point x="175" y="-15"/>
      <point x="133" y="-15" type="curve" smooth="yes"/>
      <point x="91" y="-15"/>
      <point x="63" y="17"/>
    </contour>
  </outline>
</glyph>
<glyph name="zero" format="1">
  <advance width="692"/>
  <unicode hex="0030"/>
  <outline>
    <contour>
      <point x="526" y="349" type="curve" smooth="yes" name="hr00"/>
      <point x="547" y="520"/>
      <point x="506" y="627"/>
      <point x="405" y="627" type="curve" smooth="yes"/>
      <point x="303" y="627"/>
      <point x="237" y="520"/>
      <point x="216" y="349" type="curve" smooth="yes"/>
      <point x="195" y="179"/>
      <point x="236" y="73"/>
      <point x="337" y="73" type="curve" smooth="yes"/>
      <point x="438" y="73"/>
      <point x="505" y="179"/>
    </contour>
    <contour>
      <point x="326" y="-18" type="curve" smooth="yes"/>
      <point x="154" y="-18"/>
      <point x="57" y="124"/>
      <point x="84" y="349" type="curve" smooth="yes"/>
      <point x="111" y="570"/>
      <point x="241" y="718"/>
      <point x="417" y="718" type="curve" smooth="yes"/>
      <point x="609" y="718"/>
      <point x="681" y="544"/>
      <point x="657" y="349" type="curve" smooth="yes"/>
      <point x="631" y="138"/>
      <point x="506" y="-18"/>
    </contour>
  </outline>
</glyph>
<glyph name="one" format="1">
  <advance width="319"/>
  <unicode hex="0031"/>
  <outline>
    <contour>
      <point x="251" y="0" type="line" name="hr00"/>
      <point x="135" y="0" type="line"/>
      <point x="204" y="568" type="line"/>
      <point x="88" y="510" type="line"/>
      <point x="57" y="584" type="line"/>
      <point x="289" y="701" type="line"/>
      <point x="337" y="701" type="line"/>
    </contour>
  </outline>
</glyph>
<glyph name="two" format="1">
  <advance width="547"/>
  <unicode hex="0032"/>
  <outline>
    <contour>
      <point x="549" y="525" type="curve" smooth="yes" name="hr00"/>
      <point x="532" y="383"/>
      <point x="332" y="229"/>
      <point x="230" y="112" type="curve"/>
      <point x="213" y="95" type="line"/>
      <point x="236" y="98" type="line"/>
      <point x="508" y="98" type="line"/>
      <point x="496" y="0" type="line"/>
      <point x="49" y="0" type="line"/>
      <point x="55" y="51" type="line"/>
      <point x="160" y="214"/>
      <point x="403" y="386"/>
      <point x="419" y="515" type="curve" smooth="yes"/>
      <point x="427" y="582"/>
      <point x="379" y="621"/>
      <point x="312" y="621" type="curve" smooth="yes"/>
      <point x="279" y="621"/>
      <point x="235" y="613"/>
      <point x="180" y="588" type="curve"/>
      <point x="158" y="671" type="line"/>
      <point x="226" y="703"/>
      <point x="285" y="712"/>
      <point x="334" y="712" type="curve" smooth="yes"/>
      <point x="475" y="712"/>
      <point x="563" y="643"/>
    </contour>
  </outline>
</glyph>
<glyph name="three" format="1">
  <advance width="528"/>
  <unicode hex="0033"/>
  <outline>
    <contour>
      <point x="508" y="549" type="curve" smooth="yes" name="hr00"/>
      <point x="500" y="488"/>
      <point x="457" y="433"/>
      <point x="386" y="394" type="curve"/>
      <point x="360" y="385" type="line"/>
      <point x="382" y="380" type="line"/>
      <point x="449" y="353"/>
      <point x="499" y="287"/>
      <point x="488" y="199" type="curve" smooth="yes"/>
      <point x="473" y="78"/>
      <point x="348" y="-11"/>
      <point x="203" y="-11" type="curve" smooth="yes"/>
      <point x="129" y="-11"/>
      <point x="68" y="10"/>
      <point x="18" y="35" type="curve"/>
      <point x="58" y="117" type="line"/>
      <point x="103" y="93"/>
      <point x="152" y="80"/>
      <point x="200" y="80" type="curve" smooth="yes"/>
      <point x="282" y="80"/>
      <point x="352" y="135"/>
      <point x="360" y="201" type="curve" smooth="yes"/>
      <point x="372" y="295"/>
      <point x="292" y="321"/>
      <point x="180" y="321" type="curve"/>
      <point x="180" y="394" type="line"/>
      <point x="279" y="433"/>
      <point x="369" y="466"/>
      <point x="378" y="539" type="curve" smooth="yes"/>
      <point x="384" y="590"/>
      <point x="344" y="621"/>
      <point x="288" y="621" type="curve" smooth="yes"/>
      <point x="250" y="621"/>
      <point x="206" y="614"/>
      <point x="145" y="587" type="curve"/>
      <point x="124" y="671" type="line"/>
      <point x="199" y="703"/>
      <point x="261" y="712"/>
      <point x="316" y="712" type="curve" smooth="yes"/>
      <point x="437" y="712"/>
      <point x="520" y="649"/>
    </contour>
  </outline>
</glyph>
<glyph name="four" format="1">
  <advance width="595"/>
  <unicode hex="0034"/>
  <outline>
    <contour>
      <point x="60" y="230" type="line" name="hr00"/>
      <point x="422" y="701" type="line"/>
      <point x="560" y="701" type="line"/>
      <point x="502" y="236" type="line"/>
      <point x="583" y="236" type="line"/>
      <point x="573" y="147" type="line"/>
      <point x="492" y="147" type="line"/>
      <point x="474" y="0" type="line"/>
      <point x="358" y="0" type="line"/>
      <point x="422" y="529" type="line"/>
      <point x="428" y="559" type="line"/>
      <point x="410" y="532" type="line"/>
      <point x="207" y="269" type="line" smooth="yes"/>
      <point x="202" y="263"/>
      <point x="197" y="258"/>
      <point x="192" y="252" type="curve"/>
      <point x="176" y="235" type="line"/>
      <point x="182" y="236"/>
      <point x="189" y="236"/>
      <point x="196" y="237" type="curve"/>
      <point x="253" y="237" type="line" smooth="yes"/>
      <point x="309" y="237"/>
      <point x="332" y="183"/>
      <point x="341" y="147" type="curve"/>
      <point x="50" y="147" type="line"/>
    </contour>
  </outline>
</glyph>
<glyph name="five" format="1">
  <advance width="536"/>
  <unicode hex="0035"/>
  <outline>
    <contour>
      <point x="257" y="603" type="line" name="hr00"/>
      <point x="247" y="554"/>
      <point x="238" y="506"/>
      <point x="228" y="457" type="curve" smooth="yes"/>
      <point x="219" y="422" type="line"/>
      <point x="242" y="425"/>
      <point x="261" y="428"/>
      <point x="278" y="428" type="curve" smooth="yes"/>
      <point x="443" y="428"/>
      <point x="521" y="328"/>
      <point x="506" y="211" type="curve" smooth="yes"/>
      <point x="491" y="83"/>
      <point x="369" y="-12"/>
      <point x="209" y="-12" type="curve" smooth="yes"/>
      <point x="158" y="-12"/>
      <point x="94" y="1"/>
      <point x="33" y="37" type="curve"/>
      <point x="73" y="118" type="line"/>
      <point x="132" y="89"/>
      <point x="181" y="79"/>
      <point x="219" y="79" type="curve" smooth="yes"/>
      <point x="315" y="79"/>
      <point x="370" y="150"/>
      <point x="378" y="213" type="curve" smooth="yes"/>
      <point x="388" y="296"/>
      <point x="329" y="338"/>
      <point x="238" y="338" type="curve" smooth="yes"/>
      <point x="204" y="338"/>
      <point x="156" y="333"/>
      <point x="101" y="322" type="curve"/>
      <point x="174" y="701" type="line"/>
      <point x="537" y="701" type="line"/>
      <point x="525" y="603" type="line"/>
    </contour>
  </outline>
</glyph>
<glyph name="six" format="1">
  <advance width="636"/>
  <unicode hex="0036"/>
  <outline>
    <contour>
      <point x="489" y="618" type="curve" smooth="yes" name="hr00"/>
      <point x="347" y="618"/>
      <point x="251" y="491"/>
      <point x="231" y="329" type="curve" smooth="yes"/>
      <point x="217" y="219"/>
      <point x="229" y="75"/>
      <point x="346" y="75" type="curve" smooth="yes"/>
      <point x="412" y="75"/>
      <point x="469" y="138"/>
      <point x="480" y="221" type="curve" smooth="yes"/>
      <point x="490" y="305"/>
      <point x="454" y="346"/>
      <point x="406" y="346" type="curve" smooth="yes"/>
      <point x="398" y="346"/>
      <point x="387" y="345"/>
      <point x="372" y="342" type="curve" smooth="yes"/>
      <point x="324" y="333"/>
      <point x="295" y="368"/>
      <point x="280" y="394" type="curve"/>
      <point x="346" y="427"/>
      <point x="388" y="436"/>
      <point x="426" y="436" type="curve" smooth="yes"/>
      <point x="542" y="436"/>
      <point x="626" y="361"/>
      <point x="609" y="221" type="curve" smooth="yes"/>
      <point x="594" y="105"/>
      <point x="487" y="-15"/>
      <point x="338" y="-15" type="curve" smooth="yes"/>
      <point x="136" y="-15"/>
      <point x="80" y="150"/>
      <point x="102" y="327" type="curve" smooth="yes"/>
      <point x="126" y="523"/>
      <point x="283" y="708"/>
      <point x="500" y="708" type="curve" smooth="yes"/>
      <point x="533" y="708"/>
      <point x="576" y="701"/>
      <point x="618" y="685" type="curve"/>
      <point x="579" y="602" type="line"/>
      <point x="544" y="614"/>
      <point x="514" y="618"/>
    </contour>
  </outline>
</glyph>
<glyph name="seven" format="1">
  <advance width="502"/>
  <unicode hex="0037"/>
  <outline>
    <contour>
      <point x="241" y="0" type="curve" name="hr00"/>
      <point x="114" y="0" type="line"/>
      <point x="170" y="217"/>
      <point x="248" y="387"/>
      <point x="380" y="560" type="curve" smooth="yes"/>
      <point x="391" y="573"/>
      <point x="402" y="587"/>
      <point x="414" y="600" type="curve"/>
      <point x="111" y="599" type="line"/>
      <point x="124" y="701" type="line"/>
      <point x="558" y="701" type="line"/>
      <point x="547" y="612" type="line"/>
      <point x="420" y="472"/>
      <point x="309" y="315"/>
    </contour>
  </outline>
</glyph>
<glyph name="eight" format="1">
  <advance width="644"/>
  <unicode hex="0038"/>
  <outline>
    <contour>
      <point x="337" y="77" type="curve" smooth="yes" name="hr00"/>
      <point x="416" y="77"/>
      <point x="471" y="121"/>
      <point x="478" y="178" type="curve" smooth="yes"/>
      <point x="498" y="340"/>
      <point x="141" y="296"/>
      <point x="170" y="531" type="curve" smooth="yes"/>
      <point x="184" y="646"/>
      <point x="297" y="713"/>
      <point x="418" y="713" type="curve" smooth="yes"/>
      <point x="544" y="713"/>
      <point x="634" y="646"/>
      <point x="620" y="531" type="curve" smooth="yes"/>
      <point x="613" y="479"/>
      <point x="569" y="409"/>
      <point x="506" y="361" type="curve"/>
      <point x="567" y="327"/>
      <point x="611" y="271"/>
      <point x="599" y="178" type="curve" smooth="yes"/>
      <point x="584" y="56"/>
      <point x="465" y="-13"/>
      <point x="326" y="-13" type="curve" smooth="yes"/>
      <point x="184" y="-13"/>
      <point x="87" y="56"/>
      <point x="102" y="178" type="curve" smooth="yes"/>
      <point x="108" y="224"/>
      <point x="132" y="274"/>
      <point x="208" y="343" type="curve"/>
      <point x="234" y="311"/>
      <point x="255" y="269"/>
      <point x="235" y="228" type="curve" smooth="yes"/>
      <point x="226" y="210"/>
      <point x="222" y="197"/>
      <point x="220" y="183" type="curve" smooth="yes"/>
      <point x="212" y="116"/>
      <point x="261" y="77"/>
    </contour>
    <contour>
      <point x="291" y="531" type="curve" smooth="yes"/>
      <point x="283" y="465"/>
      <point x="353" y="438"/>
      <point x="429" y="402" type="curve"/>
      <point x="470" y="442"/>
      <point x="495" y="480"/>
      <point x="500" y="520" type="curve" smooth="yes"/>
      <point x="509" y="591"/>
      <point x="461" y="622"/>
      <point x="407" y="622" type="curve" smooth="yes"/>
      <point x="351" y="622"/>
      <point x="298" y="590"/>
    </contour>
  </outline>
</glyph>
<glyph name="nine" format="1">
  <advance width="635"/>
  <unicode hex="0039"/>
  <outline>
    <contour>
      <point x="239" y="81" type="curve" smooth="yes" name="hr00"/>
      <point x="382" y="81"/>
      <point x="479" y="207"/>
      <point x="499" y="371" type="curve" smooth="yes"/>
      <point x="512" y="479"/>
      <point x="500" y="623"/>
      <point x="384" y="623" type="curve" smooth="yes"/>
      <point x="317" y="623"/>
      <point x="259" y="560"/>
      <point x="249" y="478" type="curve" smooth="yes"/>
      <point x="239" y="394"/>
      <point x="275" y="353"/>
      <point x="323" y="353" type="curve" smooth="yes"/>
      <point x="330" y="353"/>
      <point x="343" y="354"/>
      <point x="356" y="357" type="curve" smooth="yes"/>
      <point x="404" y="366"/>
      <point x="434" y="331"/>
      <point x="449" y="304" type="curve"/>
      <point x="383" y="272"/>
      <point x="340" y="263"/>
      <point x="303" y="263" type="curve" smooth="yes"/>
      <point x="187" y="263"/>
      <point x="103" y="338"/>
      <point x="120" y="478" type="curve" smooth="yes"/>
      <point x="134" y="594"/>
      <point x="242" y="714"/>
      <point x="392" y="714" type="curve" smooth="yes"/>
      <point x="593" y="714"/>
      <point x="649" y="549"/>
      <point x="627" y="373" type="curve" smooth="yes"/>
      <point x="603" y="176"/>
      <point x="445" y="-10"/>
      <point x="228" y="-10" type="curve" smooth="yes"/>
      <point x="195" y="-10"/>
      <point x="152" y="-3"/>
      <point x="111" y="14" type="curve"/>
      <point x="149" y="97" type="line"/>
      <point x="185" y="85"/>
      <point x="214" y="81"/>
    </contour>
  </outline>
</glyph>
<glyph name="colon" format="1">
  <advance width="299"/>
  <unicode hex="003A"/>
  <outline>
    <contour>
      <point x="130" y="426" type="curve" smooth="yes" name="hr00"/>
      <point x="135" y="467"/>
      <point x="171" y="501"/>
      <point x="213" y="501" type="curve" smooth="yes"/>
      <point x="255" y="501"/>
      <point x="283" y="467"/>
      <point x="278" y="426" type="curve" smooth="yes"/>
      <point x="273" y="384"/>
      <point x="237" y="352"/>
      <point x="195" y="352" type="curve" smooth="yes"/>
      <point x="153" y="352"/>
      <point x="125" y="384"/>
    </contour>
    <contour>
      <point x="85" y="58" type="curve" smooth="yes"/>
      <point x="90" y="100"/>
      <point x="126" y="134"/>
      <point x="168" y="134" type="curve" smooth="yes"/>
      <point x="210" y="134"/>
      <point x="238" y="100"/>
      <point x="233" y="58" type="curve" smooth="yes"/>
      <point x="228" y="17"/>
      <point x="192" y="-15"/>
      <point x="150" y="-15" type="curve" smooth="yes"/>
      <point x="108" y="-15"/>
      <point x="80" y="17"/>
    </contour>
  </outline>
</glyph>
<glyph name="semicolon" format="1">
  <advance width="299"/>
  <unicode hex="003B"/>
  <outline>
    <contour>
      <point x="83" y="-117" type="curve" name="hr00"/>
      <point x="110" y="98" type="line"/>
      <point x="219" y="98" type="line"/>
      <point x="209" y="20" type="line" smooth="yes"/>
      <point x="200" y="-57"/>
      <point x="162" y="-135"/>
    </contour>
    <contour>
      <point x="130" y="426" type="curve" smooth="yes"/>
      <point x="135" y="467"/>
      <point x="171" y="501"/>
      <point x="213" y="501" type="curve" smooth="yes"/>
      <point x="255" y="501"/>
      <point x="283" y="467"/>
      <point x="278" y="426" type="curve" smooth="yes"/>
      <point x="273" y="384"/>
      <point x="237" y="352"/>
      <point x="195" y="352" type="curve" smooth="yes"/>
      <point x="153" y="352"/>
      <point x="125" y="384"/>
    </contour>
  </outline>
</glyph>
<glyph name="less" format="1">
  <advance width="613"/>
  <unicode hex="003C"/>
  <outline>
    <contour>
      <point x="217" y="270" type="line" name="hr00"/>
      <point x="567" y="112" type="line"/>
      <point x="554" y="0" type="line"/>
      <point x="66" y="239" type="line"/>
      <point x="75" y="313" type="line"/>
      <point x="621" y="552" type="line"/>
      <point x="608" y="441" type="line"/>
      <point x="477" y="388"/>
      <point x="349" y="334"/>
      <point x="218" y="283" type="curve"/>
      <point x="191" y="276" type="line"/>
    </contour>
  </outline>
</glyph>
<glyph name="greater" format="1">
  <advance width="613"/>
  <unicode hex="003E"/>
  <outline>
    <contour>
      <point x="61" y="112" type="line" name="hr00"/>
      <point x="192" y="164"/>
      <point x="321" y="217"/>
      <point x="451" y="270" type="curve"/>
      <point x="477" y="276" type="line"/>
      <point x="452" y="283" type="line"/>
      <point x="102" y="441" type="line"/>
      <point x="115" y="552" type="line"/>
      <point x="603" y="313" type="line"/>
      <point x="594" y="239" type="line"/>
      <point x="48" y="0" type="line"/>
    </contour>
  </outline>
</glyph>
<glyph name="question" format="1">
  <advance width="583"/>
  <unicode hex="003F"/>
  <outline>
    <contour>
      <point x="173" y="59" type="curve" smooth="yes" name="hr00"/>
      <point x="178" y="101"/>
      <point x="215" y="134"/>
      <point x="257" y="134" type="curve" smooth="yes"/>
      <point x="298" y="134"/>
      <point x="327" y="101"/>
      <point x="322" y="59" type="curve" smooth="yes"/>
      <point x="317" y="17"/>
      <point x="280" y="-14"/>
      <point x="239" y="-14" type="curve" smooth="yes"/>
      <point x="197" y="-14"/>
      <point x="168" y="17"/>
    </contour>
    <contour>
      <point x="360" y="737" type="curve" smooth="yes"/>
      <point x="486" y="737"/>
      <point x="567" y="675"/>
      <point x="556" y="579" type="curve" smooth="yes"/>
      <point x="537" y="428"/>
      <point x="335" y="364"/>
      <point x="317" y="213" type="curve"/>
      <point x="217" y="213" type="line"/>
      <point x="241" y="408"/>
      <point x="414" y="452"/>
      <point x="428" y="564" type="curve" smooth="yes"/>
      <point x="434" y="612"/>
      <point x="397" y="645"/>
      <point x="339" y="645" type="curve" smooth="yes"/>
      <point x="301" y="645"/>
      <point x="263" y="640"/>
      <point x="201" y="612" type="curve"/>
      <point x="179" y="696" type="line"/>
      <point x="252" y="729"/>
      <point x="305" y="737"/>
    </contour>
  </outline>
</glyph>
<glyph name="at" format="1">
  <advance width="919"/>
  <unicode hex="0040"/>
  <outline>
    <contour>
      <point x="645" y="159" type="curve" smooth="yes" name="hr00"/>
      <point x="643" y="151"/>
      <point x="642" y="144"/>
      <point x="640" y="137" type="curve"/>
      <point x="646" y="140"/>
      <point x="651" y="145"/>
      <point x="656" y="149" type="curve" smooth="yes"/>
      <point x="729" y="193"/>
      <point x="765" y="259"/>
      <point x="773" y="322" type="curve" smooth="yes"/>
      <point x="792" y="476"/>
      <point x="693" y="570"/>
      <point x="530" y="570" type="curve" smooth="yes"/>
      <point x="359" y="570"/>
      <point x="224" y="457"/>
      <point x="199" y="257" type="curve" smooth="yes"/>
      <point x="175" y="58"/>
      <point x="283" y="-54"/>
      <point x="440" y="-54" type="curve" smooth="yes"/>
      <point x="498" y="-54"/>
      <point x="543" y="-50"/>
      <point x="629" y="-24" type="curve"/>
      <point x="645" y="-93" type="line"/>
      <point x="546" y="-123"/>
      <point x="497" y="-128"/>
      <point x="431" y="-128" type="curve" smooth="yes"/>
      <point x="227" y="-128"/>
      <point x="77" y="-11"/>
      <point x="110" y="257" type="curve" smooth="yes"/>
      <point x="141" y="506"/>
      <point x="339" y="644"/>
      <point x="541" y="644" type="curve" smooth="yes"/>
      <point x="738" y="644"/>
      <point x="887" y="528"/>
      <point x="862" y="322" type="curve" smooth="yes"/>
      <point x="845" y="186"/>
      <point x="726" y="81"/>
      <point x="578" y="55" type="curve"/>
      <point x="564" y="63"/>
      <point x="560" y="78"/>
      <point x="556" y="95" type="curve"/>
      <point x="556" y="114" type="line"/>
      <point x="544" y="94" type="line"/>
      <point x="500" y="55"/>
      <point x="464" y="47"/>
      <point x="428" y="47" type="curve" smooth="yes"/>
      <point x="345" y="47"/>
      <point x="299" y="91"/>
      <point x="307" y="158" type="curve" smooth="yes"/>
      <point x="317" y="238"/>
      <point x="381" y="277"/>
      <point x="537" y="293" type="curve"/>
      <point x="533" y="275"/>
      <point x="513" y="227"/>
      <point x="473" y="221" type="curve" smooth="yes"/>
      <point x="415" y="213"/>
      <point x="398" y="189"/>
      <point x="394" y="162" type="curve" smooth="yes"/>
      <point x="391" y="133"/>
      <point x="412" y="113"/>
      <point x="452" y="113" type="curve" smooth="yes"/>
      <point x="486" y="113"/>
      <point x="524" y="128"/>
      <point x="560" y="169" type="curve"/>
      <point x="577" y="305" type="line" smooth="yes"/>
      <point x="584" y="366"/>
      <point x="556" y="396"/>
      <point x="494" y="396" type="curve" smooth="yes"/>
      <point x="466" y="396"/>
      <point x="438" y="392"/>
      <point x="396" y="378" type="curve"/>
      <point x="379" y="439" type="line"/>
      <point x="435" y="460"/>
      <point x="475" y="466"/>
      <point x="517" y="466" type="curve" smooth="yes"/>
      <point x="622" y="466"/>
      <point x="675" y="408"/>
      <point x="661" y="300" type="curve" smooth="yes"/>
      <point x="651" y="216" type="line" smooth="yes"/>
      <point x="649" y="197"/>
      <point x="646" y="177"/>
    </contour>
  </outline>
</glyph>
<glyph name="A" format="1">
  <advance width="709"/>
  <unicode hex="0041"/>
  <outline>
    <contour>
      <point x="382" y="727" type="line" name="hr00"/>
      <point x="505" y="727" type="line"/>
      <point x="677" y="0" type="line"/>
      <point x="546" y="0" type="line"/>
      <point x="426" y="558" type="line"/>
      <point x="422" y="592" type="line"/>
      <point x="410" y="557" type="line"/>
      <point x="280" y="274" type="line"/>
      <point x="266" y="254" type="line"/>
      <point x="280" y="256" type="line"/>
      <point x="378" y="256" type="line" smooth="yes"/>
      <point x="432" y="256"/>
      <point x="452" y="206"/>
      <point x="461" y="165" type="curve"/>
      <point x="231" y="165" type="line"/>
      <point x="156" y="0" type="line"/>
      <point x="32" y="0" type="line"/>
    </contour>
  </outline>
</glyph>
<glyph name="B" format="1">
  <advance width="664"/>
  <unicode hex="0042"/>
  <outline>
    <contour>
      <point x="353" y="80" type="curve"/>
      <point x="359" y="79"/>
      <point x="363" y="79"/>
      <point x="370" y="79" type="curve" smooth="yes"/>
      <point x="440" y="79"/>
      <point x="501" y="129"/>
      <point x="511" y="204" type="curve" smooth="yes"/>
      <point x="521" y="291"/>
      <point x="449" y="339"/>
      <point x="347" y="339" type="curve" smooth="yes"/>
      <point x="247" y="339" type="line"/>
      <point x="206" y="0" type="line" name="hr01"/>
      <point x="83" y="0" type="line"/>
      <point x="171" y="717" type="line"/>
      <point x="268" y="734"/>
      <point x="324" y="740"/>
      <point x="396" y="740" type="curve" smooth="yes"/>
      <point x="572" y="740"/>
      <point x="653" y="657"/>
      <point x="639" y="540" type="curve" smooth="yes"/>
      <point x="633" y="491"/>
      <point x="595" y="433"/>
      <point x="542" y="402" type="curve"/>
      <point x="511" y="388" type="line"/>
      <point x="538" y="381" type="line"/>
      <point x="609" y="351"/>
      <point x="650" y="280"/>
      <point x="641" y="205" type="curve" smooth="yes"/>
      <point x="628" y="102"/>
      <point x="521" y="-11"/>
      <point x="369" y="-11" type="curve" smooth="yes" name="hr02"/>
      <point x="331" y="-11"/>
      <point x="303" y="-8"/>
      <point x="246" y="6" type="curve"/>
      <point x="268" y="41"/>
      <point x="303" y="83"/>
    </contour>
    <contour>
      <point x="257" y="423" type="line"/>
      <point x="357" y="423" type="line" smooth="yes"/>
      <point x="437" y="423"/>
      <point x="503" y="472"/>
      <point x="512" y="539" type="curve" smooth="yes"/>
      <point x="518" y="594"/>
      <point x="482" y="649"/>
      <point x="385" y="649" type="curve" smooth="yes"/>
      <point x="349" y="649"/>
      <point x="321" y="647"/>
      <point x="284" y="643" type="curve"/>
    </contour>
  </outline>
</glyph>
<glyph name="C" format="1">
  <advance width="621"/>
  <unicode hex="0043"/>
  <outline>
    <contour>
      <point x="433" y="-12" type="curve" smooth="yes" name="hr00"/>
      <point x="201" y="-12"/>
      <point x="74" y="145"/>
      <point x="101" y="363" type="curve" smooth="yes"/>
      <point x="127" y="577"/>
      <point x="297" y="740"/>
      <point x="525" y="740" type="curve" smooth="yes"/>
      <point x="581" y="740"/>
      <point x="638" y="730"/>
      <point x="697" y="706" type="curve"/>
      <point x="655" y="624" type="line"/>
      <point x="598" y="642"/>
      <point x="560" y="648"/>
      <point x="514" y="648" type="curve" smooth="yes"/>
      <point x="363" y="648"/>
      <point x="254" y="526"/>
      <point x="234" y="363" type="curve" smooth="yes"/>
      <point x="215" y="209"/>
      <point x="293" y="79"/>
      <point x="444" y="79" type="curve" smooth="yes"/>
      <point x="490" y="79"/>
      <point x="538" y="90"/>
      <point x="592" y="115" type="curve"/>
      <point x="615" y="34" type="line"/>
      <point x="551" y="2"/>
      <point x="489" y="-12"/>
    </contour>
  </outline>
</glyph>
<glyph name="D" format="1">
  <advance width="734"/>
  <unicode hex="0044"/>
  <outline>
    <contour>
      <point x="371" y="-12" type="curve" smooth="yes"/>
      <point x="331" y="-12"/>
      <point x="304" y="-10"/>
      <point x="248" y="5" type="curve"/>
      <point x="269" y="40"/>
      <point x="305" y="82"/>
      <point x="355" y="80" type="curve" smooth="yes"/>
      <point x="363" y="79"/>
      <point x="366" y="79"/>
      <point x="372" y="79" type="curve" smooth="yes"/>
      <point x="516" y="79"/>
      <point x="611" y="219"/>
      <point x="629" y="365" type="curve" smooth="yes"/>
      <point x="650" y="536"/>
      <point x="578" y="648"/>
      <point x="384" y="648" type="curve" smooth="yes"/>
      <point x="352" y="648"/>
      <point x="319" y="645"/>
      <point x="287" y="641" type="curve"/>
      <point x="209" y="0" type="line" name="hr01"/>
      <point x="85" y="0" type="line"/>
      <point x="172" y="715" type="line"/>
      <point x="253" y="732"/>
      <point x="337" y="740"/>
      <point x="395" y="740" type="curve" smooth="yes"/>
      <point x="656" y="740"/>
      <point x="791" y="601"/>
      <point x="762" y="365" type="curve" smooth="yes"/>
      <point x="736" y="151"/>
      <point x="565" y="-12"/>
    </contour>
  </outline>
</glyph>
<glyph name="E" format="1">
  <advance width="584"/>
  <unicode hex="0045"/>
  <outline>
    <contour>
      <point x="395" y="426" type="curve" name="hr00"/>
      <point x="531" y="426" type="line"/>
      <point x="520" y="337" type="line"/>
      <point x="289" y="337" type="line"/>
      <point x="308" y="378"/>
      <point x="341" y="426"/>
    </contour>
    <contour>
      <point x="85" y="0" type="line"/>
      <point x="174" y="727" type="line"/>
      <point x="602" y="727" type="line"/>
      <point x="591" y="636" type="line"/>
      <point x="288" y="636" type="line"/>
      <point x="221" y="91" type="line"/>
      <point x="540" y="91" type="line"/>
      <point x="529" y="0" type="line"/>
    </contour>
  </outline>
</glyph>
<glyph name="F" format="1">
  <advance width="580"/>
  <unicode hex="0046"/>
  <outline>
    <contour>
      <point x="395" y="426" type="curve" name="hr00"/>
      <point x="531" y="426" type="line"/>
      <point x="520" y="337" type="line"/>
      <point x="289" y="337" type="line"/>
      <point x="308" y="378"/>
      <point x="341" y="426"/>
    </contour>
    <contour>
      <point x="85" y="0" type="line"/>
      <point x="174" y="727" type="line"/>
      <point x="602" y="727" type="line"/>
      <point x="591" y="636" type="line"/>
      <point x="288" y="636" type="line"/>
      <point x="210" y="0" type="line"/>
    </contour>
  </outline>
</glyph>
<glyph name="G" format="1">
  <advance width="694"/>
  <unicode hex="0047"/>
  <outline>
    <contour>
      <point x="508" y="648" type="curve" smooth="yes" name="hr00"/>
      <point x="357" y="648"/>
      <point x="238" y="531"/>
      <point x="217" y="363" type="curve" smooth="yes"/>
      <point x="197" y="200"/>
      <point x="285" y="79"/>
      <point x="436" y="79" type="curve" smooth="yes"/>
      <point x="465" y="79"/>
      <point x="496" y="81"/>
      <point x="540" y="93" type="curve"/>
      <point x="570" y="337" type="line"/>
      <point x="685" y="337" type="line"/>
      <point x="648" y="37" type="line"/>
      <point x="571" y="2"/>
      <point x="482" y="-12"/>
      <point x="425" y="-12" type="curve" smooth="yes"/>
      <point x="194" y="-12"/>
      <point x="56" y="144"/>
      <point x="83" y="363" type="curve" smooth="yes"/>
      <point x="110" y="579"/>
      <point x="290" y="740"/>
      <point x="519" y="740" type="curve" smooth="yes"/>
      <point x="576" y="740"/>
      <point x="651" y="728"/>
      <point x="720" y="696" type="curve"/>
      <point x="678" y="612" type="line"/>
      <point x="607" y="641"/>
      <point x="554" y="648"/>
    </contour>
  </outline>
</glyph>
<glyph name="H" format="1">
  <advance width="751"/>
  <unicode hex="0048"/>
  <outline>
    <contour>
      <point x="85" y="0" type="line" name="hr00"/>
      <point x="174" y="727" type="line"/>
      <point x="299" y="727" type="line"/>
      <point x="210" y="0" type="line"/>
    </contour>
    <contour>
      <point x="395" y="427" type="curve"/>
      <point x="596" y="427" type="line"/>
      <point x="633" y="727" type="line"/>
      <point x="756" y="727" type="line"/>
      <point x="667" y="0" type="line"/>
      <point x="544" y="0" type="line"/>
      <point x="585" y="336" type="line"/>
      <point x="289" y="336" type="line"/>
      <point x="308" y="378"/>
      <point x="341" y="427"/>
    </contour>
  </outline>
</glyph>
<glyph name="J" format="1">
  <advance width="360"/>
  <unicode hex="004A"/>
  <outline>
    <contour>
      <point x="368" y="727" type="line" name="hr00"/>
      <point x="294" y="128" type="line" smooth="yes"/>
      <point x="272" y="-54"/>
      <point x="180" y="-117"/>
      <point x="20" y="-217" type="curve"/>
      <point x="-25" y="-146" type="line"/>
      <point x="84" y="-64"/>
      <point x="151" y="-17"/>
      <point x="169" y="128" type="curve" smooth="yes"/>
      <point x="243" y="727" type="line"/>
    </contour>
  </outline>
</glyph>
<glyph name="K" format="1">
  <advance width="691"/>
  <unicode hex="004B"/>
  <outline>
    <contour>
      <point x="210" y="0" type="line" name="hr00"/>
      <point x="85" y="0" type="line"/>
      <point x="174" y="727" type="line"/>
      <point x="299" y="727" type="line"/>
    </contour>
    <contour>
      <point x="728" y="727" type="line"/>
      <point x="467" y="435" type="line"/>
      <point x="673" y="0" type="line"/>
      <point x="528" y="0" type="line"/>
      <point x="393" y="331" type="line"/>
      <point x="389" y="353" type="line"/>
      <point x="375" y="333" type="line"/>
      <point x="295" y="243" type="line"/>
      <point x="284" y="299"/>
      <point x="303" y="374"/>
      <point x="343" y="431" type="curve" smooth="yes"/>
      <point x="410" y="529"/>
      <point x="508" y="631"/>
      <point x="590" y="727" type="curve"/>
    </contour>
  </outline>
</glyph>
<glyph name="L" format="1">
  <advance width="527"/>
  <unicode hex="004C"/>
  <outline>
    <contour>
      <point x="85" y="0" type="line" name="hr00"/>
      <point x="174" y="727" type="line"/>
      <point x="300" y="727" type="line"/>
      <point x="222" y="92" type="line"/>
      <point x="499" y="92" type="line"/>
      <point x="495" y="61"/>
      <point x="491" y="31"/>
      <point x="488" y="0" type="curve"/>
    </contour>
  </outline>
</glyph>
<glyph name="M" format="1">
  <advance width="970"/>
  <unicode hex="004D"/>
  <outline>
    <contour>
      <point x="72" y="0" type="line" name="hr00"/>
      <point x="235" y="727" type="line"/>
      <point x="394" y="727" type="line"/>
      <point x="497" y="157" type="line"/>
      <point x="500" y="123" type="line"/>
      <point x="512" y="157" type="line"/>
      <point x="754" y="727" type="line"/>
      <point x="913" y="727" type="line"/>
      <point x="897" y="0" type="line"/>
      <point x="781" y="0" type="line"/>
      <point x="803" y="561" type="line"/>
      <point x="806" y="607" type="line"/>
      <point x="788" y="561" type="line"/>
      <point x="548" y="10" type="line"/>
      <point x="423" y="10" type="line"/>
      <point x="316" y="562" type="line"/>
      <point x="309" y="607" type="line"/>
      <point x="188" y="0" type="line"/>
    </contour>
  </outline>
</glyph>
<glyph name="N" format="1">
  <advance width="767"/>
  <unicode hex="004E"/>
  <outline>
    <contour>
      <point x="555" y="0" type="line" name="hr00"/>
      <point x="463" y="179"/>
      <point x="373" y="357"/>
      <point x="283" y="536" type="curve"/>
      <point x="272" y="571" type="line"/>
      <point x="269" y="537" type="line"/>
      <point x="204" y="0" type="line"/>
      <point x="98" y="0" type="line"/>
      <point x="187" y="727" type="line"/>
      <point x="309" y="727" type="line"/>
      <point x="554" y="240" type="line" smooth="yes"/>
      <point x="559" y="230"/>
      <point x="564" y="220"/>
      <point x="569" y="210" type="curve"/>
      <point x="578" y="172" type="line"/>
      <point x="580" y="210" type="line"/>
      <point x="644" y="727" type="line"/>
      <point x="754" y="727" type="line"/>
      <point x="665" y="0" type="line"/>
    </contour>
  </outline>
</glyph>
<glyph name="O" format="1">
  <advance width="790"/>
  <unicode hex="004F"/>
  <outline>
    <contour>
      <point x="221" y="364" type="curve" smooth="yes" name="hr00"/>
      <point x="202" y="210"/>
      <point x="268" y="77"/>
      <point x="405" y="77" type="curve" smooth="yes"/>
      <point x="527" y="77"/>
      <point x="639" y="191"/>
      <point x="660" y="364" type="curve" smooth="yes"/>
      <point x="681" y="533"/>
      <point x="606" y="650"/>
      <point x="475" y="650" type="curve" smooth="yes"/>
      <point x="341" y="650"/>
      <point x="241" y="527"/>
    </contour>
    <contour>
      <point x="88" y="364" type="curve" smooth="yes"/>
      <point x="116" y="590"/>
      <point x="286" y="742"/>
      <point x="487" y="742" type="curve" smooth="yes"/>
      <point x="732" y="742"/>
      <point x="815" y="552"/>
      <point x="792" y="364" type="curve" smooth="yes"/>
      <point x="767" y="155"/>
      <point x="607" y="-14"/>
      <point x="394" y="-14" type="curve" smooth="yes"/>
      <point x="180" y="-14"/>
      <point x="61" y="141"/>
    </contour>
  </outline>
</glyph>
<glyph name="P" format="1">
  <advance width="630"/>
  <unicode hex="0050"/>
  <outline>
    <contour>
      <point x="645" y="516" type="curve" smooth="yes" name="hr00"/>
      <point x="629" y="385"/>
      <point x="506" y="306"/>
      <point x="386" y="295" type="curve" smooth="yes"/>
      <point x="355" y="292"/>
      <point x="321" y="293"/>
      <point x="286" y="304" type="curve"/>
      <point x="305" y="340"/>
      <point x="338" y="381"/>
      <point x="383" y="383" type="curve" smooth="yes"/>
      <point x="443" y="386"/>
      <point x="507" y="443"/>
      <point x="516" y="516" type="curve" smooth="yes"/>
      <point x="525" y="590"/>
      <point x="469" y="649"/>
      <point x="384" y="649" type="curve" smooth="yes"/>
      <point x="347" y="649"/>
      <point x="326" y="647"/>
      <point x="289" y="643" type="curve"/>
      <point x="211" y="0" type="line"/>
      <point x="85" y="1" type="line"/>
      <point x="173" y="719" type="line"/>
      <point x="271" y="736"/>
      <point x="322" y="741"/>
      <point x="395" y="741" type="curve" smooth="yes"/>
      <point x="556" y="741"/>
      <point x="661" y="649"/>
    </contour>
  </outline>
</glyph>
<glyph name="Q" format="1">
  <advance width="784"/>
  <unicode hex="0051"/>
  <outline>
    <contour>
      <point x="675" y="115" type="curve"/>
      <point x="733" y="46" type="line"/>
      <point x="657" y="-21" type="line"/>
      <point x="441" y="231" type="line"/>
      <point x="517" y="298" type="line"/>
      <point x="593" y="208" type="line"/>
      <point x="604" y="188" type="line"/>
      <point x="614" y="213" type="line"/>
      <point x="641" y="260"/>
      <point x="656" y="314"/>
      <point x="662" y="364" type="curve" smooth="yes"/>
      <point x="682" y="527"/>
      <point x="613" y="650"/>
      <point x="478" y="650" type="curve" smooth="yes"/>
      <point x="344" y="650"/>
      <point x="244" y="527"/>
      <point x="224" y="364" type="curve" smooth="yes"/>
      <point x="205" y="208"/>
      <point x="272" y="78"/>
      <point x="400" y="78" type="curve" smooth="yes" name="hr01"/>
      <point x="415" y="78"/>
      <point x="433" y="80"/>
      <point x="449" y="82" type="curve" smooth="yes"/>
      <point x="490" y="85"/>
      <point x="529" y="61"/>
      <point x="547" y="37" type="curve"/>
      <point x="492" y="2"/>
      <point x="438" y="-14"/>
      <point x="389" y="-14" type="curve" smooth="yes"/>
      <point x="184" y="-14"/>
      <point x="64" y="140"/>
      <point x="91" y="364" type="curve" smooth="yes"/>
      <point x="119" y="587"/>
      <point x="285" y="742"/>
      <point x="490" y="742" type="curve" smooth="yes"/>
      <point x="702" y="742"/>
      <point x="823" y="590"/>
      <point x="795" y="364" type="curve" smooth="yes"/>
      <point x="784" y="273"/>
      <point x="741" y="191"/>
    </contour>
  </outline>
</glyph>
<glyph name="R" format="1">
  <advance width="670"/>
  <unicode hex="0052"/>
  <outline>
    <contour>
      <point x="645" y="521" type="curve" smooth="yes" name="hr00"/>
      <point x="636" y="442"/>
      <point x="585" y="381"/>
      <point x="518" y="345" type="curve"/>
      <point x="490" y="335" type="line"/>
      <point x="594" y="277"/>
      <point x="566" y="139"/>
      <point x="612" y="0" type="curve"/>
      <point x="483" y="0" type="line"/>
      <point x="447" y="107"/>
      <point x="466" y="254"/>
      <point x="386" y="305" type="curve"/>
      <point x="376" y="304"/>
      <point x="365" y="304"/>
      <point x="354" y="305" type="curve" smooth="yes"/>
      <point x="333" y="305"/>
      <point x="310" y="307"/>
      <point x="287" y="314" type="curve"/>
      <point x="306" y="350"/>
      <point x="340" y="391"/>
      <point x="384" y="394" type="curve" smooth="yes"/>
      <point x="444" y="398"/>
      <point x="508" y="450"/>
      <point x="516" y="521" type="curve" smooth="yes"/>
      <point x="525" y="594"/>
      <point x="466" y="649"/>
      <point x="384" y="649" type="curve" smooth="yes"/>
      <point x="347" y="649"/>
      <point x="330" y="648"/>
      <point x="289" y="642" type="curve"/>
      <point x="211" y="0" type="line"/>
      <point x="85" y="0" type="line"/>
      <point x="173" y="718" type="line"/>
      <point x="271" y="735"/>
      <point x="322" y="741"/>
      <point x="395" y="741" type="curve" smooth="yes"/>
      <point x="553" y="741"/>
      <point x="662" y="653"/>
    </contour>
  </outline>
</glyph>
<glyph name="S" format="1">
  <advance width="568"/>
  <unicode hex="0053"/>
  <outline>
    <contour>
      <point x="365" y="650" type="curve" smooth="yes" name="hr00"/>
      <point x="299" y="650"/>
      <point x="256" y="611"/>
      <point x="249" y="561" type="curve" smooth="yes"/>
      <point x="232" y="417"/>
      <point x="571" y="415"/>
      <point x="543" y="185" type="curve" smooth="yes"/>
      <point x="529" y="68"/>
      <point x="423" y="-13"/>
      <point x="271" y="-13" type="curve" smooth="yes"/>
      <point x="214" y="-13"/>
      <point x="136" y="0"/>
      <point x="58" y="39" type="curve"/>
      <point x="101" y="121" type="line"/>
      <point x="166" y="90"/>
      <point x="228" y="79"/>
      <point x="277" y="79" type="curve" smooth="yes"/>
      <point x="357" y="79"/>
      <point x="416" y="126"/>
      <point x="423" y="184" type="curve" smooth="yes"/>
      <point x="442" y="339"/>
      <point x="103" y="332"/>
      <point x="130" y="553" type="curve" smooth="yes"/>
      <point x="145" y="673"/>
      <point x="247" y="740"/>
      <point x="367" y="740" type="curve" smooth="yes"/>
      <point x="426" y="740"/>
      <point x="479" y="733"/>
      <point x="553" y="708" type="curve"/>
      <point x="510" y="627" type="line"/>
      <point x="454" y="644"/>
      <point x="406" y="650"/>
    </contour>
  </outline>
</glyph>
<glyph name="T" format="1">
  <advance width="538"/>
  <unicode hex="0054"/>
  <outline>
    <contour>
      <point x="283" y="636" type="line" name="hr00"/>
      <point x="85" y="636" type="line"/>
      <point x="96" y="727" type="line"/>
      <point x="618" y="727" type="line"/>
      <point x="607" y="636" type="line"/>
      <point x="408" y="636" type="line"/>
      <point x="330" y="0" type="line"/>
      <point x="205" y="0" type="line"/>
    </contour>
  </outline>
</glyph>
<glyph name="U" format="1">
  <advance width="715"/>
  <unicode hex="0055"/>
  <outline>
    <contour>
      <point x="362" y="-14" type="curve" smooth="yes" name="hr00"/>
      <point x="186" y="-14"/>
      <point x="92" y="93"/>
      <point x="114" y="274" type="curve" smooth="yes"/>
      <point x="170" y="727" type="line"/>
      <point x="293" y="727" type="line"/>
      <point x="235" y="259" type="line" smooth="yes"/>
      <point x="221" y="146"/>
      <point x="279" y="77"/>
      <point x="373" y="77" type="curve" smooth="yes"/>
      <point x="466" y="77"/>
      <point x="540" y="146"/>
      <point x="554" y="259" type="curve" smooth="yes"/>
      <point x="612" y="727" type="line"/>
      <point x="735" y="727" type="line"/>
      <point x="679" y="274" type="line" smooth="yes"/>
      <point x="658" y="100"/>
      <point x="533" y="-14"/>
    </contour>
  </outline>
</glyph>
<glyph name="V" format="1">
  <advance width="653"/>
  <unicode hex="0056"/>
  <outline>
    <contour>
      <point x="394" y="0" type="line" name="hr00"/>
      <point x="265" y="0" type="line"/>
      <point x="99" y="727" type="line"/>
      <point x="232" y="727" type="line"/>
      <point x="343" y="158" type="line"/>
      <point x="345" y="122" type="line"/>
      <point x="357" y="157" type="line"/>
      <point x="607" y="727" type="line"/>
      <point x="736" y="727" type="line"/>
    </contour>
  </outline>
</glyph>
<glyph name="W" format="1">
  <advance width="1026"/>
  <unicode hex="0057"/>
  <outline>
    <contour>
      <point x="536" y="717" type="line" name="hr00"/>
      <point x="673" y="717" type="line"/>
      <point x="742" y="172" type="line"/>
      <point x="745" y="119" type="line"/>
      <point x="760" y="170" type="line"/>
      <point x="968" y="727" type="line"/>
      <point x="1088" y="727" type="line"/>
      <point x="798" y="0" type="line"/>
      <point x="668" y="0" type="line"/>
      <point x="590" y="547" type="line"/>
      <point x="587" y="588" type="line"/>
      <point x="574" y="548" type="line"/>
      <point x="363" y="0" type="line"/>
      <point x="229" y="0" type="line"/>
      <point x="116" y="727" type="line"/>
      <point x="239" y="727" type="line"/>
      <point x="311" y="172" type="line"/>
      <point x="312" y="119" type="line"/>
      <point x="330" y="172" type="line"/>
    </contour>
  </outline>
</glyph>
<glyph name="X" format="1">
  <advance width="648"/>
  <unicode hex="0058"/>
  <outline>
    <contour>
      <point x="279" y="170" type="curve" name="hr00"/>
      <point x="165" y="0" type="line"/>
      <point x="31" y="0" type="line"/>
      <point x="270" y="327" type="line"/>
      <point x="290" y="294"/>
      <point x="316" y="223"/>
    </contour>
    <contour>
      <point x="478" y="0" type="line"/>
      <point x="132" y="727" type="line"/>
      <point x="272" y="727" type="line"/>
      <point x="373" y="478" type="line"/>
      <point x="380" y="449" type="line"/>
      <point x="391" y="478" type="line"/>
      <point x="554" y="727" type="line"/>
      <point x="692" y="727" type="line"/>
      <point x="433" y="371" type="line"/>
      <point x="615" y="0" type="line"/>
    </contour>
  </outline>
</glyph>
<glyph name="Y" format="1">
  <advance width="684"/>
  <unicode hex="0059"/>
  <outline>
    <contour>
      <point x="463" y="536" type="curve" name="hr00"/>
      <point x="593" y="727" type="line"/>
      <point x="728" y="727" type="line"/>
      <point x="473" y="377" type="line"/>
      <point x="451" y="409"/>
      <point x="424" y="479"/>
    </contour>
    <contour>
      <point x="253" y="727" type="line"/>
      <point x="438" y="338" type="line"/>
      <point x="397" y="0" type="line"/>
      <point x="276" y="0" type="line"/>
      <point x="314" y="317" type="line"/>
      <point x="115" y="727" type="line"/>
    </contour>
  </outline>
</glyph>
<glyph name="Z" format="1">
  <advance width="607"/>
  <unicode hex="005A"/>
  <outline>
    <contour>
      <point x="175" y="637" type="line" name="hr00"/>
      <point x="186" y="727" type="line"/>
      <point x="678" y="727" type="line"/>
      <point x="672" y="676" type="line"/>
      <point x="234" y="103" type="line"/>
      <point x="216" y="88" type="line"/>
      <point x="240" y="91" type="line"/>
      <point x="610" y="91" type="line"/>
      <point x="599" y="0" type="line"/>
      <point x="61" y="0" type="line"/>
      <point x="67" y="51" type="line"/>
      <point x="504" y="623" type="line"/>
      <point x="522" y="640" type="line"/>
      <point x="498" y="637" type="line"/>
    </contour>
  </outline>
</glyph>
<glyph name="bracketleft" format="1">
  <advance width="447"/>
  <unicode hex="005B"/>
  <outline>
    <contour>
      <point x="106" y="-199" type="line" name="hr00"/>
      <point x="225" y="771" type="line"/>
      <point x="510" y="771" type="line"/>
      <point x="499" y="679" type="line"/>
      <point x="328" y="679" type="line"/>
      <point x="231" y="-107" type="line"/>
      <point x="403" y="-107" type="line"/>
      <point x="400" y="-138"/>
      <point x="395" y="-168"/>
      <point x="391" y="-199" type="curve"/>
    </contour>
  </outline>
</glyph>
<glyph name="bracketright" format="1">
  <advance width="451"/>
  <unicode hex="005D"/>
  <outline>
    <contour>
      <point x="425" y="771" type="line" name="hr00"/>
      <point x="306" y="-199" type="line"/>
      <point x="20" y="-199" type="line"/>
      <point x="24" y="-168"/>
      <point x="28" y="-138"/>
      <point x="31" y="-107" type="curve"/>
      <point x="202" y="-107" type="line"/>
      <point x="299" y="679" type="line"/>
      <point x="128" y="679" type="line"/>
      <point x="139" y="771" type="line"/>
    </contour>
  </outline>
</glyph>
<glyph name="asciicircum" format="1">
  <advance width="628"/>
  <unicode hex="005E"/>
  <outline>
    <contour>
      <point x="377" y="557" type="line" name="hr00"/>
      <point x="200" y="210" type="line"/>
      <point x="90" y="210" type="line"/>
      <point x="363" y="727" type="line"/>
      <point x="446" y="727" type="line"/>
      <point x="591" y="210" type="line"/>
      <point x="483" y="210" type="line"/>
      <point x="397" y="534" type="line" smooth="yes"/>
      <point x="395" y="541"/>
      <point x="393" y="549"/>
      <point x="391" y="557" type="curve"/>
      <point x="387" y="586" type="line"/>
    </contour>
  </outline>
</glyph>
<glyph name="underscore" format="1">
  <advance width="497"/>
  <unicode hex="005F"/>
  <outline>
    <contour>
      <point x="459" y="-83" type="line" name="hr00"/>
      <point x="16" y="-83" type="line"/>
      <point x="27" y="0" type="line"/>
      <point x="470" y="0" type="line"/>
    </contour>
  </outline>
</glyph>
<glyph name="b" format="1">
  <advance width="599"/>
  <unicode hex="0062"/>
  <outline>
    <contour>
      <point x="294" y="494" type="curve" name="hr00"/>
      <point x="333" y="512"/>
      <point x="375" y="523"/>
      <point x="407" y="525" type="curve" smooth="yes"/>
      <point x="528" y="531"/>
      <point x="603" y="411"/>
      <point x="586" y="271" type="curve" smooth="yes"/>
      <point x="566" y="109"/>
      <point x="447" y="-13"/>
      <point x="285" y="-13" type="curve" smooth="yes"/>
      <point x="212" y="-13"/>
      <point x="149" y="3"/>
      <point x="82" y="41" type="curve"/>
      <point x="170" y="758" type="line"/>
      <point x="290" y="751" type="line"/>
      <point x="209" y="90" type="line"/>
      <point x="239" y="81"/>
      <point x="268" y="78"/>
      <point x="296" y="78" type="curve" smooth="yes"/>
      <point x="380" y="78"/>
      <point x="443" y="158"/>
      <point x="457" y="271" type="curve" smooth="yes"/>
      <point x="468" y="361"/>
      <point x="443" y="441"/>
      <point x="370" y="433" type="curve" smooth="yes"/>
      <point x="331" y="429"/>
      <point x="311" y="458"/>
    </contour>
  </outline>
</glyph>
<glyph name="c" format="1">
  <advance width="429"/>
  <unicode hex="0063"/>
  <outline>
    <contour>
      <point x="289" y="-12" type="curve" smooth="yes" name="hr00"/>
      <point x="152" y="-12"/>
      <point x="42" y="74"/>
      <point x="64" y="259" type="curve" smooth="yes"/>
      <point x="86" y="437"/>
      <point x="220" y="529"/>
      <point x="355" y="529" type="curve" smooth="yes"/>
      <point x="391" y="529"/>
      <point x="436" y="522"/>
      <point x="474" y="507" type="curve"/>
      <point x="435" y="425" type="line"/>
      <point x="401" y="434"/>
      <point x="369" y="438"/>
      <point x="344" y="438" type="curve" smooth="yes"/>
      <point x="271" y="438"/>
      <point x="208" y="374"/>
      <point x="194" y="259" type="curve" smooth="yes"/>
      <point x="180" y="143"/>
      <point x="226" y="79"/>
      <point x="300" y="79" type="curve" smooth="yes"/>
      <point x="328" y="79"/>
      <point x="361" y="87"/>
      <point x="407" y="105" type="curve"/>
      <point x="428" y="23" type="line"/>
      <point x="372" y="-2"/>
      <point x="323" y="-12"/>
    </contour>
  </outline>
</glyph>
<glyph name="d" format="1">
  <advance width="611"/>
  <unicode hex="0064"/>
  <outline>
    <contour>
      <point x="71" y="262" type="curve" smooth="yes"/>
      <point x="89" y="410"/>
      <point x="211" y="525"/>
      <point x="328" y="525" type="curve" smooth="yes"/>
      <point x="360" y="525"/>
      <point x="389" y="521"/>
      <point x="434" y="507" type="curve"/>
      <point x="411" y="466"/>
      <point x="382" y="438"/>
      <point x="343" y="437" type="curve" smooth="yes"/>
      <point x="266" y="434"/>
      <point x="214" y="371"/>
      <point x="201" y="262" type="curve" smooth="yes"/>
      <point x="188" y="160"/>
      <point x="220" y="79"/>
      <point x="295" y="79" type="curve" smooth="yes"/>
      <point x="336" y="79"/>
      <point x="378" y="102"/>
      <point x="426" y="151" type="curve"/>
      <point x="501" y="758" type="line"/>
      <point x="621" y="751" type="line"/>
      <point x="552" y="187" type="line" smooth="yes"/>
      <point x="544" y="119"/>
      <point x="539" y="64"/>
      <point x="545" y="5" type="curve"/>
      <point x="452" y="0" type="line" name="hr01"/>
      <point x="437" y="11"/>
      <point x="429" y="28"/>
      <point x="423" y="50" type="curve"/>
      <point x="422" y="70" type="line"/>
      <point x="406" y="50" type="line"/>
      <point x="352" y="3"/>
      <point x="303" y="-12"/>
      <point x="263" y="-12" type="curve" smooth="yes" name="hr02"/>
      <point x="120" y="-12"/>
      <point x="52" y="106"/>
    </contour>
  </outline>
</glyph>
<glyph name="e" format="1">
  <advance width="556"/>
  <unicode hex="0065"/>
  <outline>
    <contour>
      <point x="326" y="317" type="curve" name="hr00"/>
      <point x="429" y="317" type="line"/>
      <point x="447" y="384"/>
      <point x="413" y="441"/>
      <point x="351" y="441" type="curve" smooth="yes"/>
      <point x="285" y="441"/>
      <point x="217" y="386"/>
      <point x="202" y="268" type="curve" smooth="yes"/>
      <point x="188" y="152"/>
      <point x="240" y="79"/>
      <point x="327" y="79" type="curve" smooth="yes"/>
      <point x="373" y="79"/>
      <point x="414" y="89"/>
      <point x="475" y="116" type="curve"/>
      <point x="497" y="33" type="line"/>
      <point x="424" y="0"/>
      <point x="360" y="-12"/>
      <point x="303" y="-12" type="curve" smooth="yes"/>
      <point x="133" y="-12"/>
      <point x="63" y="122"/>
      <point x="81" y="265" type="curve" smooth="yes"/>
      <point x="101" y="429"/>
      <point x="221" y="529"/>
      <point x="369" y="529" type="curve" smooth="yes"/>
      <point x="513" y="529"/>
      <point x="594" y="402"/>
      <point x="520" y="241" type="curve"/>
      <point x="236" y="241" type="line"/>
      <point x="255" y="284"/>
      <point x="287" y="317"/>
    </contour>
  </outline>
</glyph>
<glyph name="f" format="1">
  <advance width="419"/>
  <unicode hex="0066"/>
  <outline>
    <contour>
      <point x="407" y="517" type="curve" name="hr00"/>
      <point x="457" y="517" type="line"/>
      <point x="446" y="429" type="line"/>
      <point x="302" y="429" type="line"/>
      <point x="320" y="471"/>
      <point x="353" y="517"/>
    </contour>
    <contour>
      <point x="152" y="429" type="line"/>
      <point x="68" y="429" type="line"/>
      <point x="77" y="497" type="line"/>
      <point x="163" y="517" type="line"/>
      <point x="166" y="545" type="line" smooth="yes"/>
      <point x="183" y="676"/>
      <point x="272" y="763"/>
      <point x="402" y="763" type="curve" smooth="yes"/>
      <point x="435" y="763"/>
      <point x="479" y="756"/>
      <point x="527" y="735" type="curve"/>
      <point x="490" y="656" type="line"/>
      <point x="452" y="669"/>
      <point x="426" y="673"/>
      <point x="404" y="673" type="curve" smooth="yes"/>
      <point x="342" y="673"/>
      <point x="292" y="629"/>
      <point x="282" y="549" type="curve" smooth="yes"/>
      <point x="215" y="0" type="line"/>
      <point x="100" y="0" type="line"/>
    </contour>
  </outline>
</glyph>
<glyph name="g" format="1">
  <advance width="583"/>
  <unicode hex="0067"/>
  <outline>
    <contour>
      <point x="76" y="246" type="curve" smooth="yes" name="hr00"/>
      <point x="95" y="407"/>
      <point x="216" y="528"/>
      <point x="385" y="528" type="curve" smooth="yes"/>
      <point x="442" y="528"/>
      <point x="493" y="522"/>
      <point x="578" y="497" type="curve"/>
      <point x="517" y="0" type="line" smooth="yes"/>
      <point x="496" y="-170"/>
      <point x="377" y="-250"/>
      <point x="231" y="-250" type="curve" smooth="yes"/>
      <point x="179" y="-250"/>
      <point x="114" y="-242"/>
      <point x="45" y="-208" type="curve"/>
      <point x="86" y="-124" type="line"/>
      <point x="146" y="-152"/>
      <point x="192" y="-161"/>
      <point x="234" y="-161" type="curve" smooth="yes"/>
      <point x="312" y="-161"/>
      <point x="384" y="-111"/>
      <point x="396" y="-11" type="curve" smooth="yes"/>
      <point x="450" y="428" type="line"/>
      <point x="423" y="435"/>
      <point x="398" y="437"/>
      <point x="378" y="437" type="curve" smooth="yes"/>
      <point x="284" y="437"/>
      <point x="220" y="363"/>
      <point x="206" y="246" type="curve" smooth="yes"/>
      <point x="196" y="164"/>
      <point x="211" y="78"/>
      <point x="288" y="87" type="curve" smooth="yes"/>
      <point x="324" y="91"/>
      <point x="345" y="68"/>
      <point x="365" y="34" type="curve"/>
      <point x="328" y="11"/>
      <point x="288" y="-5"/>
      <point x="255" y="-8" type="curve"/>
      <point x="130" y="-18"/>
      <point x="59" y="110"/>
    </contour>
  </outline>
</glyph>
<glyph name="h" format="1">
  <advance width="598"/>
  <unicode hex="0068"/>
  <outline>
    <contour>
      <point x="400" y="0" type="line" name="hr00"/>
      <point x="445" y="370" type="line" smooth="yes"/>
      <point x="450" y="408"/>
      <point x="438" y="436"/>
      <point x="404" y="436" type="curve" smooth="yes"/>
      <point x="386" y="436"/>
      <point x="367" y="426"/>
      <point x="347" y="429" type="curve" smooth="yes"/>
      <point x="322" y="429"/>
      <point x="306" y="453"/>
      <point x="293" y="481" type="curve"/>
      <point x="364" y="520"/>
      <point x="410" y="529"/>
      <point x="447" y="529" type="curve" smooth="yes"/>
      <point x="519" y="529"/>
      <point x="582" y="483"/>
      <point x="568" y="368" type="curve" smooth="yes"/>
      <point x="523" y="0" type="line"/>
    </contour>
    <contour>
      <point x="198" y="0" type="line"/>
      <point x="77" y="0" type="line"/>
      <point x="170" y="758" type="line"/>
      <point x="290" y="751" type="line"/>
    </contour>
  </outline>
</glyph>
<glyph name="i" format="1">
  <advance width="271"/>
  <unicode hex="0069"/>
  <outline>
    <contour>
      <point x="143" y="667" type="curve" smooth="yes" name="hr00"/>
      <point x="149" y="709"/>
      <point x="185" y="742"/>
      <point x="226" y="742" type="curve" smooth="yes"/>
      <point x="268" y="742"/>
      <point x="296" y="709"/>
      <point x="290" y="667" type="curve" smooth="yes"/>
      <point x="285" y="626"/>
      <point x="249" y="593"/>
      <point x="207" y="593" type="curve" smooth="yes"/>
      <point x="166" y="593"/>
      <point x="138" y="626"/>
    </contour>
    <contour>
      <point x="197" y="0" type="line"/>
      <point x="74" y="0" type="line"/>
      <point x="137" y="517" type="line"/>
      <point x="260" y="517" type="line"/>
    </contour>
  </outline>
</glyph>
<glyph name="j" format="1">
  <advance width="289"/>
  <unicode hex="006A"/>
  <outline>
    <contour>
      <point x="275" y="517" type="line"/>
      <point x="217" y="45" type="line" smooth="yes"/>
      <point x="202" y="-74"/>
      <point x="156" y="-145"/>
      <point x="-8" y="-249" type="curve"/>
      <point x="-53" y="-183" type="line"/>
      <point x="60" y="-95"/>
      <point x="83" y="-52"/>
      <point x="95" y="45" type="curve" smooth="yes"/>
      <point x="153" y="517" type="line"/>
    </contour>
    <contour>
      <point x="159" y="667" type="curve" smooth="yes"/>
      <point x="165" y="710"/>
      <point x="200" y="743"/>
      <point x="242" y="743" type="curve" smooth="yes" name="hr01"/>
      <point x="285" y="743"/>
      <point x="313" y="710"/>
      <point x="307" y="667" type="curve" smooth="yes"/>
      <point x="302" y="625"/>
      <point x="266" y="593"/>
      <point x="223" y="593" type="curve" smooth="yes"/>
      <point x="181" y="593"/>
      <point x="154" y="625"/>
    </contour>
  </outline>
</glyph>
<glyph name="k" format="1">
  <advance width="608"/>
  <unicode hex="006B"/>
  <outline>
    <contour>
      <point x="611" y="510" type="line" name="hr00"/>
      <point x="431" y="337" type="line"/>
      <point x="588" y="0" type="line"/>
      <point x="452" y="0" type="line"/>
      <point x="361" y="227" type="line"/>
      <point x="350" y="262" type="line"/>
      <point x="269" y="181" type="line"/>
      <point x="263" y="239"/>
      <point x="281" y="300"/>
      <point x="319" y="348" type="curve" smooth="yes"/>
      <point x="332" y="365"/>
      <point x="346" y="380"/>
      <point x="361" y="396" type="curve" smooth="yes"/>
      <point x="478" y="517" type="line"/>
    </contour>
    <contour>
      <point x="290" y="751" type="line"/>
      <point x="198" y="0" type="line"/>
      <point x="77" y="0" type="line"/>
      <point x="170" y="758" type="line"/>
    </contour>
  </outline>
</glyph>
<glyph name="l" format="1">
  <advance width="271"/>
  <unicode hex="006C"/>
  <outline>
    <contour>
      <point x="292" y="751" type="line" name="hr00"/>
      <point x="200" y="0" type="line"/>
      <point x="79" y="0" type="line"/>
      <point x="172" y="758" type="line"/>
    </contour>
  </outline>
</glyph>
<glyph name="m" format="1">
  <advance width="919"/>
  <unicode hex="006D"/>
  <outline>
    <contour>
      <point x="719" y="0" type="line"/>
      <point x="764" y="370" type="line" smooth="yes"/>
      <point x="769" y="408"/>
      <point x="756" y="436"/>
      <point x="717" y="436" type="curve" smooth="yes"/>
      <point x="697" y="436"/>
      <point x="673" y="426"/>
      <point x="652" y="429" type="curve" smooth="yes"/>
      <point x="625" y="429"/>
      <point x="606" y="454"/>
      <point x="594" y="482" type="curve"/>
      <point x="670" y="517"/>
      <point x="718" y="529"/>
      <point x="761" y="529" type="curve" smooth="yes"/>
      <point x="834" y="529"/>
      <point x="900" y="483"/>
      <point x="886" y="368" type="curve" smooth="yes"/>
      <point x="841" y="0" type="line"/>
    </contour>
    <contour>
      <point x="399" y="0" type="line"/>
      <point x="444" y="370" type="line" smooth="yes"/>
      <point x="449" y="408"/>
      <point x="439" y="436"/>
      <point x="403" y="436" type="curve" smooth="yes"/>
      <point x="382" y="436"/>
      <point x="362" y="427"/>
      <point x="341" y="430" type="curve" smooth="yes"/>
      <point x="315" y="430"/>
      <point x="298" y="455"/>
      <point x="285" y="483" type="curve"/>
      <point x="361" y="517"/>
      <point x="405" y="529"/>
      <point x="448" y="529" type="curve" smooth="yes"/>
      <point x="521" y="529"/>
      <point x="581" y="483"/>
      <point x="567" y="368" type="curve" smooth="yes"/>
      <point x="522" y="0" type="line"/>
    </contour>
    <contour>
      <point x="126" y="512" type="curve"/>
      <point x="226" y="517" type="line" name="hr01"/>
      <point x="254" y="481"/>
      <point x="256" y="447"/>
      <point x="251" y="407" type="curve" smooth="yes"/>
      <point x="202" y="0" type="line"/>
      <point x="79" y="0" type="line"/>
      <point x="126" y="386" type="line" smooth="yes"/>
      <point x="130" y="423"/>
      <point x="131" y="465"/>
    </contour>
  </outline>
</glyph>
<glyph name="n" format="1">
  <advance width="585"/>
  <unicode hex="006E"/>
  <outline>
    <contour>
      <point x="390" y="0" type="line"/>
      <point x="435" y="370" type="line" smooth="yes"/>
      <point x="440" y="408"/>
      <point x="428" y="436"/>
      <point x="391" y="436" type="curve" smooth="yes"/>
      <point x="370" y="436"/>
      <point x="349" y="426"/>
      <point x="327" y="429" type="curve" smooth="yes"/>
      <point x="301" y="429"/>
      <point x="286" y="455"/>
      <point x="272" y="480" type="curve"/>
      <point x="344" y="518"/>
      <point x="392" y="529"/>
      <point x="434" y="529" type="curve" smooth="yes"/>
      <point x="507" y="529"/>
      <point x="572" y="483"/>
      <point x="558" y="368" type="curve" smooth="yes"/>
      <point x="513" y="0" type="line"/>
    </contour>
    <contour>
      <point x="111" y="512" type="curve"/>
      <point x="212" y="517" type="line" name="hr01"/>
      <point x="240" y="481"/>
      <point x="242" y="447"/>
      <point x="237" y="407" type="curve" smooth="yes"/>
      <point x="188" y="0" type="line"/>
      <point x="65" y="0" type="line"/>
      <point x="112" y="386" type="line" smooth="yes"/>
      <point x="116" y="423"/>
      <point x="116" y="465"/>
    </contour>
  </outline>
</glyph>
<glyph name="o" format="1">
  <advance width="593"/>
  <unicode hex="006F"/>
  <outline>
    <contour>
      <point x="197" y="259" type="curve" smooth="yes" name="hr00"/>
      <point x="184" y="153"/>
      <point x="223" y="79"/>
      <point x="303" y="79" type="curve" smooth="yes"/>
      <point x="388" y="79"/>
      <point x="441" y="160"/>
      <point x="453" y="259" type="curve" smooth="yes"/>
      <point x="467" y="367"/>
      <point x="424" y="438"/>
      <point x="347" y="438" type="curve" smooth="yes"/>
      <point x="270" y="438"/>
      <point x="211" y="367"/>
    </contour>
    <contour>
      <point x="67" y="259" type="curve" smooth="yes"/>
      <point x="90" y="445"/>
      <point x="242" y="529"/>
      <point x="358" y="529" type="curve" smooth="yes"/>
      <point x="515" y="529"/>
      <point x="602" y="415"/>
      <point x="583" y="259" type="curve" smooth="yes"/>
      <point x="562" y="87"/>
      <point x="423" y="-12"/>
      <point x="292" y="-12" type="curve" smooth="yes"/>
      <point x="154" y="-12"/>
      <point x="46" y="85"/>
    </contour>
  </outline>
</glyph>
<glyph name="p" format="1">
  <advance width="612"/>
  <unicode hex="0070"/>
  <outline>
    <contour>
      <point x="600" y="255" type="curve" smooth="yes"/>
      <point x="582" y="107"/>
      <point x="460" y="-8"/>
      <point x="343" y="-8" type="curve" smooth="yes"/>
      <point x="311" y="-8"/>
      <point x="281" y="-4"/>
      <point x="237" y="10" type="curve"/>
      <point x="260" y="51"/>
      <point x="288" y="79"/>
      <point x="326" y="80" type="curve" smooth="yes"/>
      <point x="405" y="83"/>
      <point x="456" y="146"/>
      <point x="470" y="255" type="curve" smooth="yes"/>
      <point x="482" y="357"/>
      <point x="450" y="438"/>
      <point x="375" y="438" type="curve" smooth="yes"/>
      <point x="334" y="438"/>
      <point x="291" y="415"/>
      <point x="244" y="366" type="curve"/>
      <point x="170" y="-241" type="line"/>
      <point x="50" y="-234" type="line"/>
      <point x="119" y="330" type="line" smooth="yes"/>
      <point x="127" y="399"/>
      <point x="132" y="453"/>
      <point x="126" y="512" type="curve"/>
      <point x="219" y="517" type="line" name="hr01"/>
      <point x="235" y="505"/>
      <point x="242" y="488"/>
      <point x="249" y="465" type="curve"/>
      <point x="248" y="446" type="line"/>
      <point x="264" y="466" type="line"/>
      <point x="318" y="513"/>
      <point x="367" y="529"/>
      <point x="408" y="529" type="curve" smooth="yes" name="hr02"/>
      <point x="550" y="529"/>
      <point x="619" y="411"/>
    </contour>
  </outline>
</glyph>
<glyph name="r" format="1">
  <advance width="391"/>
  <unicode hex="0072"/>
  <outline>
    <contour>
      <point x="120" y="512" type="curve"/>
      <point x="213" y="517" type="line"/>
      <point x="226" y="503"/>
      <point x="235" y="474"/>
      <point x="236" y="441" type="curve"/>
      <point x="234" y="419" type="line"/>
      <point x="247" y="441" type="line"/>
      <point x="279" y="493"/>
      <point x="332" y="526"/>
      <point x="380" y="526" type="curve" smooth="yes" name="hr01"/>
      <point x="398" y="526"/>
      <point x="417" y="522"/>
      <point x="438" y="515" type="curve"/>
      <point x="411" y="416" type="line"/>
      <point x="386" y="422"/>
      <point x="372" y="424"/>
      <point x="357" y="424" type="curve" smooth="yes"/>
      <point x="291" y="424"/>
      <point x="233" y="361"/>
      <point x="220" y="254" type="curve" smooth="yes"/>
      <point x="189" y="0" type="line"/>
      <point x="74" y="0" type="line"/>
      <point x="115" y="343" type="line" smooth="yes"/>
      <point x="122" y="397"/>
      <point x="127" y="454"/>
    </contour>
  </outline>
</glyph>
<glyph name="s" format="1">
  <advance width="428"/>
  <unicode hex="0073"/>
  <outline>
    <contour>
      <point x="35" y="32" type="curve" name="hr00"/>
      <point x="75" y="115" type="line"/>
      <point x="130" y="90"/>
      <point x="178" y="81"/>
      <point x="220" y="81" type="curve" smooth="yes"/>
      <point x="273" y="81"/>
      <point x="302" y="109"/>
      <point x="306" y="141" type="curve" smooth="yes"/>
      <point x="318" y="237"/>
      <point x="74" y="221"/>
      <point x="94" y="383" type="curve" smooth="yes"/>
      <point x="101" y="447"/>
      <point x="162" y="526"/>
      <point x="286" y="526" type="curve" smooth="yes"/>
      <point x="328" y="526"/>
      <point x="372" y="521"/>
      <point x="431" y="500" type="curve"/>
      <point x="392" y="419" type="line"/>
      <point x="346" y="433"/>
      <point x="316" y="438"/>
      <point x="284" y="438" type="curve" smooth="yes"/>
      <point x="243" y="438"/>
      <point x="214" y="419"/>
      <point x="210" y="386" type="curve" smooth="yes"/>
      <point x="198" y="293"/>
      <point x="442" y="304"/>
      <point x="422" y="142" type="curve" smooth="yes"/>
      <point x="411" y="53"/>
      <point x="319" y="-10"/>
      <point x="228" y="-10" type="curve" smooth="yes"/>
      <point x="176" y="-10"/>
      <point x="116" y="-5"/>
    </contour>
  </outline>
</glyph>
<glyph name="t" format="1">
  <advance width="444"/>
  <unicode hex="0074"/>
  <outline>
    <contour>
      <point x="449" y="429" type="line" name="hr00"/>
      <point x="399" y="429" type="line" smooth="yes"/>
      <point x="346" y="429"/>
      <point x="324" y="475"/>
      <point x="316" y="517" type="curve"/>
      <point x="460" y="517" type="line"/>
    </contour>
    <contour>
      <point x="126" y="195" type="curve"/>
      <point x="155" y="429" type="line"/>
      <point x="69" y="429" type="line"/>
      <point x="77" y="495" type="line"/>
      <point x="166" y="517" type="line"/>
      <point x="181" y="643" type="line"/>
      <point x="302" y="681" type="line"/>
      <point x="242" y="191" type="line" smooth="yes"/>
      <point x="234" y="123"/>
      <point x="259" y="78"/>
      <point x="307" y="78" type="curve" smooth="yes"/>
      <point x="328" y="78"/>
      <point x="352" y="82"/>
      <point x="388" y="93" type="curve"/>
      <point x="404" y="13" type="line"/>
      <point x="352" y="-4"/>
      <point x="320" y="-12"/>
      <point x="287" y="-12" type="curve" smooth="yes"/>
      <point x="167" y="-12"/>
      <point x="110" y="63"/>
    </contour>
  </outline>
</glyph>
<glyph name="u" format="1">
  <advance width="603"/>
  <unicode hex="0075"/>
  <outline>
    <contour>
      <point x="253" y="517" type="line"/>
      <point x="208" y="147" type="line" smooth="yes"/>
      <point x="203" y="109"/>
      <point x="214" y="81"/>
      <point x="251" y="81" type="curve" smooth="yes"/>
      <point x="267" y="81"/>
      <point x="285" y="89"/>
      <point x="308" y="89" type="curve" smooth="yes"/>
      <point x="337" y="90"/>
      <point x="354" y="64"/>
      <point x="370" y="37" type="curve"/>
      <point x="297" y="-1"/>
      <point x="249" y="-12"/>
      <point x="207" y="-12" type="curve" smooth="yes"/>
      <point x="134" y="-12"/>
      <point x="72" y="34"/>
      <point x="86" y="149" type="curve" smooth="yes"/>
      <point x="131" y="517" type="line"/>
    </contour>
    <contour>
      <point x="530" y="5" type="curve"/>
      <point x="430" y="0" type="line" name="hr01"/>
      <point x="403" y="36"/>
      <point x="399" y="70"/>
      <point x="404" y="110" type="curve" smooth="yes"/>
      <point x="454" y="517" type="line"/>
      <point x="576" y="517" type="line"/>
      <point x="529" y="131" type="line" smooth="yes"/>
      <point x="524" y="94"/>
      <point x="524" y="52"/>
    </contour>
  </outline>
</glyph>
<glyph name="v" format="1">
  <advance width="535"/>
  <unicode hex="0076"/>
  <outline>
    <contour>
      <point x="334" y="0" type="line" name="hr00"/>
      <point x="204" y="0" type="line"/>
      <point x="73" y="517" type="line"/>
      <point x="202" y="517" type="line"/>
      <point x="284" y="109" type="line"/>
      <point x="294" y="137" type="line"/>
      <point x="464" y="517" type="line"/>
      <point x="588" y="510" type="line"/>
    </contour>
  </outline>
</glyph>
<glyph name="w" format="1">
  <advance width="867"/>
  <unicode hex="0077"/>
  <outline>
    <contour>
      <point x="673" y="0" type="line" name="hr00"/>
      <point x="543" y="0" type="line"/>
      <point x="423" y="517" type="line"/>
      <point x="553" y="517" type="line"/>
      <point x="623" y="109" type="line"/>
      <point x="792" y="517" type="line"/>
      <point x="914" y="510" type="line"/>
    </contour>
    <contour>
      <point x="406" y="126" type="curve"/>
      <point x="338" y="0" type="line"/>
      <point x="211" y="0" type="line"/>
      <point x="92" y="517" type="line"/>
      <point x="221" y="517" type="line"/>
      <point x="291" y="109" type="line"/>
      <point x="301" y="137" type="line"/>
      <point x="408" y="351" type="line"/>
      <point x="434" y="303"/>
      <point x="445" y="203"/>
    </contour>
  </outline>
</glyph>
<glyph name="x" format="1">
  <advance width="508"/>
  <unicode hex="0078"/>
  <outline>
    <contour>
      <point x="199" y="82" type="curve" name="hr00"/>
      <point x="140" y="0" type="line"/>
      <point x="10" y="0" type="line"/>
      <point x="191" y="222" type="line"/>
      <point x="213" y="190"/>
      <point x="233" y="133"/>
    </contour>
    <contour>
      <point x="492" y="0" type="line"/>
      <point x="355" y="0" type="line"/>
      <point x="313" y="85"/>
      <point x="268" y="169"/>
      <point x="223" y="253" type="curve" smooth="yes"/>
      <point x="82" y="517" type="line"/>
      <point x="220" y="517" type="line"/>
      <point x="290" y="359" type="line"/>
      <point x="293" y="338" type="line"/>
      <point x="304" y="359" type="line"/>
      <point x="413" y="517" type="line"/>
      <point x="539" y="510" type="line"/>
      <point x="342" y="259" type="line"/>
    </contour>
  </outline>
</glyph>
<glyph name="y" format="1">
  <advance width="573"/>
  <unicode hex="0079"/>
  <outline>
    <contour>
      <point x="105" y="-157" type="curve" smooth="yes" name="hr00"/>
      <point x="177" y="-157"/>
      <point x="210" y="-82"/>
      <point x="265" y="37" type="curve"/>
      <point x="475" y="517" type="line"/>
      <point x="597" y="510" type="line"/>
      <point x="356" y="11" type="line"/>
      <point x="274" y="-149"/>
      <point x="226" y="-247"/>
      <point x="94" y="-247" type="curve" smooth="yes"/>
      <point x="67" y="-247"/>
      <point x="36" y="-241"/>
      <point x="7" y="-230" type="curve"/>
      <point x="46" y="-149" type="line"/>
      <point x="67" y="-155"/>
      <point x="86" y="-157"/>
    </contour>
    <contour>
      <point x="209" y="517" type="line"/>
      <point x="228" y="413"/>
      <point x="258" y="299"/>
      <point x="262" y="198" type="curve"/>
      <point x="262" y="128"/>
      <point x="235" y="51"/>
      <point x="203" y="12" type="curve"/>
      <point x="78" y="517" type="line"/>
    </contour>
  </outline>
</glyph>
<glyph name="z" format="1">
  <advance width="464"/>
  <unicode hex="007A"/>
  <outline>
    <contour>
      <point x="114" y="432" type="line" name="hr00"/>
      <point x="124" y="517" type="line"/>
      <point x="490" y="517" type="line"/>
      <point x="484" y="466" type="line"/>
      <point x="215" y="120" type="line" smooth="yes"/>
      <point x="210" y="113"/>
      <point x="206" y="107"/>
      <point x="201" y="101" type="curve"/>
      <point x="183" y="84" type="line"/>
      <point x="206" y="87" type="line"/>
      <point x="441" y="87" type="line"/>
      <point x="431" y="0" type="line"/>
      <point x="32" y="0" type="line"/>
      <point x="38" y="51" type="line"/>
      <point x="324" y="418" type="line"/>
      <point x="341" y="435" type="line"/>
      <point x="320" y="432" type="line"/>
    </contour>
  </outline>
</glyph>
<glyph name="braceleft" format="1">
  <advance width="403"/>
  <unicode hex="007B"/>
  <outline>
    <contour>
      <point x="190" y="189" type="curve" smooth="yes" name="hr00"/>
      <point x="192" y="236"/>
      <point x="153" y="263"/>
      <point x="103" y="272" type="curve"/>
      <point x="111" y="338" type="line"/>
      <point x="163" y="347"/>
      <point x="210" y="374"/>
      <point x="220" y="421" type="curve" smooth="yes"/>
      <point x="253" y="587"/>
      <point x="309" y="685"/>
      <point x="441" y="767" type="curve"/>
      <point x="489" y="708" type="line"/>
      <point x="391" y="632"/>
      <point x="352" y="561"/>
      <point x="328" y="439" type="curve" smooth="yes"/>
      <point x="318" y="384"/>
      <point x="283" y="342"/>
      <point x="238" y="314" type="curve"/>
      <point x="213" y="303" type="line"/>
      <point x="235" y="292" type="line"/>
      <point x="267" y="270"/>
      <point x="288" y="239"/>
      <point x="292" y="200" type="curve" smooth="yes"/>
      <point x="294" y="184"/>
      <point x="296" y="166"/>
      <point x="295" y="148" type="curve" smooth="yes"/>
      <point x="290" y="27"/>
      <point x="311" y="-43"/>
      <point x="388" y="-116" type="curve"/>
      <point x="325" y="-176" type="line"/>
      <point x="208" y="-90"/>
      <point x="179" y="10"/>
    </contour>
  </outline>
</glyph>
<glyph name="braceright" format="1">
  <advance width="419"/>
  <unicode hex="007D"/>
  <outline>
    <contour>
      <point x="337" y="189" type="curve" smooth="yes" name="hr00"/>
      <point x="305" y="10"/>
      <point x="249" y="-90"/>
      <point x="112" y="-176" type="curve"/>
      <point x="63" y="-116" type="line"/>
      <point x="158" y="-43"/>
      <point x="198" y="27"/>
      <point x="222" y="148" type="curve" smooth="yes"/>
      <point x="236" y="212"/>
      <point x="260" y="258"/>
      <point x="316" y="292" type="curve"/>
      <point x="343" y="303" type="line"/>
      <point x="318" y="314" type="line"/>
      <point x="279" y="342"/>
      <point x="257" y="384"/>
      <point x="259" y="439" type="curve" smooth="yes"/>
      <point x="265" y="561"/>
      <point x="245" y="632"/>
      <point x="164" y="708" type="curve"/>
      <point x="228" y="767" type="line"/>
      <point x="340" y="685"/>
      <point x="372" y="587"/>
      <point x="363" y="421" type="curve"/>
      <point x="361" y="374"/>
      <point x="402" y="347"/>
      <point x="452" y="338" type="curve"/>
      <point x="444" y="272" type="line"/>
      <point x="392" y="263"/>
      <point x="346" y="236"/>
    </contour>
  </outline>
</glyph>
<glyph name="asciitilde" format="1">
  <advance width="614"/>
  <unicode hex="007E"/>
  <outline>
    <contour>
      <point x="194" y="228" type="curve"/>
      <point x="91" y="236" type="line"/>
      <point x="107" y="337"/>
      <point x="184" y="390"/>
      <point x="265" y="391" type="curve" smooth="yes"/>
      <point x="357" y="391"/>
      <point x="390" y="314"/>
      <point x="454" y="314" type="curve" smooth="yes" name="hr01"/>
      <point x="483" y="314"/>
      <point x="504" y="343"/>
      <point x="514" y="385" type="curve"/>
      <point x="615" y="377" type="line"/>
      <point x="595" y="263"/>
      <point x="516" y="222"/>
      <point x="449" y="222" type="curve" smooth="yes"/>
      <point x="347" y="221"/>
      <point x="322" y="298"/>
      <point x="260" y="298" type="curve" smooth="yes" name="hr02"/>
      <point x="234" y="298"/>
      <point x="205" y="277"/>
    </contour>
  </outline>
</glyph>
<glyph name="exclamdown" format="1">
  <advance width="351"/>
  <unicode hex="00A1"/>
  <outline>
    <contour>
      <point x="97" y="458" type="curve" smooth="yes" name="hr00"/>
      <point x="102" y="500"/>
      <point x="138" y="531"/>
      <point x="180" y="531" type="curve" smooth="yes"/>
      <point x="222" y="531"/>
      <point x="250" y="500"/>
      <point x="245" y="458" type="curve" smooth="yes"/>
      <point x="240" y="416"/>
      <point x="204" y="383"/>
      <point x="162" y="383" type="curve" smooth="yes"/>
      <point x="120" y="383"/>
      <point x="92" y="416"/>
    </contour>
    <contour>
      <point x="152" y="-210" type="line"/>
      <point x="30" y="-210" type="line"/>
      <point x="109" y="304" type="line"/>
      <point x="197" y="304" type="line"/>
    </contour>
  </outline>
</glyph>
<glyph name="cent" format="1">
  <advance width="427"/>
  <unicode hex="00A2"/>
  <outline>
    <contour>
      <point x="440" y="119" type="line" name="hr00"/>
      <point x="400" y="100"/>
      <point x="363" y="90"/>
      <point x="332" y="86" type="curve"/>
      <point x="320" y="-14" type="line"/>
      <point x="232" y="-14" type="line"/>
      <point x="244" y="89" type="line"/>
      <point x="134" y="109"/>
      <point x="57" y="196"/>
      <point x="76" y="355" type="curve" smooth="yes"/>
      <point x="95" y="507"/>
      <point x="196" y="596"/>
      <point x="309" y="618" type="curve"/>
      <point x="321" y="716" type="line"/>
      <point x="409" y="716" type="line"/>
      <point x="398" y="623" type="line"/>
      <point x="427" y="620"/>
      <point x="458" y="614"/>
      <point x="486" y="603" type="curve"/>
      <point x="445" y="520" type="line"/>
      <point x="412" y="529"/>
      <point x="381" y="533"/>
      <point x="356" y="533" type="curve" smooth="yes"/>
      <point x="283" y="533"/>
      <point x="220" y="470"/>
      <point x="206" y="355" type="curve" smooth="yes"/>
      <point x="192" y="238"/>
      <point x="238" y="175"/>
      <point x="312" y="175" type="curve" smooth="yes"/>
      <point x="340" y="175"/>
      <point x="373" y="182"/>
      <point x="419" y="201" type="curve"/>
    </contour>
  </outline>
</glyph>
<glyph name="sterling" format="1">
  <advance width="513"/>
  <unicode hex="00A3"/>
  <outline>
    <contour>
      <point x="497" y="311" type="line" name="hr00"/>
      <point x="428" y="311" type="line" smooth="yes"/>
      <point x="373" y="311"/>
      <point x="356" y="355"/>
      <point x="347" y="396" type="curve"/>
      <point x="507" y="396" type="line"/>
    </contour>
    <contour>
      <point x="294" y="197" type="curve"/>
      <point x="282" y="164"/>
      <point x="267" y="143"/>
      <point x="244" y="117" type="curve"/>
      <point x="223" y="98" type="line"/>
      <point x="247" y="100" type="line"/>
      <point x="495" y="100" type="line"/>
      <point x="483" y="0" type="line"/>
      <point x="42" y="0" type="line"/>
      <point x="50" y="70" type="line"/>
      <point x="127" y="106"/>
      <point x="185" y="166"/>
      <point x="194" y="242" type="curve" smooth="yes"/>
      <point x="197" y="264"/>
      <point x="198" y="285"/>
      <point x="199" y="311" type="curve"/>
      <point x="101" y="311" type="line"/>
      <point x="111" y="396" type="line"/>
      <point x="195" y="396" type="line"/>
      <point x="194" y="427"/>
      <point x="194" y="470"/>
      <point x="199" y="512" type="curve" smooth="yes"/>
      <point x="216" y="644"/>
      <point x="319" y="712"/>
      <point x="447" y="712" type="curve" smooth="yes"/>
      <point x="494" y="712"/>
      <point x="542" y="703"/>
      <point x="598" y="675" type="curve"/>
      <point x="557" y="591" type="line"/>
      <point x="510" y="613"/>
      <point x="464" y="620"/>
      <point x="436" y="620" type="curve" smooth="yes"/>
      <point x="367" y="620"/>
      <point x="324" y="580"/>
      <point x="315" y="511" type="curve" smooth="yes"/>
      <point x="300" y="390"/>
      <point x="326" y="296"/>
    </contour>
  </outline>
</glyph>
<glyph name="currency" format="1">
  <advance width="513"/>
  <unicode hex="00A4"/>
  <outline>
    <contour>
      <point x="313" y="476" type="curve" smooth="yes" name="hr00"/>
      <point x="251" y="476"/>
      <point x="197" y="418"/>
      <point x="187" y="340" type="curve" smooth="yes"/>
      <point x="177" y="255"/>
      <point x="227" y="205"/>
      <point x="280" y="205" type="curve" smooth="yes"/>
      <point x="336" y="205"/>
      <point x="395" y="260"/>
      <point x="405" y="342" type="curve" smooth="yes"/>
      <point x="414" y="411"/>
      <point x="378" y="476"/>
    </contour>
    <contour>
      <point x="322" y="544" type="curve" smooth="yes"/>
      <point x="369" y="544"/>
      <point x="407" y="528"/>
      <point x="430" y="507" type="curve"/>
      <point x="515" y="578" type="line"/>
      <point x="555" y="529" type="line"/>
      <point x="468" y="457" type="line"/>
      <point x="482" y="433"/>
      <point x="492" y="391"/>
      <point x="486" y="343" type="curve" smooth="yes"/>
      <point x="479" y="292"/>
      <point x="459" y="248"/>
      <point x="439" y="224" type="curve"/>
      <point x="508" y="151" type="line"/>
      <point x="455" y="103" type="line"/>
      <point x="389" y="175" type="line"/>
      <point x="360" y="152"/>
      <point x="316" y="137"/>
      <point x="271" y="137" type="curve" smooth="yes"/>
      <point x="228" y="137"/>
      <point x="190" y="152"/>
      <point x="167" y="173" type="curve"/>
      <point x="85" y="102" type="line"/>
      <point x="42" y="152" type="line"/>
      <point x="127" y="223" type="line"/>
      <point x="112" y="247"/>
      <point x="100" y="289"/>
      <point x="106" y="340" type="curve" smooth="yes"/>
      <point x="113" y="391"/>
      <point x="135" y="432"/>
      <point x="157" y="457" type="curve"/>
      <point x="88" y="528" type="line"/>
      <point x="142" y="578" type="line"/>
      <point x="208" y="507" type="line"/>
      <point x="237" y="529"/>
      <point x="278" y="544"/>
    </contour>
  </outline>
</glyph>
<glyph name="yen" format="1">
  <advance width="660"/>
  <unicode hex="00A5"/>
  <outline>
    <contour>
      <point x="450" y="536" type="curve" name="hr00"/>
      <point x="580" y="727" type="line"/>
      <point x="715" y="727" type="line"/>
      <point x="460" y="377" type="line"/>
      <point x="438" y="409"/>
      <point x="411" y="479"/>
    </contour>
    <contour>
      <point x="142" y="256" type="line"/>
      <point x="149" y="315" type="line"/>
      <point x="301" y="315" type="line"/>
      <point x="301" y="316"/>
      <point x="301" y="316"/>
      <point x="301" y="317" type="curve"/>
      <point x="102" y="727" type="line"/>
      <point x="240" y="727" type="line"/>
      <point x="425" y="338" type="line"/>
      <point x="422" y="315" type="line"/>
      <point x="574" y="315" type="line"/>
      <point x="567" y="256" type="line"/>
      <point x="415" y="256" type="line"/>
      <point x="407" y="191" type="line"/>
      <point x="559" y="191" type="line"/>
      <point x="552" y="132" type="line"/>
      <point x="400" y="132" type="line"/>
      <point x="384" y="0" type="line"/>
      <point x="263" y="0" type="line"/>
      <point x="279" y="132" type="line"/>
      <point x="127" y="132" type="line"/>
      <point x="134" y="191" type="line"/>
      <point x="286" y="191" type="line"/>
      <point x="294" y="256" type="line"/>
    </contour>
  </outline>
</glyph>
<glyph name="brokenbar" format="1">
  <advance width="254"/>
  <unicode hex="00A6"/>
  <outline>
    <contour>
      <point x="149" y="-293" type="line" name="hr00"/>
      <point x="41" y="-293" type="line"/>
      <point x="94" y="141" type="line"/>
      <point x="202" y="141" type="line"/>
    </contour>
    <contour>
      <point x="232" y="387" type="line"/>
      <point x="124" y="387" type="line"/>
      <point x="176" y="811" type="line"/>
      <point x="284" y="811" type="line"/>
    </contour>
  </outline>
</glyph>
<glyph name="section" format="1">
  <advance width="500"/>
  <unicode hex="00A7"/>
  <outline>
    <contour>
      <point x="402" y="330" type="curve" smooth="yes" name="hr00"/>
      <point x="408" y="377"/>
      <point x="335" y="397"/>
      <point x="264" y="427" type="curve"/>
      <point x="222" y="407"/>
      <point x="200" y="385"/>
      <point x="196" y="355" type="curve" smooth="yes"/>
      <point x="190" y="304"/>
      <point x="266" y="283"/>
      <point x="340" y="251" type="curve"/>
      <point x="379" y="275"/>
      <point x="399" y="302"/>
    </contour>
    <contour>
      <point x="35" y="-9" type="curve"/>
      <point x="77" y="68" type="line"/>
      <point x="134" y="44"/>
      <point x="195" y="33"/>
      <point x="244" y="33" type="curve" smooth="yes"/>
      <point x="310" y="33"/>
      <point x="354" y="54"/>
      <point x="359" y="95" type="curve" smooth="yes"/>
      <point x="372" y="203"/>
      <point x="70" y="181"/>
      <point x="91" y="352" type="curve" smooth="yes"/>
      <point x="95" y="390"/>
      <point x="127" y="428"/>
      <point x="173" y="455" type="curve"/>
      <point x="198" y="465" type="line"/>
      <point x="179" y="474" type="line"/>
      <point x="144" y="500"/>
      <point x="123" y="535"/>
      <point x="129" y="585" type="curve" smooth="yes"/>
      <point x="138" y="657"/>
      <point x="223" y="720"/>
      <point x="338" y="720" type="curve" smooth="yes"/>
      <point x="383" y="720"/>
      <point x="436" y="714"/>
      <point x="501" y="694" type="curve"/>
      <point x="459" y="617" type="line"/>
      <point x="410" y="631"/>
      <point x="373" y="637"/>
      <point x="340" y="637" type="curve" smooth="yes"/>
      <point x="280" y="637"/>
      <point x="242" y="619"/>
      <point x="237" y="586" type="curve" smooth="yes"/>
      <point x="224" y="478"/>
      <point x="527" y="498"/>
      <point x="505" y="325" type="curve" smooth="yes"/>
      <point x="500" y="282"/>
      <point x="470" y="246"/>
      <point x="429" y="222" type="curve"/>
      <point x="405" y="212" type="line"/>
      <point x="423" y="202" type="line"/>
      <point x="454" y="176"/>
      <point x="474" y="142"/>
      <point x="468" y="93" type="curve" smooth="yes"/>
      <point x="457" y="7"/>
      <point x="358" y="-51"/>
      <point x="247" y="-51" type="curve" smooth="yes"/>
      <point x="195" y="-51"/>
      <point x="112" y="-45"/>
    </contour>
  </outline>
</glyph>
<glyph name="dieresis" format="1">
  <advance width="482"/>
  <unicode hex="00A8"/>
  <outline>
    <contour>
      <point x="358" y="670" type="curve" smooth="yes" name="hr00"/>
      <point x="362" y="703"/>
      <point x="392" y="729"/>
      <point x="424" y="729" type="curve" smooth="yes"/>
      <point x="456" y="729"/>
      <point x="480" y="703"/>
      <point x="476" y="670" type="curve" smooth="yes"/>
      <point x="472" y="637"/>
      <point x="442" y="611"/>
      <point x="410" y="611" type="curve" smooth="yes"/>
      <point x="378" y="611"/>
      <point x="354" y="637"/>
    </contour>
    <contour>
      <point x="163" y="670" type="curve" smooth="yes"/>
      <point x="167" y="703"/>
      <point x="197" y="729"/>
      <point x="229" y="729" type="curve" smooth="yes"/>
      <point x="262" y="729"/>
      <point x="286" y="703"/>
      <point x="282" y="670" type="curve" smooth="yes"/>
      <point x="278" y="637"/>
      <point x="248" y="611"/>
      <point x="215" y="611" type="curve" smooth="yes"/>
      <point x="183" y="611"/>
      <point x="159" y="637"/>
    </contour>
  </outline>
</glyph>
<glyph name="copyright" format="1">
  <advance width="720"/>
  <unicode hex="00A9"/>
  <outline>
    <contour>
      <point x="398" y="176" type="curve" smooth="yes" name="hr00"/>
      <point x="304" y="176"/>
      <point x="237" y="240"/>
      <point x="251" y="357" type="curve" smooth="yes"/>
      <point x="266" y="473"/>
      <point x="350" y="537"/>
      <point x="442" y="537" type="curve" smooth="yes"/>
      <point x="467" y="537"/>
      <point x="497" y="532"/>
      <point x="524" y="523" type="curve"/>
      <point x="497" y="465" type="line"/>
      <point x="474" y="473"/>
      <point x="455" y="476"/>
      <point x="435" y="476" type="curve" smooth="yes"/>
      <point x="385" y="476"/>
      <point x="340" y="429"/>
      <point x="331" y="357" type="curve" smooth="yes"/>
      <point x="322" y="283"/>
      <point x="354" y="236"/>
      <point x="405" y="236" type="curve" smooth="yes"/>
      <point x="424" y="236"/>
      <point x="448" y="240"/>
      <point x="481" y="254" type="curve"/>
      <point x="493" y="199" type="line"/>
      <point x="454" y="181"/>
      <point x="419" y="176"/>
    </contour>
    <contour>
      <point x="432" y="617" type="curve" smooth="yes"/>
      <point x="290" y="616"/>
      <point x="172" y="513"/>
      <point x="153" y="354" type="curve" smooth="yes"/>
      <point x="134" y="197"/>
      <point x="226" y="96"/>
      <point x="368" y="95" type="curve"/>
      <point x="507" y="94"/>
      <point x="625" y="197"/>
      <point x="644" y="357" type="curve" smooth="yes"/>
      <point x="663" y="513"/>
      <point x="571" y="617"/>
    </contour>
    <contour>
      <point x="441" y="686" type="curve" smooth="yes"/>
      <point x="636" y="686"/>
      <point x="751" y="544"/>
      <point x="728" y="357" type="curve" smooth="yes"/>
      <point x="706" y="176"/>
      <point x="552" y="25"/>
      <point x="360" y="25" type="curve" smooth="yes"/>
      <point x="163" y="25"/>
      <point x="46" y="167"/>
      <point x="69" y="357" type="curve" smooth="yes"/>
      <point x="91" y="535"/>
      <point x="247" y="686"/>
    </contour>
  </outline>
</glyph>
<glyph name="ordfeminine" format="1">
  <advance width="527"/>
  <unicode hex="00AA"/>
  <outline>
    <contour>
      <point x="404" y="522" type="curve" name="hr00"/>
      <point x="391" y="422" type="line" smooth="yes"/>
      <point x="384" y="366"/>
      <point x="385" y="327"/>
      <point x="388" y="302" type="curve"/>
      <point x="326" y="302" type="line"/>
      <point x="313" y="312"/>
      <point x="304" y="331"/>
      <point x="306" y="350" type="curve"/>
      <point x="297" y="338" type="line"/>
      <point x="264" y="308"/>
      <point x="230" y="295"/>
      <point x="192" y="295" type="curve" smooth="yes"/>
      <point x="124" y="295"/>
      <point x="80" y="334"/>
      <point x="87" y="394" type="curve" smooth="yes"/>
      <point x="95" y="462"/>
      <point x="151" y="498"/>
      <point x="297" y="514" type="curve"/>
      <point x="292" y="497"/>
      <point x="276" y="458"/>
      <point x="239" y="452" type="curve"/>
      <point x="190" y="444"/>
      <point x="174" y="423"/>
      <point x="171" y="399" type="curve" smooth="yes"/>
      <point x="168" y="374"/>
      <point x="184" y="354"/>
      <point x="214" y="354" type="curve" smooth="yes"/>
      <point x="245" y="354"/>
      <point x="279" y="368"/>
      <point x="308" y="400" type="curve"/>
      <point x="323" y="527" type="line" smooth="yes"/>
      <point x="330" y="582"/>
      <point x="302" y="609"/>
      <point x="248" y="609" type="curve" smooth="yes"/>
      <point x="223" y="609"/>
      <point x="197" y="604"/>
      <point x="164" y="593" type="curve"/>
      <point x="153" y="647" type="line"/>
      <point x="200" y="667"/>
      <point x="238" y="671"/>
      <point x="269" y="671" type="curve" smooth="yes"/>
      <point x="368" y="671"/>
      <point x="415" y="616"/>
    </contour>
  </outline>
</glyph>
<glyph name="guillemotleft" format="1">
  <advance width="613"/>
  <unicode hex="00AB"/>
  <outline>
    <contour>
      <point x="554" y="47" type="line" name="hr00"/>
      <point x="353" y="258" type="line"/>
      <point x="606" y="470" type="line"/>
      <point x="650" y="420" type="line"/>
      <point x="498" y="258" type="line"/>
      <point x="610" y="96" type="line"/>
    </contour>
    <contour>
      <point x="289" y="47" type="line"/>
      <point x="88" y="258" type="line"/>
      <point x="341" y="470" type="line"/>
      <point x="385" y="420" type="line"/>
      <point x="233" y="258" type="line"/>
      <point x="345" y="96" type="line"/>
    </contour>
  </outline>
</glyph>
<glyph name="logicalnot" format="1">
  <advance width="583"/>
  <unicode hex="00AC"/>
  <outline>
    <contour>
      <point x="98" y="449" type="line" name="hr00"/>
      <point x="595" y="449" type="line"/>
      <point x="559" y="156" type="line"/>
      <point x="464" y="156" type="line"/>
      <point x="489" y="363" type="line"/>
      <point x="87" y="363" type="line"/>
    </contour>
  </outline>
</glyph>
<glyph name="registered" format="1">
  <advance width="720"/>
  <unicode hex="00AE"/>
  <outline>
    <contour>
      <point x="546" y="431" type="curve" smooth="yes" name="hr00"/>
      <point x="541" y="389"/>
      <point x="514" y="354"/>
      <point x="469" y="344" type="curve"/>
      <point x="520" y="314"/>
      <point x="505" y="257"/>
      <point x="528" y="189" type="curve"/>
      <point x="450" y="189" type="line"/>
      <point x="431" y="243"/>
      <point x="447" y="309"/>
      <point x="401" y="328" type="curve"/>
      <point x="390" y="328"/>
      <point x="387" y="328"/>
      <point x="376" y="328" type="curve"/>
      <point x="384" y="350"/>
      <point x="399" y="376"/>
      <point x="428" y="382" type="curve" smooth="yes"/>
      <point x="452" y="387"/>
      <point x="466" y="407"/>
      <point x="469" y="431" type="curve" smooth="yes"/>
      <point x="473" y="459"/>
      <point x="452" y="478"/>
      <point x="412" y="478" type="curve" smooth="yes"/>
      <point x="400" y="478"/>
      <point x="395" y="477"/>
      <point x="377" y="475" type="curve"/>
      <point x="342" y="189" type="line"/>
      <point x="268" y="189" type="line"/>
      <point x="309" y="522" type="line"/>
      <point x="348" y="531"/>
      <point x="384" y="536"/>
      <point x="419" y="536" type="curve" smooth="yes"/>
      <point x="501" y="536"/>
      <point x="554" y="496"/>
    </contour>
    <contour>
      <point x="432" y="617" type="curve" smooth="yes"/>
      <point x="290" y="616"/>
      <point x="172" y="513"/>
      <point x="153" y="354" type="curve" smooth="yes"/>
      <point x="134" y="197"/>
      <point x="226" y="96"/>
      <point x="368" y="95" type="curve"/>
      <point x="507" y="94"/>
      <point x="625" y="197"/>
      <point x="644" y="357" type="curve" smooth="yes"/>
      <point x="663" y="513"/>
      <point x="571" y="617"/>
    </contour>
    <contour>
      <point x="441" y="686" type="curve" smooth="yes"/>
      <point x="636" y="686"/>
      <point x="751" y="544"/>
      <point x="728" y="357" type="curve" smooth="yes"/>
      <point x="706" y="176"/>
      <point x="552" y="25"/>
      <point x="360" y="25" type="curve" smooth="yes"/>
      <point x="163" y="25"/>
      <point x="46" y="167"/>
      <point x="69" y="357" type="curve" smooth="yes"/>
      <point x="91" y="535"/>
      <point x="247" y="686"/>
    </contour>
  </outline>
</glyph>
<glyph name="degree" format="1">
  <advance width="337"/>
  <unicode hex="00B0"/>
  <outline>
    <contour>
      <point x="99" y="623" type="curve" smooth="yes" name="hr00"/>
      <point x="109" y="705"/>
      <point x="187" y="769"/>
      <point x="269" y="769" type="curve" smooth="yes"/>
      <point x="345" y="769"/>
      <point x="414" y="715"/>
      <point x="403" y="623" type="curve" smooth="yes"/>
      <point x="392" y="535"/>
      <point x="309" y="477"/>
      <point x="233" y="477" type="curve" smooth="yes"/>
      <point x="153" y="477"/>
      <point x="88" y="535"/>
    </contour>
    <contour>
      <point x="261" y="706" type="curve" smooth="yes"/>
      <point x="216" y="706"/>
      <point x="181" y="670"/>
      <point x="175" y="623" type="curve" smooth="yes"/>
      <point x="169" y="575"/>
      <point x="196" y="541"/>
      <point x="241" y="541" type="curve" smooth="yes"/>
      <point x="288" y="541"/>
      <point x="322" y="578"/>
      <point x="328" y="623" type="curve" smooth="yes"/>
      <point x="334" y="675"/>
      <point x="302" y="706"/>
    </contour>
  </outline>
</glyph>
<glyph name="plusminus" format="1">
  <advance width="568"/>
  <unicode hex="00B1"/>
  <outline>
    <contour>
      <point x="515" y="0" type="line" name="hr00"/>
      <point x="47" y="0" type="line"/>
      <point x="57" y="85" type="line"/>
      <point x="525" y="85" type="line"/>
    </contour>
    <contour>
      <point x="82" y="293" type="line"/>
      <point x="93" y="377" type="line"/>
      <point x="279" y="377" type="line"/>
      <point x="298" y="534" type="line"/>
      <point x="392" y="534" type="line"/>
      <point x="373" y="377" type="line"/>
      <point x="561" y="377" type="line"/>
      <point x="550" y="293" type="line"/>
      <point x="362" y="293" type="line"/>
      <point x="343" y="134" type="line"/>
      <point x="249" y="134" type="line"/>
      <point x="268" y="293" type="line"/>
    </contour>
  </outline>
</glyph>
<glyph name="twosuperior" format="1">
  <advance width="402"/>
  <unicode hex="00B2"/>
  <outline>
    <contour>
      <point x="410" y="628" type="curve" smooth="yes" name="hr00"/>
      <point x="398" y="532"/>
      <point x="286" y="465"/>
      <point x="225" y="386" type="curve"/>
      <point x="215" y="376" type="line"/>
      <point x="228" y="378" type="line"/>
      <point x="380" y="378" type="line"/>
      <point x="372" y="310" type="line"/>
      <point x="109" y="310" type="line"/>
      <point x="114" y="352" type="line"/>
      <point x="202" y="477"/>
      <point x="318" y="545"/>
      <point x="328" y="621" type="curve" smooth="yes"/>
      <point x="332" y="656"/>
      <point x="307" y="673"/>
      <point x="267" y="673" type="curve" smooth="yes"/>
      <point x="244" y="673"/>
      <point x="220" y="667"/>
      <point x="196" y="657" type="curve"/>
      <point x="177" y="711" type="line"/>
      <point x="215" y="730"/>
      <point x="255" y="736"/>
      <point x="287" y="736" type="curve" smooth="yes"/>
      <point x="363" y="736"/>
      <point x="418" y="697"/>
    </contour>
  </outline>
</glyph>
<glyph name="threesuperior" format="1">
  <advance width="381"/>
  <unicode hex="00B3"/>
  <outline>
    <contour>
      <point x="381" y="639" type="curve" smooth="yes"/>
      <point x="376" y="597"/>
      <point x="340" y="560"/>
      <point x="292" y="539" type="curve"/>
      <point x="336" y="528"/>
      <point x="377" y="491"/>
      <point x="369" y="431" type="curve" smooth="yes"/>
      <point x="360" y="355"/>
      <point x="286" y="301"/>
      <point x="194" y="301" type="curve" smooth="yes"/>
      <point x="151" y="301"/>
      <point x="113" y="317"/>
      <point x="95" y="329" type="curve"/>
      <point x="122" y="385" type="line"/>
      <point x="145" y="375"/>
      <point x="170" y="365"/>
      <point x="201" y="365" type="curve" smooth="yes"/>
      <point x="250" y="365"/>
      <point x="283" y="397"/>
      <point x="288" y="433" type="curve" smooth="yes"/>
      <point x="293" y="478"/>
      <point x="261" y="501"/>
      <point x="193" y="501" type="curve"/>
      <point x="192" y="552" type="line"/>
      <point x="226" y="565" type="line" smooth="yes"/>
      <point x="256" y="577"/>
      <point x="282" y="592"/>
      <point x="291" y="614" type="curve" smooth="yes"/>
      <point x="295" y="623"/>
      <point x="297" y="632"/>
      <point x="296" y="641" type="curve" smooth="yes"/>
      <point x="295" y="656"/>
      <point x="279" y="671"/>
      <point x="252" y="671" type="curve" smooth="yes" name="hr01"/>
      <point x="229" y="671"/>
      <point x="203" y="665"/>
      <point x="175" y="656" type="curve"/>
      <point x="158" y="710" type="line"/>
      <point x="198" y="729"/>
      <point x="233" y="735"/>
      <point x="266" y="735" type="curve" smooth="yes"/>
      <point x="339" y="735"/>
      <point x="389" y="701"/>
    </contour>
  </outline>
</glyph>
<glyph name="acute" format="1">
  <advance width="322"/>
  <unicode hex="00B4"/>
  <outline>
    <contour>
      <point x="360" y="740" type="line" name="hr00"/>
      <point x="265" y="640" type="line" smooth="yes"/>
      <point x="226" y="597"/>
      <point x="165" y="593"/>
      <point x="132" y="602" type="curve"/>
      <point x="237" y="740" type="line"/>
    </contour>
  </outline>
</glyph>
<glyph name="mu" format="1">
  <advance width="553"/>
  <unicode hex="00B5"/>
  <unicode hex="03BC"/>
  <outline>
    <contour>
      <point x="411" y="76" type="line"/>
      <point x="398" y="55" type="line"/>
      <point x="367" y="17"/>
      <point x="325" y="-10"/>
      <point x="263" y="-10" type="curve" smooth="yes"/>
      <point x="235" y="-10"/>
      <point x="205" y="0"/>
      <point x="186" y="18" type="curve"/>
      <point x="174" y="37" type="line"/>
      <point x="173" y="28"/>
      <point x="173" y="19"/>
      <point x="172" y="10" type="curve"/>
      <point x="145" y="-211" type="line"/>
      <point x="37" y="-211" type="line"/>
      <point x="126" y="517" type="line"/>
      <point x="240" y="517" type="line"/>
      <point x="202" y="210" type="line" smooth="yes"/>
      <point x="193" y="131"/>
      <point x="222" y="79"/>
      <point x="283" y="79" type="curve" smooth="yes" name="hr01"/>
      <point x="345" y="79"/>
      <point x="402" y="132"/>
      <point x="410" y="199" type="curve" smooth="yes"/>
      <point x="449" y="517" type="line"/>
      <point x="564" y="517" type="line"/>
      <point x="520" y="155" type="line" smooth="yes"/>
      <point x="513" y="99"/>
      <point x="524" y="79"/>
      <point x="565" y="81" type="curve"/>
      <point x="567" y="4" type="line"/>
      <point x="544" y="-4"/>
      <point x="516" y="-8"/>
      <point x="501" y="-8" type="curve" smooth="yes"/>
      <point x="464" y="-8"/>
      <point x="425" y="10"/>
      <point x="413" y="56" type="curve"/>
    </contour>
  </outline>
</glyph>
<glyph name="periodcentered" format="1">
  <advance width="306"/>
  <unicode hex="00B7"/>
  <outline>
    <contour>
      <point x="115" y="304" type="curve" smooth="yes" name="hr00"/>
      <point x="120" y="346"/>
      <point x="156" y="379"/>
      <point x="198" y="379" type="curve" smooth="yes"/>
      <point x="240" y="379"/>
      <point x="268" y="346"/>
      <point x="263" y="304" type="curve" smooth="yes"/>
      <point x="258" y="263"/>
      <point x="222" y="231"/>
      <point x="180" y="231" type="curve" smooth="yes"/>
      <point x="138" y="231"/>
      <point x="110" y="263"/>
    </contour>
  </outline>
</glyph>
<glyph name="cedilla" format="1">
  <advance width="500"/>
  <unicode hex="00B8"/>
  <outline>
    <contour>
      <point x="226" y="-3" type="line" name="hr00"/>
      <point x="287" y="3" type="line"/>
      <point x="269" y="-46" type="line"/>
      <point x="308" y="-53"/>
      <point x="346" y="-80"/>
      <point x="340" y="-123" type="curve" smooth="yes"/>
      <point x="333" y="-183"/>
      <point x="266" y="-210"/>
      <point x="208" y="-210" type="curve" smooth="yes"/>
      <point x="185" y="-210"/>
      <point x="160" y="-205"/>
      <point x="130" y="-191" type="curve"/>
      <point x="152" y="-140" type="line"/>
      <point x="176" y="-150"/>
      <point x="195" y="-153"/>
      <point x="215" y="-153" type="curve" smooth="yes"/>
      <point x="238" y="-153"/>
      <point x="261" y="-144"/>
      <point x="263" y="-126" type="curve" smooth="yes"/>
      <point x="266" y="-104"/>
      <point x="240" y="-93"/>
      <point x="194" y="-88" type="curve"/>
    </contour>
  </outline>
</glyph>
<glyph name="onesuperior" format="1">
  <advance width="319"/>
  <unicode hex="00B9"/>
  <outline>
    <contour>
      <point x="297" y="309" type="line" name="hr00"/>
      <point x="210" y="309" type="line"/>
      <point x="249" y="626" type="line"/>
      <point x="187" y="597" type="line"/>
      <point x="162" y="654" type="line"/>
      <point x="307" y="727" type="line"/>
      <point x="349" y="727" type="line"/>
    </contour>
  </outline>
</glyph>
<glyph name="ordmasculine" format="1">
  <advance width="430"/>
  <unicode hex="00BA"/>
  <outline>
    <contour>
      <point x="183" y="483" type="curve" smooth="yes" name="hr00"/>
      <point x="174" y="410"/>
      <point x="198" y="358"/>
      <point x="257" y="358" type="curve" smooth="yes"/>
      <point x="317" y="358"/>
      <point x="355" y="413"/>
      <point x="364" y="483" type="curve" smooth="yes"/>
      <point x="372" y="551"/>
      <point x="351" y="608"/>
      <point x="288" y="608" type="curve" smooth="yes"/>
      <point x="230" y="608"/>
      <point x="191" y="552"/>
    </contour>
    <contour>
      <point x="250" y="294" type="curve" smooth="yes"/>
      <point x="144" y="294"/>
      <point x="83" y="364"/>
      <point x="98" y="483" type="curve" smooth="yes"/>
      <point x="111" y="587"/>
      <point x="184" y="671"/>
      <point x="296" y="671" type="curve" smooth="yes"/>
      <point x="403" y="671"/>
      <point x="462" y="598"/>
      <point x="448" y="483" type="curve" smooth="yes"/>
      <point x="435" y="377"/>
      <point x="363" y="294"/>
    </contour>
  </outline>
</glyph>
<glyph name="onequarter" format="1">
  <advance width="698"/>
  <unicode hex="00BC"/>
  <outline>
    <contour>
      <point x="359" y="144" type="line" name="hr00"/>
      <point x="580" y="423" type="line"/>
      <point x="665" y="423" type="line"/>
      <point x="632" y="148" type="line"/>
      <point x="680" y="148" type="line"/>
      <point x="672" y="85" type="line"/>
      <point x="624" y="85" type="line"/>
      <point x="614" y="0" type="line"/>
      <point x="538" y="0" type="line"/>
      <point x="572" y="283" type="line"/>
      <point x="577" y="316" type="line"/>
      <point x="556" y="288" type="line"/>
      <point x="460" y="171" type="line"/>
      <point x="441" y="148" type="line"/>
      <point x="465" y="148" type="line"/>
      <point x="500" y="148"/>
      <point x="514" y="111"/>
      <point x="521" y="85" type="curve"/>
      <point x="352" y="85" type="line"/>
    </contour>
    <contour>
      <point x="237" y="309" type="line"/>
      <point x="150" y="309" type="line"/>
      <point x="189" y="626" type="line"/>
      <point x="127" y="597" type="line"/>
      <point x="102" y="654" type="line"/>
      <point x="247" y="727" type="line"/>
      <point x="289" y="727" type="line"/>
    </contour>
    <contour>
      <point x="165" y="0" type="line"/>
      <point x="75" y="0" type="line"/>
      <point x="600" y="727" type="line"/>
      <point x="690" y="727" type="line"/>
    </contour>
  </outline>
</glyph>
<glyph name="onehalf" format="1">
  <advance width="763"/>
  <unicode hex="00BD"/>
  <outline>
    <contour>
      <point x="725" y="318" type="curve" smooth="yes" name="hr00"/>
      <point x="713" y="222"/>
      <point x="602" y="156"/>
      <point x="541" y="78" type="curve"/>
      <point x="530" y="66" type="line"/>
      <point x="546" y="68" type="line"/>
      <point x="695" y="68" type="line"/>
      <point x="687" y="0" type="line"/>
      <point x="424" y="0" type="line"/>
      <point x="429" y="42" type="line"/>
      <point x="517" y="167"/>
      <point x="633" y="235"/>
      <point x="643" y="311" type="curve" smooth="yes"/>
      <point x="647" y="346"/>
      <point x="622" y="363"/>
      <point x="582" y="363" type="curve" smooth="yes"/>
      <point x="559" y="363"/>
      <point x="535" y="357"/>
      <point x="511" y="347" type="curve"/>
      <point x="492" y="401" type="line"/>
      <point x="530" y="420"/>
      <point x="570" y="426"/>
      <point x="602" y="426" type="curve" smooth="yes"/>
      <point x="678" y="426"/>
      <point x="733" y="387"/>
    </contour>
    <contour>
      <point x="237" y="309" type="line"/>
      <point x="150" y="309" type="line"/>
      <point x="189" y="626" type="line"/>
      <point x="127" y="597" type="line"/>
      <point x="102" y="654" type="line"/>
      <point x="247" y="727" type="line"/>
      <point x="289" y="727" type="line"/>
    </contour>
    <contour>
      <point x="165" y="0" type="line"/>
      <point x="75" y="0" type="line"/>
      <point x="600" y="727" type="line"/>
      <point x="690" y="727" type="line"/>
    </contour>
  </outline>
</glyph>
<glyph name="threequarters" format="1">
  <advance width="716"/>
  <unicode hex="00BE"/>
  <outline>
    <contour>
      <point x="351" y="639" type="curve" smooth="yes"/>
      <point x="346" y="597"/>
      <point x="310" y="560"/>
      <point x="262" y="539" type="curve"/>
      <point x="306" y="528"/>
      <point x="347" y="491"/>
      <point x="339" y="431" type="curve" smooth="yes"/>
      <point x="330" y="355"/>
      <point x="256" y="301"/>
      <point x="164" y="301" type="curve" smooth="yes"/>
      <point x="121" y="301"/>
      <point x="83" y="317"/>
      <point x="65" y="329" type="curve"/>
      <point x="92" y="385" type="line"/>
      <point x="115" y="375"/>
      <point x="139" y="365"/>
      <point x="171" y="365" type="curve" smooth="yes"/>
      <point x="219" y="365"/>
      <point x="252" y="397"/>
      <point x="257" y="433" type="curve" smooth="yes"/>
      <point x="262" y="478"/>
      <point x="230" y="501"/>
      <point x="162" y="501" type="curve"/>
      <point x="162" y="552" type="line"/>
      <point x="196" y="565" type="line" smooth="yes"/>
      <point x="225" y="577"/>
      <point x="251" y="592"/>
      <point x="260" y="614" type="curve" smooth="yes"/>
      <point x="265" y="623"/>
      <point x="266" y="632"/>
      <point x="266" y="641" type="curve" smooth="yes"/>
      <point x="264" y="656"/>
      <point x="249" y="671"/>
      <point x="222" y="671" type="curve" smooth="yes" name="hr01"/>
      <point x="199" y="671"/>
      <point x="173" y="665"/>
      <point x="145" y="656" type="curve"/>
      <point x="128" y="710" type="line"/>
      <point x="167" y="729"/>
      <point x="203" y="735"/>
      <point x="236" y="735" type="curve" smooth="yes"/>
      <point x="309" y="735"/>
      <point x="359" y="701"/>
    </contour>
    <contour>
      <point x="396" y="144" type="line"/>
      <point x="617" y="423" type="line"/>
      <point x="702" y="423" type="line"/>
      <point x="669" y="148" type="line"/>
      <point x="717" y="148" type="line"/>
      <point x="709" y="85" type="line"/>
      <point x="661" y="85" type="line"/>
      <point x="651" y="0" type="line"/>
      <point x="575" y="0" type="line"/>
      <point x="613" y="314" type="line"/>
      <point x="479" y="148" type="line"/>
      <point x="502" y="148" type="line" smooth="yes"/>
      <point x="537" y="148"/>
      <point x="551" y="111"/>
      <point x="558" y="85" type="curve"/>
      <point x="389" y="85" type="line"/>
    </contour>
    <contour>
      <point x="202" y="0" type="line"/>
      <point x="111" y="0" type="line"/>
      <point x="636" y="727" type="line" name="hr02"/>
      <point x="727" y="727" type="line"/>
    </contour>
  </outline>
</glyph>
<glyph name="questiondown" format="1">
  <advance width="583"/>
  <unicode hex="00BF"/>
  <outline>
    <contour>
      <point x="469" y="457" type="curve" smooth="yes" name="hr00"/>
      <point x="464" y="416"/>
      <point x="427" y="382"/>
      <point x="385" y="382" type="curve" smooth="yes"/>
      <point x="343" y="382"/>
      <point x="316" y="416"/>
      <point x="321" y="457" type="curve" smooth="yes"/>
      <point x="326" y="499"/>
      <point x="362" y="531"/>
      <point x="404" y="531" type="curve" smooth="yes"/>
      <point x="446" y="531"/>
      <point x="474" y="499"/>
    </contour>
    <contour>
      <point x="282" y="-221" type="curve" smooth="yes"/>
      <point x="156" y="-221"/>
      <point x="75" y="-159"/>
      <point x="87" y="-63" type="curve" smooth="yes"/>
      <point x="105" y="88"/>
      <point x="306" y="152"/>
      <point x="325" y="303" type="curve"/>
      <point x="426" y="303" type="line"/>
      <point x="402" y="108"/>
      <point x="228" y="65"/>
      <point x="215" y="-48" type="curve" smooth="yes"/>
      <point x="209" y="-96"/>
      <point x="245" y="-129"/>
      <point x="304" y="-129" type="curve" smooth="yes"/>
      <point x="342" y="-129"/>
      <point x="378" y="-124"/>
      <point x="442" y="-96" type="curve"/>
      <point x="463" y="-180" type="line"/>
      <point x="390" y="-213"/>
      <point x="337" y="-221"/>
    </contour>
  </outline>
</glyph>
<glyph name="Agrave" format="1">
  <advance width="687"/>
  <unicode hex="00C0"/>
  <outline>
    <contour>
      <point x="381" y="802" type="curve" name="hr00"/>
      <point x="326" y="890" type="line"/>
      <point x="444" y="890" type="line"/>
      <point x="502" y="765" type="line"/>
      <point x="467" y="757"/>
      <point x="405" y="762"/>
    </contour>
    <contour>
      <point x="372" y="727" type="line"/>
      <point x="495" y="727" type="line"/>
      <point x="667" y="0" type="line"/>
      <point x="536" y="0" type="line"/>
      <point x="412" y="588" type="line"/>
      <point x="270" y="274" type="line"/>
      <point x="256" y="254" type="line"/>
      <point x="270" y="256" type="line"/>
      <point x="368" y="256" type="line" smooth="yes"/>
      <point x="422" y="256"/>
      <point x="442" y="206"/>
      <point x="451" y="165" type="curve"/>
      <point x="221" y="165" type="line"/>
      <point x="146" y="0" type="line"/>
      <point x="22" y="0" type="line"/>
    </contour>
  </outline>
</glyph>
<glyph name="Aacute" format="1">
  <advance width="687"/>
  <unicode hex="00C1"/>
  <outline>
    <contour>
      <point x="600" y="890" type="line" name="hr00"/>
      <point x="511" y="802" type="line" smooth="yes"/>
      <point x="471" y="763"/>
      <point x="410" y="757"/>
      <point x="378" y="765" type="curve"/>
      <point x="481" y="890" type="line"/>
    </contour>
    <contour>
      <point x="371" y="727" type="line"/>
      <point x="493" y="727" type="line"/>
      <point x="666" y="0" type="line"/>
      <point x="535" y="0" type="line"/>
      <point x="411" y="588" type="line"/>
      <point x="268" y="274" type="line"/>
      <point x="255" y="254" type="line"/>
      <point x="269" y="256" type="line"/>
      <point x="367" y="256" type="line" smooth="yes"/>
      <point x="421" y="256"/>
      <point x="441" y="206"/>
      <point x="450" y="165" type="curve"/>
      <point x="220" y="165" type="line"/>
      <point x="144" y="0" type="line"/>
      <point x="21" y="0" type="line"/>
    </contour>
  </outline>
</glyph>
<glyph name="Acircumflex" format="1">
  <advance width="687"/>
  <unicode hex="00C2"/>
  <outline>
    <contour>
      <point x="407" y="890" type="line" name="hr00"/>
      <point x="492" y="890" type="line"/>
      <point x="586" y="772" type="line"/>
      <point x="515" y="758" type="line"/>
      <point x="440" y="815" type="line"/>
      <point x="352" y="758" type="line"/>
      <point x="285" y="772" type="line"/>
    </contour>
    <contour>
      <point x="372" y="727" type="line"/>
      <point x="495" y="727" type="line"/>
      <point x="667" y="0" type="line"/>
      <point x="536" y="0" type="line"/>
      <point x="412" y="588" type="line"/>
      <point x="270" y="274" type="line"/>
      <point x="256" y="254" type="line"/>
      <point x="270" y="256" type="line"/>
      <point x="368" y="256" type="line" smooth="yes"/>
      <point x="422" y="256"/>
      <point x="442" y="206"/>
      <point x="451" y="165" type="curve"/>
      <point x="221" y="165" type="line"/>
      <point x="146" y="0" type="line"/>
      <point x="22" y="0" type="line"/>
    </contour>
  </outline>
</glyph>
<glyph name="Atilde" format="1">
  <advance width="687"/>
  <unicode hex="00C3"/>
  <outline>
    <contour>
      <point x="356" y="777" type="curve"/>
      <point x="289" y="783" type="line"/>
      <point x="300" y="856"/>
      <point x="350" y="897"/>
      <point x="399" y="897" type="curve" smooth="yes"/>
      <point x="457" y="897"/>
      <point x="474" y="843"/>
      <point x="510" y="843" type="curve" smooth="yes" name="hr01"/>
      <point x="527" y="843"/>
      <point x="540" y="862"/>
      <point x="547" y="893" type="curve"/>
      <point x="611" y="887" type="line"/>
      <point x="598" y="804"/>
      <point x="545" y="773"/>
      <point x="507" y="773" type="curve" smooth="yes"/>
      <point x="441" y="773"/>
      <point x="431" y="827"/>
      <point x="397" y="827" type="curve" smooth="yes" name="hr02"/>
      <point x="382" y="827"/>
      <point x="363" y="814"/>
    </contour>
    <contour>
      <point x="372" y="727" type="line"/>
      <point x="495" y="727" type="line"/>
      <point x="667" y="0" type="line"/>
      <point x="536" y="0" type="line"/>
      <point x="412" y="588" type="line"/>
      <point x="270" y="274" type="line"/>
      <point x="256" y="254" type="line"/>
      <point x="270" y="256" type="line"/>
      <point x="368" y="256" type="line" smooth="yes"/>
      <point x="422" y="256"/>
      <point x="442" y="206"/>
      <point x="451" y="165" type="curve"/>
      <point x="221" y="165" type="line"/>
      <point x="146" y="0" type="line"/>
      <point x="22" y="0" type="line"/>
    </contour>
  </outline>
</glyph>
<glyph name="Adieresis" format="1">
  <advance width="687"/>
  <unicode hex="00C4"/>
  <outline>
    <contour>
      <point x="484" y="840" type="curve" smooth="yes" name="hr00"/>
      <point x="488" y="873"/>
      <point x="518" y="899"/>
      <point x="550" y="899" type="curve" smooth="yes"/>
      <point x="583" y="899"/>
      <point x="607" y="873"/>
      <point x="603" y="840" type="curve" smooth="yes"/>
      <point x="599" y="807"/>
      <point x="568" y="781"/>
      <point x="535" y="781" type="curve" smooth="yes"/>
      <point x="503" y="781"/>
      <point x="480" y="807"/>
    </contour>
    <contour>
      <point x="290" y="840" type="curve" smooth="yes"/>
      <point x="294" y="873"/>
      <point x="324" y="899"/>
      <point x="355" y="899" type="curve" smooth="yes"/>
      <point x="388" y="899"/>
      <point x="412" y="873"/>
      <point x="408" y="840" type="curve" smooth="yes"/>
      <point x="404" y="807"/>
      <point x="373" y="781"/>
      <point x="340" y="781" type="curve" smooth="yes"/>
      <point x="309" y="781"/>
      <point x="286" y="807"/>
    </contour>
    <contour>
      <point x="372" y="727" type="line"/>
      <point x="495" y="727" type="line"/>
      <point x="667" y="0" type="line"/>
      <point x="536" y="0" type="line"/>
      <point x="412" y="588" type="line"/>
      <point x="270" y="274" type="line"/>
      <point x="256" y="254" type="line"/>
      <point x="270" y="256" type="line"/>
      <point x="368" y="256" type="line" smooth="yes"/>
      <point x="422" y="256"/>
      <point x="442" y="206"/>
      <point x="451" y="165" type="curve"/>
      <point x="221" y="165" type="line"/>
      <point x="146" y="0" type="line"/>
      <point x="22" y="0" type="line"/>
    </contour>
  </outline>
</glyph>
<glyph name="Aring" format="1">
  <advance width="687"/>
  <unicode hex="00C5"/>
  <outline>
    <contour>
      <point x="436" y="757" type="curve" smooth="yes" name="hr00"/>
      <point x="463" y="757"/>
      <point x="481" y="776"/>
      <point x="484" y="801" type="curve" smooth="yes"/>
      <point x="487" y="826"/>
      <point x="474" y="845"/>
      <point x="447" y="845" type="curve" smooth="yes"/>
      <point x="423" y="845"/>
      <point x="405" y="826"/>
      <point x="402" y="799" type="curve" smooth="yes"/>
      <point x="399" y="778"/>
      <point x="412" y="757"/>
    </contour>
    <contour>
      <point x="146" y="0" type="line"/>
      <point x="23" y="0" type="line"/>
      <point x="371" y="724" type="line"/>
      <point x="345" y="740"/>
      <point x="333" y="767"/>
      <point x="337" y="799" type="curve" smooth="yes"/>
      <point x="343" y="853"/>
      <point x="393" y="893"/>
      <point x="454" y="893" type="curve" smooth="yes"/>
      <point x="516" y="893"/>
      <point x="554" y="856"/>
      <point x="547" y="800" type="curve" smooth="yes"/>
      <point x="543" y="767"/>
      <point x="523" y="741"/>
      <point x="496" y="725" type="curve"/>
      <point x="668" y="0" type="line"/>
      <point x="537" y="0" type="line"/>
      <point x="498" y="181"/>
      <point x="458" y="362"/>
      <point x="420" y="543" type="curve" smooth="yes"/>
      <point x="412" y="586" type="line"/>
      <point x="393" y="542" type="line" smooth="yes"/>
      <point x="352" y="453"/>
      <point x="311" y="363"/>
      <point x="270" y="274" type="curve"/>
      <point x="257" y="254" type="line"/>
      <point x="269" y="256" type="line"/>
      <point x="369" y="256" type="line" smooth="yes"/>
      <point x="423" y="256"/>
      <point x="443" y="206"/>
      <point x="452" y="165" type="curve"/>
      <point x="222" y="165" type="line"/>
    </contour>
  </outline>
</glyph>
<glyph name="AE" format="1">
  <advance width="975"/>
  <unicode hex="00C6"/>
  <outline>
    <contour>
      <point x="771" y="426" type="curve" name="hr00"/>
      <point x="906" y="426" type="line"/>
      <point x="895" y="337" type="line"/>
      <point x="658" y="337" type="line"/>
      <point x="677" y="382"/>
      <point x="710" y="426"/>
    </contour>
    <contour>
      <point x="516" y="0" type="line"/>
      <point x="499" y="543" type="line" smooth="yes"/>
      <point x="499" y="553"/>
      <point x="499" y="563"/>
      <point x="499" y="572" type="curve"/>
      <point x="500" y="610" type="line"/>
      <point x="482" y="573" type="line"/>
      <point x="298" y="274" type="line"/>
      <point x="282" y="254" type="line"/>
      <point x="301" y="256" type="line"/>
      <point x="391" y="256" type="line" smooth="yes"/>
      <point x="445" y="256"/>
      <point x="465" y="206"/>
      <point x="474" y="165" type="curve"/>
      <point x="234" y="165" type="line"/>
      <point x="133" y="0" type="line"/>
      <point x="8" y="0" type="line"/>
      <point x="468" y="727" type="line"/>
      <point x="933" y="727" type="line"/>
      <point x="922" y="636" type="line"/>
      <point x="614" y="636" type="line"/>
      <point x="630" y="91" type="line"/>
      <point x="926" y="91" type="line"/>
      <point x="915" y="0" type="line"/>
    </contour>
  </outline>
</glyph>
<glyph name="Ccedilla" format="1">
  <advance width="652"/>
  <unicode hex="00C7"/>
  <outline>
    <contour>
      <point x="433" y="-12" type="curve" smooth="yes"/>
      <point x="421" y="-12"/>
      <point x="410" y="-11"/>
      <point x="400" y="-11" type="curve" name="hr01"/>
      <point x="387" y="-46" type="line"/>
      <point x="426" y="-53"/>
      <point x="464" y="-80"/>
      <point x="458" y="-123" type="curve" smooth="yes"/>
      <point x="451" y="-183"/>
      <point x="384" y="-210"/>
      <point x="326" y="-210" type="curve" smooth="yes"/>
      <point x="303" y="-210"/>
      <point x="278" y="-205"/>
      <point x="248" y="-191" type="curve"/>
      <point x="270" y="-140" type="line"/>
      <point x="294" y="-150"/>
      <point x="313" y="-153"/>
      <point x="333" y="-153" type="curve" smooth="yes"/>
      <point x="356" y="-153"/>
      <point x="379" y="-144"/>
      <point x="381" y="-126" type="curve" smooth="yes"/>
      <point x="384" y="-104"/>
      <point x="358" y="-93"/>
      <point x="312" y="-88" type="curve"/>
      <point x="344" y="-3" type="line"/>
      <point x="169" y="31"/>
      <point x="78" y="175"/>
      <point x="101" y="363" type="curve" smooth="yes"/>
      <point x="127" y="577"/>
      <point x="297" y="740"/>
      <point x="525" y="740" type="curve" smooth="yes"/>
      <point x="581" y="740"/>
      <point x="638" y="730"/>
      <point x="697" y="706" type="curve"/>
      <point x="655" y="624" type="line"/>
      <point x="598" y="642"/>
      <point x="560" y="648"/>
      <point x="514" y="648" type="curve" smooth="yes"/>
      <point x="363" y="648"/>
      <point x="254" y="526"/>
      <point x="234" y="363" type="curve" smooth="yes"/>
      <point x="214" y="203"/>
      <point x="293" y="79"/>
      <point x="444" y="79" type="curve" smooth="yes" name="hr02"/>
      <point x="490" y="79"/>
      <point x="538" y="90"/>
      <point x="592" y="115" type="curve"/>
      <point x="615" y="34" type="line"/>
      <point x="551" y="2"/>
      <point x="489" y="-12"/>
    </contour>
  </outline>
</glyph>
<glyph name="Egrave" format="1">
  <advance width="577"/>
  <unicode hex="00C8"/>
  <outline>
    <contour>
      <point x="339" y="802" type="curve" name="hr00"/>
      <point x="285" y="890" type="line"/>
      <point x="403" y="890" type="line"/>
      <point x="461" y="765" type="line"/>
      <point x="426" y="757"/>
      <point x="364" y="762"/>
    </contour>
    <contour>
      <point x="385" y="426" type="curve"/>
      <point x="521" y="426" type="line"/>
      <point x="510" y="337" type="line"/>
      <point x="279" y="337" type="line"/>
      <point x="298" y="378"/>
      <point x="331" y="426"/>
    </contour>
    <contour>
      <point x="75" y="0" type="line"/>
      <point x="164" y="727" type="line"/>
      <point x="592" y="727" type="line"/>
      <point x="581" y="636" type="line"/>
      <point x="278" y="636" type="line"/>
      <point x="211" y="91" type="line"/>
      <point x="530" y="91" type="line"/>
      <point x="519" y="0" type="line"/>
    </contour>
  </outline>
</glyph>
<glyph name="Ecircumflex" format="1">
  <advance width="577"/>
  <unicode hex="00CA"/>
  <outline>
    <contour>
      <point x="369" y="890" type="line" name="hr00"/>
      <point x="454" y="890" type="line"/>
      <point x="548" y="772" type="line"/>
      <point x="477" y="758" type="line"/>
      <point x="402" y="815" type="line"/>
      <point x="314" y="758" type="line"/>
      <point x="247" y="772" type="line"/>
    </contour>
    <contour>
      <point x="385" y="426" type="curve"/>
      <point x="521" y="426" type="line"/>
      <point x="510" y="337" type="line"/>
      <point x="279" y="337" type="line"/>
      <point x="298" y="378"/>
      <point x="331" y="426"/>
    </contour>
    <contour>
      <point x="75" y="0" type="line"/>
      <point x="164" y="727" type="line"/>
      <point x="592" y="727" type="line"/>
      <point x="581" y="636" type="line"/>
      <point x="278" y="636" type="line"/>
      <point x="211" y="91" type="line"/>
      <point x="530" y="91" type="line"/>
      <point x="519" y="0" type="line"/>
    </contour>
  </outline>
</glyph>
<glyph name="Edieresis" format="1">
  <advance width="577"/>
  <unicode hex="00CB"/>
  <outline>
    <contour>
      <point x="441" y="840" type="curve" smooth="yes" name="hr00"/>
      <point x="445" y="873"/>
      <point x="475" y="899"/>
      <point x="507" y="899" type="curve" smooth="yes"/>
      <point x="540" y="899"/>
      <point x="564" y="873"/>
      <point x="560" y="840" type="curve" smooth="yes"/>
      <point x="556" y="807"/>
      <point x="525" y="781"/>
      <point x="492" y="781" type="curve" smooth="yes"/>
      <point x="460" y="781"/>
      <point x="437" y="807"/>
    </contour>
    <contour>
      <point x="247" y="840" type="curve" smooth="yes"/>
      <point x="251" y="873"/>
      <point x="281" y="899"/>
      <point x="312" y="899" type="curve" smooth="yes"/>
      <point x="345" y="899"/>
      <point x="369" y="873"/>
      <point x="365" y="840" type="curve" smooth="yes"/>
      <point x="361" y="807"/>
      <point x="330" y="781"/>
      <point x="297" y="781" type="curve" smooth="yes"/>
      <point x="266" y="781"/>
      <point x="243" y="807"/>
    </contour>
    <contour>
      <point x="385" y="426" type="curve"/>
      <point x="521" y="426" type="line"/>
      <point x="510" y="337" type="line"/>
      <point x="279" y="337" type="line"/>
      <point x="298" y="378"/>
      <point x="331" y="426"/>
    </contour>
    <contour>
      <point x="75" y="0" type="line"/>
      <point x="164" y="727" type="line"/>
      <point x="592" y="727" type="line"/>
      <point x="581" y="636" type="line"/>
      <point x="278" y="636" type="line"/>
      <point x="211" y="91" type="line"/>
      <point x="530" y="91" type="line"/>
      <point x="519" y="0" type="line"/>
    </contour>
  </outline>
</glyph>
<glyph name="Igrave" format="1">
  <advance width="279"/>
  <unicode hex="00CC"/>
  <outline>
    <contour>
      <point x="177" y="802" type="curve" name="hr00"/>
      <point x="123" y="890" type="line"/>
      <point x="241" y="890" type="line"/>
      <point x="299" y="765" type="line"/>
      <point x="264" y="757"/>
      <point x="202" y="762"/>
    </contour>
    <contour>
      <point x="293" y="727" type="line"/>
      <point x="204" y="0" type="line"/>
      <point x="82" y="0" type="line"/>
      <point x="171" y="727" type="line"/>
    </contour>
  </outline>
</glyph>
<glyph name="Iacute" format="1">
  <advance width="321"/>
  <unicode hex="00CD"/>
  <outline>
    <contour>
      <point x="390" y="890" type="line" name="hr00"/>
      <point x="301" y="802" type="line" smooth="yes"/>
      <point x="260" y="763"/>
      <point x="200" y="757"/>
      <point x="167" y="765" type="curve"/>
      <point x="270" y="890" type="line"/>
    </contour>
    <contour>
      <point x="284" y="727" type="line"/>
      <point x="195" y="0" type="line"/>
      <point x="74" y="0" type="line"/>
      <point x="163" y="727" type="line"/>
    </contour>
  </outline>
</glyph>
<glyph name="Icircumflex" format="1">
  <advance width="321"/>
  <unicode hex="00CE"/>
  <outline>
    <contour>
      <point x="226" y="890" type="line" name="hr00"/>
      <point x="311" y="890" type="line"/>
      <point x="405" y="772" type="line"/>
      <point x="334" y="758" type="line"/>
      <point x="259" y="815" type="line"/>
      <point x="171" y="758" type="line"/>
      <point x="104" y="772" type="line"/>
    </contour>
    <contour>
      <point x="309" y="727" type="line"/>
      <point x="220" y="0" type="line"/>
      <point x="99" y="0" type="line"/>
      <point x="188" y="727" type="line"/>
    </contour>
  </outline>
</glyph>
<glyph name="Idieresis" format="1">
  <advance width="350"/>
  <unicode hex="00CF"/>
  <outline>
    <contour>
      <point x="314" y="840" type="curve" smooth="yes" name="hr00"/>
      <point x="318" y="873"/>
      <point x="348" y="899"/>
      <point x="380" y="899" type="curve" smooth="yes"/>
      <point x="412" y="899"/>
      <point x="436" y="873"/>
      <point x="432" y="840" type="curve" smooth="yes"/>
      <point x="428" y="807"/>
      <point x="397" y="781"/>
      <point x="365" y="781" type="curve" smooth="yes"/>
      <point x="333" y="781"/>
      <point x="310" y="807"/>
    </contour>
    <contour>
      <point x="119" y="840" type="curve" smooth="yes"/>
      <point x="123" y="873"/>
      <point x="153" y="899"/>
      <point x="185" y="899" type="curve" smooth="yes"/>
      <point x="218" y="899"/>
      <point x="242" y="873"/>
      <point x="238" y="840" type="curve" smooth="yes"/>
      <point x="234" y="807"/>
      <point x="203" y="781"/>
      <point x="170" y="781" type="curve" smooth="yes"/>
      <point x="138" y="781"/>
      <point x="115" y="807"/>
    </contour>
    <contour>
      <point x="323" y="727" type="line"/>
      <point x="234" y="0" type="line"/>
      <point x="112" y="0" type="line"/>
      <point x="201" y="727" type="line"/>
    </contour>
  </outline>
</glyph>
<glyph name="Eth" format="1">
  <advance width="713"/>
  <unicode hex="00D0"/>
  <outline>
    <contour>
      <point x="33" y="315" type="line"/>
      <point x="43" y="396" type="line"/>
      <point x="123" y="396" type="line"/>
      <point x="162" y="715" type="line"/>
      <point x="243" y="732"/>
      <point x="327" y="740"/>
      <point x="385" y="740" type="curve" smooth="yes"/>
      <point x="646" y="740"/>
      <point x="781" y="597"/>
      <point x="752" y="365" type="curve" smooth="yes"/>
      <point x="726" y="151"/>
      <point x="555" y="-12"/>
      <point x="361" y="-12" type="curve" smooth="yes"/>
      <point x="321" y="-12"/>
      <point x="294" y="-10"/>
      <point x="238" y="5" type="curve"/>
      <point x="259" y="40"/>
      <point x="295" y="82"/>
      <point x="345" y="80" type="curve" smooth="yes"/>
      <point x="353" y="79"/>
      <point x="356" y="79"/>
      <point x="362" y="79" type="curve" smooth="yes"/>
      <point x="506" y="79"/>
      <point x="601" y="219"/>
      <point x="619" y="365" type="curve" smooth="yes"/>
      <point x="640" y="536"/>
      <point x="568" y="648"/>
      <point x="374" y="648" type="curve" smooth="yes"/>
      <point x="342" y="648"/>
      <point x="309" y="645"/>
      <point x="277" y="641" type="curve"/>
      <point x="247" y="396" type="line"/>
      <point x="459" y="396" type="line"/>
      <point x="449" y="315" type="line"/>
      <point x="237" y="315" type="line"/>
      <point x="199" y="0" type="line" name="hr01"/>
      <point x="75" y="0" type="line"/>
      <point x="113" y="315" type="line"/>
    </contour>
  </outline>
</glyph>
<glyph name="Ntilde" format="1">
  <advance width="749"/>
  <unicode hex="00D1"/>
  <outline>
    <contour>
      <point x="385" y="777" type="curve"/>
      <point x="319" y="783" type="line"/>
      <point x="330" y="856"/>
      <point x="380" y="897"/>
      <point x="428" y="897" type="curve" smooth="yes"/>
      <point x="486" y="897"/>
      <point x="504" y="843"/>
      <point x="539" y="843" type="curve" smooth="yes" name="hr01"/>
      <point x="557" y="843"/>
      <point x="569" y="862"/>
      <point x="576" y="893" type="curve"/>
      <point x="641" y="887" type="line"/>
      <point x="627" y="804"/>
      <point x="575" y="773"/>
      <point x="536" y="773" type="curve" smooth="yes"/>
      <point x="471" y="773"/>
      <point x="461" y="827"/>
      <point x="426" y="827" type="curve" smooth="yes" name="hr02"/>
      <point x="411" y="827"/>
      <point x="392" y="814"/>
    </contour>
    <contour>
      <point x="549" y="0" type="line"/>
      <point x="457" y="179"/>
      <point x="366" y="358"/>
      <point x="275" y="537" type="curve"/>
      <point x="266" y="571" type="line"/>
      <point x="263" y="537" type="line"/>
      <point x="198" y="0" type="line"/>
      <point x="92" y="0" type="line"/>
      <point x="181" y="727" type="line"/>
      <point x="302" y="727" type="line"/>
      <point x="549" y="239" type="line" smooth="yes"/>
      <point x="554" y="229"/>
      <point x="559" y="219"/>
      <point x="564" y="208" type="curve"/>
      <point x="572" y="175" type="line"/>
      <point x="574" y="210" type="line"/>
      <point x="638" y="727" type="line"/>
      <point x="748" y="727" type="line"/>
      <point x="659" y="0" type="line"/>
    </contour>
  </outline>
</glyph>
<glyph name="Ograve" format="1">
  <advance width="791"/>
  <unicode hex="00D2"/>
  <outline>
    <contour>
      <point x="388" y="802" type="curve"/>
      <point x="334" y="890" type="line"/>
      <point x="452" y="890" type="line"/>
      <point x="510" y="765" type="line"/>
      <point x="475" y="757"/>
      <point x="412" y="762"/>
    </contour>
    <contour>
      <point x="646" y="364" type="curve" smooth="yes"/>
      <point x="666" y="527"/>
      <point x="596" y="650"/>
      <point x="462" y="650" type="curve" smooth="yes"/>
      <point x="327" y="650"/>
      <point x="227" y="527"/>
      <point x="207" y="364" type="curve" smooth="yes"/>
      <point x="188" y="206"/>
      <point x="257" y="77"/>
      <point x="392" y="77" type="curve" smooth="yes"/>
      <point x="526" y="77"/>
      <point x="627" y="206"/>
    </contour>
    <contour>
      <point x="779" y="364" type="curve" smooth="yes"/>
      <point x="752" y="140"/>
      <point x="580" y="-14"/>
      <point x="381" y="-14" type="curve" smooth="yes"/>
      <point x="169" y="-14"/>
      <point x="46" y="137"/>
      <point x="74" y="364" type="curve" smooth="yes"/>
      <point x="102" y="587"/>
      <point x="268" y="742"/>
      <point x="474" y="742" type="curve" smooth="yes" name="hr01"/>
      <point x="685" y="742"/>
      <point x="807" y="590"/>
    </contour>
  </outline>
</glyph>
<glyph name="Oacute" format="1">
  <advance width="791"/>
  <unicode hex="00D3"/>
  <outline>
    <contour>
      <point x="651" y="890" type="line"/>
      <point x="562" y="802" type="line" smooth="yes"/>
      <point x="522" y="763"/>
      <point x="461" y="757"/>
      <point x="429" y="765" type="curve"/>
      <point x="532" y="890" type="line"/>
    </contour>
    <contour>
      <point x="645" y="364" type="curve" smooth="yes"/>
      <point x="665" y="527"/>
      <point x="595" y="650"/>
      <point x="460" y="650" type="curve" smooth="yes"/>
      <point x="326" y="650"/>
      <point x="226" y="527"/>
      <point x="206" y="364" type="curve" smooth="yes"/>
      <point x="187" y="206"/>
      <point x="256" y="77"/>
      <point x="390" y="77" type="curve" smooth="yes"/>
      <point x="525" y="77"/>
      <point x="626" y="206"/>
    </contour>
    <contour>
      <point x="777" y="364" type="curve" smooth="yes"/>
      <point x="750" y="140"/>
      <point x="578" y="-14"/>
      <point x="379" y="-14" type="curve" smooth="yes"/>
      <point x="168" y="-14"/>
      <point x="45" y="137"/>
      <point x="73" y="364" type="curve" smooth="yes"/>
      <point x="101" y="587"/>
      <point x="267" y="742"/>
      <point x="472" y="742" type="curve" smooth="yes" name="hr01"/>
      <point x="684" y="742"/>
      <point x="805" y="590"/>
    </contour>
  </outline>
</glyph>
<glyph name="Ocircumflex" format="1">
  <advance width="791"/>
  <unicode hex="00D4"/>
  <outline>
    <contour>
      <point x="450" y="890" type="line"/>
      <point x="535" y="890" type="line"/>
      <point x="629" y="772" type="line"/>
      <point x="558" y="758" type="line"/>
      <point x="483" y="815" type="line"/>
      <point x="395" y="758" type="line"/>
      <point x="328" y="772" type="line"/>
    </contour>
    <contour>
      <point x="645" y="364" type="curve" smooth="yes"/>
      <point x="665" y="527"/>
      <point x="595" y="650"/>
      <point x="460" y="650" type="curve" smooth="yes"/>
      <point x="326" y="650"/>
      <point x="226" y="527"/>
      <point x="206" y="364" type="curve" smooth="yes"/>
      <point x="187" y="206"/>
      <point x="256" y="77"/>
      <point x="390" y="77" type="curve" smooth="yes"/>
      <point x="525" y="77"/>
      <point x="626" y="206"/>
    </contour>
    <contour>
      <point x="777" y="364" type="curve" smooth="yes"/>
      <point x="750" y="140"/>
      <point x="578" y="-14"/>
      <point x="379" y="-14" type="curve" smooth="yes"/>
      <point x="168" y="-14"/>
      <point x="45" y="137"/>
      <point x="73" y="364" type="curve" smooth="yes"/>
      <point x="101" y="587"/>
      <point x="267" y="742"/>
      <point x="472" y="742" type="curve" smooth="yes" name="hr01"/>
      <point x="684" y="742"/>
      <point x="805" y="590"/>
    </contour>
  </outline>
</glyph>
<glyph name="Otilde" format="1">
  <advance width="791"/>
  <unicode hex="00D5"/>
  <outline>
    <contour>
      <point x="394" y="777" type="curve"/>
      <point x="328" y="783" type="line"/>
      <point x="339" y="856"/>
      <point x="389" y="897"/>
      <point x="437" y="897" type="curve" smooth="yes"/>
      <point x="495" y="897"/>
      <point x="513" y="843"/>
      <point x="548" y="843" type="curve" smooth="yes" name="hr01"/>
      <point x="566" y="843"/>
      <point x="578" y="862"/>
      <point x="585" y="893" type="curve"/>
      <point x="650" y="887" type="line"/>
      <point x="636" y="804"/>
      <point x="584" y="773"/>
      <point x="545" y="773" type="curve" smooth="yes"/>
      <point x="480" y="773"/>
      <point x="470" y="827"/>
      <point x="435" y="827" type="curve" smooth="yes" name="hr02"/>
      <point x="420" y="827"/>
      <point x="401" y="814"/>
    </contour>
    <contour>
      <point x="645" y="364" type="curve" smooth="yes"/>
      <point x="665" y="527"/>
      <point x="596" y="650"/>
      <point x="461" y="650" type="curve" smooth="yes"/>
      <point x="326" y="650"/>
      <point x="227" y="527"/>
      <point x="207" y="364" type="curve" smooth="yes"/>
      <point x="188" y="206"/>
      <point x="257" y="77"/>
      <point x="391" y="77" type="curve" smooth="yes"/>
      <point x="526" y="77"/>
      <point x="626" y="206"/>
    </contour>
    <contour>
      <point x="778" y="364" type="curve" smooth="yes"/>
      <point x="751" y="140"/>
      <point x="579" y="-14"/>
      <point x="380" y="-14" type="curve" smooth="yes"/>
      <point x="169" y="-14"/>
      <point x="45" y="137"/>
      <point x="73" y="364" type="curve" smooth="yes"/>
      <point x="101" y="587"/>
      <point x="267" y="742"/>
      <point x="473" y="742" type="curve" smooth="yes"/>
      <point x="684" y="742"/>
      <point x="806" y="590"/>
    </contour>
  </outline>
</glyph>
<glyph name="Odieresis" format="1">
  <advance width="791"/>
  <unicode hex="00D6"/>
  <outline>
    <contour>
      <point x="525" y="840" type="curve" smooth="yes" name="hr00"/>
      <point x="529" y="873"/>
      <point x="559" y="899"/>
      <point x="591" y="899" type="curve" smooth="yes"/>
      <point x="623" y="899"/>
      <point x="647" y="873"/>
      <point x="643" y="840" type="curve" smooth="yes"/>
      <point x="639" y="807"/>
      <point x="608" y="781"/>
      <point x="576" y="781" type="curve" smooth="yes"/>
      <point x="544" y="781"/>
      <point x="521" y="807"/>
    </contour>
    <contour>
      <point x="330" y="840" type="curve" smooth="yes"/>
      <point x="334" y="873"/>
      <point x="364" y="899"/>
      <point x="396" y="899" type="curve" smooth="yes"/>
      <point x="429" y="899"/>
      <point x="453" y="873"/>
      <point x="449" y="840" type="curve" smooth="yes"/>
      <point x="445" y="807"/>
      <point x="414" y="781"/>
      <point x="381" y="781" type="curve" smooth="yes"/>
      <point x="349" y="781"/>
      <point x="326" y="807"/>
    </contour>
    <contour>
      <point x="645" y="364" type="curve" smooth="yes"/>
      <point x="665" y="527"/>
      <point x="596" y="650"/>
      <point x="461" y="650" type="curve" smooth="yes"/>
      <point x="326" y="650"/>
      <point x="227" y="527"/>
      <point x="207" y="364" type="curve" smooth="yes"/>
      <point x="188" y="206"/>
      <point x="257" y="77"/>
      <point x="391" y="77" type="curve" smooth="yes"/>
      <point x="526" y="77"/>
      <point x="626" y="206"/>
    </contour>
    <contour>
      <point x="778" y="364" type="curve" smooth="yes"/>
      <point x="751" y="140"/>
      <point x="579" y="-14"/>
      <point x="380" y="-14" type="curve" smooth="yes"/>
      <point x="169" y="-14"/>
      <point x="45" y="137"/>
      <point x="73" y="364" type="curve" smooth="yes"/>
      <point x="101" y="587"/>
      <point x="267" y="742"/>
      <point x="473" y="742" type="curve" smooth="yes"/>
      <point x="684" y="742"/>
      <point x="806" y="590"/>
    </contour>
  </outline>
</glyph>
<glyph name="multiply" format="1">
  <advance width="568"/>
  <unicode hex="00D7"/>
  <outline>
    <contour>
      <point x="116" y="70" type="line" name="hr00"/>
      <point x="61" y="133" type="line"/>
      <point x="253" y="306" type="line"/>
      <point x="103" y="477" type="line"/>
      <point x="175" y="540" type="line"/>
      <point x="326" y="370" type="line"/>
      <point x="517" y="540" type="line"/>
      <point x="572" y="477" type="line"/>
      <point x="382" y="306" type="line"/>
      <point x="532" y="133" type="line"/>
      <point x="461" y="70" type="line"/>
      <point x="310" y="241" type="line"/>
    </contour>
  </outline>
</glyph>
<glyph name="Oslash" format="1">
  <advance width="791"/>
  <unicode hex="00D8"/>
  <outline>
    <contour>
      <point x="647" y="364" type="curve" smooth="yes"/>
      <point x="657" y="442"/>
      <point x="644" y="511"/>
      <point x="615" y="561" type="curve"/>
      <point x="315" y="140" type="line"/>
      <point x="291" y="175"/>
      <point x="271" y="223"/>
      <point x="303" y="274" type="curve"/>
      <point x="556" y="625" type="line"/>
      <point x="530" y="642"/>
      <point x="497" y="651"/>
      <point x="461" y="651" type="curve" smooth="yes"/>
      <point x="326" y="651"/>
      <point x="225" y="527"/>
      <point x="205" y="364" type="curve" smooth="yes"/>
      <point x="186" y="206"/>
      <point x="257" y="77"/>
      <point x="391" y="77" type="curve" smooth="yes"/>
      <point x="526" y="77"/>
      <point x="628" y="206"/>
    </contour>
    <contour>
      <point x="777" y="789" type="line"/>
      <point x="689" y="665" type="line"/>
      <point x="760" y="599"/>
      <point x="794" y="493"/>
      <point x="778" y="364" type="curve" smooth="yes"/>
      <point x="751" y="140"/>
      <point x="579" y="-14"/>
      <point x="380" y="-14" type="curve" smooth="yes"/>
      <point x="325" y="-14"/>
      <point x="276" y="-3"/>
      <point x="233" y="16" type="curve"/>
      <point x="180" y="-60" type="line" name="hr01"/>
      <point x="77" y="-60" type="line"/>
      <point x="164" y="62" type="line"/>
      <point x="91" y="128"/>
      <point x="57" y="233"/>
      <point x="73" y="364" type="curve" smooth="yes"/>
      <point x="101" y="587"/>
      <point x="267" y="742"/>
      <point x="473" y="742" type="curve" smooth="yes"/>
      <point x="528" y="742"/>
      <point x="576" y="731"/>
      <point x="618" y="711" type="curve"/>
      <point x="674" y="789" type="line"/>
    </contour>
  </outline>
</glyph>
<glyph name="Ugrave" format="1">
  <advance width="694"/>
  <unicode hex="00D9"/>
  <outline>
    <contour>
      <point x="372" y="802" type="curve" name="hr00"/>
      <point x="317" y="890" type="line"/>
      <point x="436" y="890" type="line"/>
      <point x="494" y="765" type="line"/>
      <point x="459" y="757"/>
      <point x="396" y="762"/>
    </contour>
    <contour>
      <point x="346" y="-14" type="curve" smooth="yes"/>
      <point x="170" y="-14"/>
      <point x="76" y="93"/>
      <point x="98" y="274" type="curve" smooth="yes"/>
      <point x="154" y="727" type="line"/>
      <point x="277" y="727" type="line"/>
      <point x="219" y="259" type="line" smooth="yes"/>
      <point x="205" y="146"/>
      <point x="263" y="77"/>
      <point x="357" y="77" type="curve" smooth="yes"/>
      <point x="450" y="77"/>
      <point x="524" y="146"/>
      <point x="538" y="259" type="curve" smooth="yes"/>
      <point x="596" y="727" type="line"/>
      <point x="719" y="727" type="line"/>
      <point x="663" y="274" type="line" smooth="yes"/>
      <point x="642" y="100"/>
      <point x="517" y="-14"/>
    </contour>
  </outline>
</glyph>
<glyph name="Uacute" format="1">
  <advance width="694"/>
  <unicode hex="00DA"/>
  <outline>
    <contour>
      <point x="611" y="890" type="line" name="hr00"/>
      <point x="522" y="802" type="line" smooth="yes"/>
      <point x="482" y="763"/>
      <point x="421" y="757"/>
      <point x="389" y="765" type="curve"/>
      <point x="492" y="890" type="line"/>
    </contour>
    <contour>
      <point x="345" y="-14" type="curve" smooth="yes"/>
      <point x="169" y="-14"/>
      <point x="75" y="93"/>
      <point x="97" y="274" type="curve" smooth="yes"/>
      <point x="153" y="727" type="line"/>
      <point x="277" y="727" type="line"/>
      <point x="219" y="259" type="line" smooth="yes"/>
      <point x="205" y="146"/>
      <point x="262" y="77"/>
      <point x="356" y="77" type="curve" smooth="yes"/>
      <point x="449" y="77"/>
      <point x="523" y="146"/>
      <point x="537" y="259" type="curve" smooth="yes"/>
      <point x="595" y="727" type="line"/>
      <point x="718" y="727" type="line"/>
      <point x="662" y="274" type="line" smooth="yes"/>
      <point x="641" y="100"/>
      <point x="516" y="-14"/>
    </contour>
  </outline>
</glyph>
<glyph name="Ucircumflex" format="1">
  <advance width="694"/>
  <unicode hex="00DB"/>
  <outline>
    <contour>
      <point x="413" y="890" type="line" name="hr00"/>
      <point x="498" y="890" type="line"/>
      <point x="592" y="772" type="line"/>
      <point x="521" y="758" type="line"/>
      <point x="446" y="815" type="line"/>
      <point x="358" y="758" type="line"/>
      <point x="291" y="772" type="line"/>
    </contour>
    <contour>
      <point x="345" y="-14" type="curve" smooth="yes"/>
      <point x="169" y="-14"/>
      <point x="75" y="93"/>
      <point x="97" y="274" type="curve" smooth="yes"/>
      <point x="153" y="727" type="line"/>
      <point x="277" y="727" type="line"/>
      <point x="219" y="259" type="line" smooth="yes"/>
      <point x="205" y="146"/>
      <point x="262" y="77"/>
      <point x="356" y="77" type="curve" smooth="yes"/>
      <point x="449" y="77"/>
      <point x="523" y="146"/>
      <point x="537" y="259" type="curve" smooth="yes"/>
      <point x="595" y="727" type="line"/>
      <point x="718" y="727" type="line"/>
      <point x="662" y="274" type="line" smooth="yes"/>
      <point x="641" y="100"/>
      <point x="516" y="-14"/>
    </contour>
  </outline>
</glyph>
<glyph name="Udieresis" format="1">
  <advance width="694"/>
  <unicode hex="00DC"/>
  <outline>
    <contour>
      <point x="489" y="840" type="curve" smooth="yes" name="hr00"/>
      <point x="493" y="873"/>
      <point x="523" y="899"/>
      <point x="555" y="899" type="curve" smooth="yes"/>
      <point x="587" y="899"/>
      <point x="611" y="873"/>
      <point x="607" y="840" type="curve" smooth="yes"/>
      <point x="603" y="807"/>
      <point x="572" y="781"/>
      <point x="540" y="781" type="curve" smooth="yes"/>
      <point x="508" y="781"/>
      <point x="485" y="807"/>
    </contour>
    <contour>
      <point x="294" y="840" type="curve" smooth="yes"/>
      <point x="298" y="873"/>
      <point x="328" y="899"/>
      <point x="360" y="899" type="curve" smooth="yes"/>
      <point x="393" y="899"/>
      <point x="417" y="873"/>
      <point x="413" y="840" type="curve" smooth="yes"/>
      <point x="409" y="807"/>
      <point x="378" y="781"/>
      <point x="345" y="781" type="curve" smooth="yes"/>
      <point x="313" y="781"/>
      <point x="290" y="807"/>
    </contour>
    <contour>
      <point x="344" y="-14" type="curve" smooth="yes"/>
      <point x="169" y="-14"/>
      <point x="75" y="93"/>
      <point x="97" y="274" type="curve" smooth="yes"/>
      <point x="153" y="727" type="line"/>
      <point x="276" y="727" type="line"/>
      <point x="218" y="259" type="line" smooth="yes"/>
      <point x="204" y="146"/>
      <point x="262" y="77"/>
      <point x="355" y="77" type="curve" smooth="yes"/>
      <point x="448" y="77"/>
      <point x="523" y="146"/>
      <point x="537" y="259" type="curve" smooth="yes"/>
      <point x="595" y="727" type="line"/>
      <point x="717" y="727" type="line"/>
      <point x="661" y="274" type="line" smooth="yes"/>
      <point x="640" y="100"/>
      <point x="516" y="-14"/>
    </contour>
  </outline>
</glyph>
<glyph name="Yacute" format="1">
  <advance width="660"/>
  <unicode hex="00DD"/>
  <outline>
    <contour>
      <point x="607" y="890" type="line" name="hr00"/>
      <point x="518" y="802" type="line" smooth="yes"/>
      <point x="478" y="763"/>
      <point x="417" y="757"/>
      <point x="385" y="765" type="curve"/>
      <point x="488" y="890" type="line"/>
    </contour>
    <contour>
      <point x="450" y="536" type="curve"/>
      <point x="580" y="727" type="line"/>
      <point x="716" y="727" type="line"/>
      <point x="460" y="377" type="line"/>
      <point x="439" y="409"/>
      <point x="412" y="479"/>
    </contour>
    <contour>
      <point x="241" y="727" type="line"/>
      <point x="426" y="338" type="line"/>
      <point x="385" y="0" type="line"/>
      <point x="264" y="0" type="line"/>
      <point x="302" y="317" type="line"/>
      <point x="103" y="727" type="line"/>
    </contour>
  </outline>
</glyph>
<glyph name="Thorn" format="1">
  <advance width="609"/>
  <unicode hex="00DE"/>
  <outline>
    <contour>
      <point x="614" y="364" type="curve" smooth="yes" name="hr00"/>
      <point x="598" y="229"/>
      <point x="474" y="151"/>
      <point x="354" y="140" type="curve" smooth="yes"/>
      <point x="323" y="137"/>
      <point x="289" y="138"/>
      <point x="254" y="149" type="curve"/>
      <point x="273" y="185"/>
      <point x="306" y="226"/>
      <point x="350" y="228" type="curve" smooth="yes"/>
      <point x="411" y="231"/>
      <point x="475" y="288"/>
      <point x="484" y="364" type="curve" smooth="yes"/>
      <point x="494" y="441"/>
      <point x="439" y="500"/>
      <point x="353" y="500" type="curve" smooth="yes"/>
      <point x="317" y="500"/>
      <point x="295" y="498"/>
      <point x="258" y="494" type="curve"/>
      <point x="198" y="0" type="line"/>
      <point x="79" y="0" type="line"/>
      <point x="168" y="727" type="line"/>
      <point x="287" y="727" type="line"/>
      <point x="270" y="588" type="line"/>
      <point x="301" y="590"/>
      <point x="330" y="592"/>
      <point x="364" y="592" type="curve" smooth="yes"/>
      <point x="526" y="592"/>
      <point x="631" y="501"/>
    </contour>
  </outline>
</glyph>
<glyph name="germandbls" format="1">
  <advance width="567"/>
  <unicode hex="00DF"/>
  <outline>
    <contour>
      <point x="252" y="25" type="curve"/>
      <point x="292" y="104" type="line"/>
      <point x="333" y="86"/>
      <point x="366" y="80"/>
      <point x="390" y="80" type="curve" smooth="yes"/>
      <point x="427" y="80"/>
      <point x="459" y="105"/>
      <point x="464" y="141" type="curve" smooth="yes"/>
      <point x="475" y="235"/>
      <point x="303" y="245"/>
      <point x="322" y="401" type="curve" smooth="yes"/>
      <point x="329" y="459"/>
      <point x="379" y="516"/>
      <point x="453" y="544" type="curve"/>
      <point x="459" y="559"/>
      <point x="462" y="572"/>
      <point x="464" y="588" type="curve" smooth="yes"/>
      <point x="470" y="639"/>
      <point x="434" y="675"/>
      <point x="382" y="675" type="curve" smooth="yes"/>
      <point x="325" y="675"/>
      <point x="269" y="635"/>
      <point x="260" y="555" type="curve" smooth="yes"/>
      <point x="192" y="0" type="line" name="hr01"/>
      <point x="154" y="0"/>
      <point x="114" y="-1"/>
      <point x="76" y="-1" type="curve" name="hr02"/>
      <point x="143" y="544" type="line" smooth="yes"/>
      <point x="161" y="687"/>
      <point x="263" y="763"/>
      <point x="385" y="763" type="curve" smooth="yes"/>
      <point x="509" y="763"/>
      <point x="573" y="688"/>
      <point x="561" y="588" type="curve" smooth="yes"/>
      <point x="556" y="553"/>
      <point x="540" y="519"/>
      <point x="510" y="479" type="curve"/>
      <point x="463" y="460"/>
      <point x="436" y="437"/>
      <point x="432" y="401" type="curve" smooth="yes"/>
      <point x="420" y="306"/>
      <point x="593" y="300"/>
      <point x="573" y="137" type="curve" smooth="yes"/>
      <point x="562" y="47"/>
      <point x="477" y="-12"/>
      <point x="392" y="-12" type="curve" smooth="yes" name="hr03"/>
      <point x="352" y="-12"/>
      <point x="311" y="-7"/>
    </contour>
  </outline>
</glyph>
<glyph name="agrave" format="1">
  <advance width="603"/>
  <unicode hex="00E0"/>
  <outline>
    <contour>
      <point x="544" y="187" type="line" name="hr00"/>
      <point x="536" y="119"/>
      <point x="531" y="64"/>
      <point x="537" y="5" type="curve"/>
      <point x="444" y="0" type="line"/>
      <point x="424" y="16"/>
      <point x="408" y="53"/>
      <point x="414" y="100" type="curve" smooth="yes"/>
      <point x="454" y="428" type="line"/>
      <point x="426" y="435"/>
      <point x="402" y="437"/>
      <point x="382" y="437" type="curve" smooth="yes"/>
      <point x="287" y="437"/>
      <point x="223" y="363"/>
      <point x="209" y="246" type="curve" smooth="yes"/>
      <point x="199" y="164"/>
      <point x="215" y="78"/>
      <point x="292" y="87" type="curve" smooth="yes"/>
      <point x="328" y="91"/>
      <point x="348" y="68"/>
      <point x="369" y="34" type="curve"/>
      <point x="331" y="11"/>
      <point x="291" y="-5"/>
      <point x="259" y="-8" type="curve"/>
      <point x="134" y="-18"/>
      <point x="62" y="110"/>
      <point x="79" y="246" type="curve" smooth="yes"/>
      <point x="98" y="407"/>
      <point x="220" y="528"/>
      <point x="390" y="528" type="curve" smooth="yes"/>
      <point x="446" y="528"/>
      <point x="496" y="522"/>
      <point x="582" y="497" type="curve"/>
    </contour>
    <contour>
      <point x="328" y="642" type="curve"/>
      <point x="273" y="740" type="line"/>
      <point x="392" y="740" type="line"/>
      <point x="448" y="602" type="line"/>
      <point x="413" y="594"/>
      <point x="357" y="600"/>
    </contour>
  </outline>
</glyph>
<glyph name="acircumflex" format="1">
  <advance width="603"/>
  <unicode hex="00E2"/>
  <outline>
    <contour>
      <point x="544" y="187" type="line" name="hr00"/>
      <point x="536" y="119"/>
      <point x="531" y="64"/>
      <point x="537" y="5" type="curve"/>
      <point x="444" y="0" type="line"/>
      <point x="424" y="16"/>
      <point x="408" y="53"/>
      <point x="414" y="100" type="curve" smooth="yes"/>
      <point x="454" y="428" type="line"/>
      <point x="426" y="435"/>
      <point x="402" y="437"/>
      <point x="382" y="437" type="curve" smooth="yes"/>
      <point x="287" y="437"/>
      <point x="223" y="363"/>
      <point x="209" y="246" type="curve" smooth="yes"/>
      <point x="199" y="164"/>
      <point x="215" y="78"/>
      <point x="292" y="87" type="curve" smooth="yes"/>
      <point x="328" y="91"/>
      <point x="348" y="68"/>
      <point x="369" y="34" type="curve"/>
      <point x="331" y="11"/>
      <point x="291" y="-5"/>
      <point x="259" y="-8" type="curve"/>
      <point x="134" y="-18"/>
      <point x="62" y="110"/>
      <point x="79" y="246" type="curve" smooth="yes"/>
      <point x="98" y="407"/>
      <point x="220" y="528"/>
      <point x="390" y="528" type="curve" smooth="yes"/>
      <point x="446" y="528"/>
      <point x="496" y="522"/>
      <point x="582" y="497" type="curve"/>
    </contour>
    <contour>
      <point x="377" y="743" type="line"/>
      <point x="462" y="743" type="line"/>
      <point x="553" y="601" type="line"/>
      <point x="482" y="587" type="line"/>
      <point x="409" y="664" type="line"/>
      <point x="319" y="587" type="line"/>
      <point x="252" y="601" type="line"/>
    </contour>
  </outline>
</glyph>
<glyph name="atilde" format="1">
  <advance width="603"/>
  <unicode hex="00E3"/>
  <outline>
    <contour>
      <point x="544" y="187" type="line" name="hr00"/>
      <point x="536" y="119"/>
      <point x="531" y="64"/>
      <point x="537" y="5" type="curve"/>
      <point x="444" y="0" type="line"/>
      <point x="424" y="16"/>
      <point x="408" y="53"/>
      <point x="414" y="100" type="curve" smooth="yes"/>
      <point x="454" y="428" type="line"/>
      <point x="426" y="435"/>
      <point x="402" y="437"/>
      <point x="382" y="437" type="curve" smooth="yes"/>
      <point x="287" y="437"/>
      <point x="223" y="363"/>
      <point x="209" y="246" type="curve" smooth="yes"/>
      <point x="199" y="164"/>
      <point x="215" y="78"/>
      <point x="292" y="87" type="curve" smooth="yes"/>
      <point x="328" y="91"/>
      <point x="348" y="68"/>
      <point x="369" y="34" type="curve"/>
      <point x="331" y="11"/>
      <point x="291" y="-5"/>
      <point x="259" y="-8" type="curve"/>
      <point x="134" y="-18"/>
      <point x="62" y="110"/>
      <point x="79" y="246" type="curve" smooth="yes"/>
      <point x="98" y="407"/>
      <point x="220" y="528"/>
      <point x="390" y="528" type="curve" smooth="yes"/>
      <point x="446" y="528"/>
      <point x="496" y="522"/>
      <point x="582" y="497" type="curve"/>
    </contour>
    <contour>
      <point x="301" y="618" type="curve"/>
      <point x="235" y="624" type="line"/>
      <point x="246" y="697"/>
      <point x="295" y="738"/>
      <point x="344" y="738" type="curve" smooth="yes"/>
      <point x="402" y="738"/>
      <point x="420" y="684"/>
      <point x="455" y="684" type="curve" smooth="yes"/>
      <point x="472" y="684"/>
      <point x="486" y="703"/>
      <point x="493" y="734" type="curve"/>
      <point x="557" y="728" type="line"/>
      <point x="544" y="645"/>
      <point x="492" y="614"/>
      <point x="453" y="614" type="curve" smooth="yes"/>
      <point x="388" y="614"/>
      <point x="377" y="668"/>
      <point x="343" y="668" type="curve" smooth="yes"/>
      <point x="328" y="668"/>
      <point x="309" y="655"/>
    </contour>
  </outline>
</glyph>
<glyph name="adieresis" format="1">
  <advance width="603"/>
  <unicode hex="00E4"/>
  <outline>
    <contour>
      <point x="544" y="187" type="line" name="hr00"/>
      <point x="536" y="119"/>
      <point x="531" y="64"/>
      <point x="537" y="5" type="curve"/>
      <point x="444" y="0" type="line"/>
      <point x="424" y="16"/>
      <point x="408" y="53"/>
      <point x="414" y="100" type="curve" smooth="yes"/>
      <point x="454" y="428" type="line"/>
      <point x="426" y="435"/>
      <point x="402" y="437"/>
      <point x="382" y="437" type="curve" smooth="yes"/>
      <point x="287" y="437"/>
      <point x="223" y="363"/>
      <point x="209" y="246" type="curve" smooth="yes"/>
      <point x="199" y="164"/>
      <point x="215" y="78"/>
      <point x="292" y="87" type="curve" smooth="yes"/>
      <point x="328" y="91"/>
      <point x="348" y="68"/>
      <point x="369" y="34" type="curve"/>
      <point x="331" y="11"/>
      <point x="291" y="-5"/>
      <point x="259" y="-8" type="curve"/>
      <point x="134" y="-18"/>
      <point x="62" y="110"/>
      <point x="79" y="246" type="curve" smooth="yes"/>
      <point x="98" y="407"/>
      <point x="220" y="528"/>
      <point x="390" y="528" type="curve" smooth="yes"/>
      <point x="446" y="528"/>
      <point x="496" y="522"/>
      <point x="582" y="497" type="curve"/>
    </contour>
    <contour>
      <point x="436" y="670" type="curve" smooth="yes"/>
      <point x="440" y="703"/>
      <point x="470" y="729"/>
      <point x="502" y="729" type="curve" smooth="yes"/>
      <point x="535" y="729"/>
      <point x="559" y="703"/>
      <point x="555" y="670" type="curve" smooth="yes"/>
      <point x="551" y="637"/>
      <point x="521" y="611"/>
      <point x="488" y="611" type="curve" smooth="yes"/>
      <point x="456" y="611"/>
      <point x="432" y="637"/>
    </contour>
    <contour>
      <point x="242" y="670" type="curve" smooth="yes"/>
      <point x="246" y="703"/>
      <point x="276" y="729"/>
      <point x="307" y="729" type="curve" smooth="yes"/>
      <point x="340" y="729"/>
      <point x="364" y="703"/>
      <point x="360" y="670" type="curve" smooth="yes"/>
      <point x="356" y="637"/>
      <point x="326" y="611"/>
      <point x="293" y="611" type="curve" smooth="yes"/>
      <point x="262" y="611"/>
      <point x="238" y="637"/>
    </contour>
  </outline>
</glyph>
<glyph name="aring" format="1">
  <advance width="603"/>
  <unicode hex="00E5"/>
  <outline>
    <contour>
      <point x="544" y="187" type="line" name="hr00"/>
      <point x="536" y="119"/>
      <point x="531" y="64"/>
      <point x="537" y="5" type="curve"/>
      <point x="444" y="0" type="line"/>
      <point x="424" y="16"/>
      <point x="408" y="53"/>
      <point x="414" y="100" type="curve" smooth="yes"/>
      <point x="454" y="428" type="line"/>
      <point x="426" y="435"/>
      <point x="402" y="437"/>
      <point x="382" y="437" type="curve" smooth="yes"/>
      <point x="287" y="437"/>
      <point x="223" y="363"/>
      <point x="209" y="246" type="curve" smooth="yes"/>
      <point x="199" y="164"/>
      <point x="215" y="78"/>
      <point x="292" y="87" type="curve" smooth="yes"/>
      <point x="328" y="91"/>
      <point x="348" y="68"/>
      <point x="369" y="34" type="curve"/>
      <point x="331" y="11"/>
      <point x="291" y="-5"/>
      <point x="259" y="-8" type="curve"/>
      <point x="134" y="-18"/>
      <point x="62" y="110"/>
      <point x="79" y="246" type="curve" smooth="yes"/>
      <point x="98" y="407"/>
      <point x="220" y="528"/>
      <point x="390" y="528" type="curve" smooth="yes"/>
      <point x="446" y="528"/>
      <point x="496" y="522"/>
      <point x="582" y="497" type="curve"/>
    </contour>
    <contour>
      <point x="407" y="613" type="curve" smooth="yes"/>
      <point x="434" y="613"/>
      <point x="451" y="632"/>
      <point x="454" y="657" type="curve" smooth="yes"/>
      <point x="457" y="682"/>
      <point x="445" y="701"/>
      <point x="418" y="701" type="curve" smooth="yes"/>
      <point x="394" y="701"/>
      <point x="375" y="682"/>
      <point x="372" y="655" type="curve" smooth="yes"/>
      <point x="369" y="634"/>
      <point x="382" y="613"/>
    </contour>
    <contour>
      <point x="401" y="564" type="curve" smooth="yes"/>
      <point x="340" y="564"/>
      <point x="301" y="603"/>
      <point x="307" y="655" type="curve" smooth="yes"/>
      <point x="314" y="709"/>
      <point x="363" y="749"/>
      <point x="424" y="749" type="curve" smooth="yes"/>
      <point x="486" y="749"/>
      <point x="524" y="711"/>
      <point x="517" y="656" type="curve" smooth="yes"/>
      <point x="510" y="602"/>
      <point x="459" y="564"/>
    </contour>
  </outline>
</glyph>
<glyph name="ae" format="1">
  <advance width="850"/>
  <unicode hex="00E6"/>
  <outline>
    <contour>
      <point x="622" y="317" type="curve"/>
      <point x="726" y="317" type="line"/>
      <point x="743" y="384"/>
      <point x="709" y="441"/>
      <point x="647" y="441" type="curve" smooth="yes"/>
      <point x="581" y="441"/>
      <point x="513" y="386"/>
      <point x="498" y="268" type="curve" smooth="yes"/>
      <point x="484" y="152"/>
      <point x="536" y="79"/>
      <point x="623" y="79" type="curve" smooth="yes"/>
      <point x="669" y="79"/>
      <point x="710" y="89"/>
      <point x="771" y="116" type="curve"/>
      <point x="793" y="33" type="line"/>
      <point x="720" y="0"/>
      <point x="656" y="-12"/>
      <point x="599" y="-12" type="curve" smooth="yes"/>
      <point x="509" y="-12"/>
      <point x="438" y="55"/>
      <point x="423" y="125" type="curve"/>
      <point x="375" y="33"/>
      <point x="284" y="-12"/>
      <point x="208" y="-12" type="curve" smooth="yes"/>
      <point x="102" y="-12"/>
      <point x="39" y="47"/>
      <point x="50" y="136" type="curve" smooth="yes"/>
      <point x="61" y="226"/>
      <point x="136" y="290"/>
      <point x="346" y="309" type="curve"/>
      <point x="339" y="280"/>
      <point x="323" y="246"/>
      <point x="290" y="232" type="curve"/>
      <point x="215" y="190"/>
      <point x="180" y="206"/>
      <point x="172" y="146" type="curve"/>
      <point x="168" y="109"/>
      <point x="193" y="79"/>
      <point x="234" y="79" type="curve" smooth="yes"/>
      <point x="309" y="79"/>
      <point x="363" y="151"/>
      <point x="377" y="264" type="curve" smooth="yes"/>
      <point x="383" y="315" type="line" smooth="yes"/>
      <point x="392" y="388"/>
      <point x="360" y="436"/>
      <point x="282" y="436" type="curve" smooth="yes"/>
      <point x="248" y="436"/>
      <point x="212" y="430"/>
      <point x="163" y="413" type="curve"/>
      <point x="143" y="491" type="line"/>
      <point x="207" y="519"/>
      <point x="269" y="528"/>
      <point x="314" y="528" type="curve" smooth="yes" name="hr01"/>
      <point x="383" y="528"/>
      <point x="442" y="488"/>
      <point x="468" y="420" type="curve"/>
      <point x="512" y="485"/>
      <point x="592" y="529"/>
      <point x="665" y="529" type="curve" smooth="yes" name="hr02"/>
      <point x="809" y="529"/>
      <point x="890" y="402"/>
      <point x="816" y="241" type="curve"/>
      <point x="533" y="241" type="line"/>
      <point x="552" y="284"/>
      <point x="583" y="317"/>
    </contour>
  </outline>
</glyph>
<glyph name="ccedilla" format="1">
  <advance width="427"/>
  <unicode hex="00E7"/>
  <outline>
    <contour>
      <point x="283" y="-12" type="curve" smooth="yes" name="hr00"/>
      <point x="283" y="-12"/>
      <point x="282" y="-12"/>
      <point x="282" y="-12" type="curve"/>
      <point x="269" y="-46" type="line"/>
      <point x="308" y="-53"/>
      <point x="346" y="-80"/>
      <point x="340" y="-123" type="curve" smooth="yes"/>
      <point x="333" y="-183"/>
      <point x="266" y="-210"/>
      <point x="208" y="-210" type="curve" smooth="yes"/>
      <point x="185" y="-210"/>
      <point x="160" y="-205"/>
      <point x="130" y="-191" type="curve"/>
      <point x="152" y="-140" type="line"/>
      <point x="176" y="-150"/>
      <point x="195" y="-153"/>
      <point x="215" y="-153" type="curve" smooth="yes"/>
      <point x="238" y="-153"/>
      <point x="261" y="-144"/>
      <point x="263" y="-126" type="curve" smooth="yes"/>
      <point x="266" y="-104"/>
      <point x="240" y="-93"/>
      <point x="194" y="-88" type="curve"/>
      <point x="225" y="-6" type="line"/>
      <point x="115" y="14"/>
      <point x="38" y="100"/>
      <point x="57" y="259" type="curve" smooth="yes"/>
      <point x="79" y="437"/>
      <point x="213" y="529"/>
      <point x="348" y="529" type="curve" smooth="yes"/>
      <point x="384" y="529"/>
      <point x="430" y="522"/>
      <point x="468" y="507" type="curve"/>
      <point x="427" y="424" type="line"/>
      <point x="395" y="434"/>
      <point x="362" y="438"/>
      <point x="337" y="438" type="curve" smooth="yes"/>
      <point x="264" y="438"/>
      <point x="201" y="374"/>
      <point x="187" y="259" type="curve" smooth="yes"/>
      <point x="173" y="143"/>
      <point x="219" y="79"/>
      <point x="293" y="79" type="curve" smooth="yes"/>
      <point x="322" y="79"/>
      <point x="355" y="87"/>
      <point x="401" y="105" type="curve"/>
      <point x="421" y="23" type="line"/>
      <point x="366" y="-1"/>
      <point x="318" y="-11"/>
    </contour>
  </outline>
</glyph>
<glyph name="egrave" format="1">
  <advance width="544"/>
  <unicode hex="00E8"/>
  <outline>
    <contour>
      <point x="287" y="642" type="curve" name="hr00"/>
      <point x="232" y="740" type="line"/>
      <point x="351" y="740" type="line"/>
      <point x="407" y="602" type="line"/>
      <point x="372" y="594"/>
      <point x="316" y="600"/>
    </contour>
    <contour>
      <point x="319" y="317" type="curve"/>
      <point x="423" y="317" type="line"/>
      <point x="440" y="384"/>
      <point x="406" y="441"/>
      <point x="344" y="441" type="curve" smooth="yes"/>
      <point x="278" y="441"/>
      <point x="210" y="386"/>
      <point x="195" y="268" type="curve" smooth="yes"/>
      <point x="181" y="152"/>
      <point x="233" y="79"/>
      <point x="320" y="79" type="curve" smooth="yes"/>
      <point x="366" y="79"/>
      <point x="407" y="89"/>
      <point x="468" y="116" type="curve"/>
      <point x="490" y="33" type="line"/>
      <point x="417" y="0"/>
      <point x="353" y="-12"/>
      <point x="296" y="-12" type="curve" smooth="yes"/>
      <point x="127" y="-12"/>
      <point x="56" y="122"/>
      <point x="74" y="265" type="curve" smooth="yes"/>
      <point x="94" y="429"/>
      <point x="215" y="529"/>
      <point x="362" y="529" type="curve" smooth="yes"/>
      <point x="506" y="529"/>
      <point x="587" y="402"/>
      <point x="513" y="241" type="curve"/>
      <point x="230" y="241" type="line"/>
      <point x="249" y="284"/>
      <point x="280" y="317"/>
    </contour>
  </outline>
</glyph>
<glyph name="eacute" format="1">
  <advance width="544"/>
  <unicode hex="00E9"/>
  <outline>
    <contour>
      <point x="533" y="740" type="line" name="hr00"/>
      <point x="439" y="640" type="line" smooth="yes"/>
      <point x="400" y="597"/>
      <point x="338" y="593"/>
      <point x="306" y="602" type="curve"/>
      <point x="410" y="740" type="line"/>
    </contour>
    <contour>
      <point x="319" y="317" type="curve"/>
      <point x="422" y="317" type="line"/>
      <point x="439" y="384"/>
      <point x="406" y="441"/>
      <point x="343" y="441" type="curve" smooth="yes"/>
      <point x="277" y="441"/>
      <point x="210" y="386"/>
      <point x="195" y="268" type="curve" smooth="yes"/>
      <point x="181" y="152"/>
      <point x="233" y="79"/>
      <point x="319" y="79" type="curve" smooth="yes"/>
      <point x="365" y="79"/>
      <point x="406" y="89"/>
      <point x="468" y="116" type="curve"/>
      <point x="489" y="33" type="line"/>
      <point x="416" y="0"/>
      <point x="352" y="-12"/>
      <point x="295" y="-12" type="curve" smooth="yes"/>
      <point x="126" y="-12"/>
      <point x="56" y="122"/>
      <point x="74" y="265" type="curve" smooth="yes"/>
      <point x="94" y="429"/>
      <point x="214" y="529"/>
      <point x="361" y="529" type="curve" smooth="yes"/>
      <point x="505" y="529"/>
      <point x="586" y="402"/>
      <point x="513" y="241" type="curve"/>
      <point x="229" y="241" type="line"/>
      <point x="248" y="284"/>
      <point x="279" y="317"/>
    </contour>
  </outline>
</glyph>
<glyph name="ecircumflex" format="1">
  <advance width="544"/>
  <unicode hex="00EA"/>
  <outline>
    <contour>
      <point x="340" y="743" type="line" name="hr00"/>
      <point x="425" y="743" type="line"/>
      <point x="516" y="601" type="line"/>
      <point x="445" y="587" type="line"/>
      <point x="372" y="664" type="line"/>
      <point x="282" y="587" type="line"/>
      <point x="215" y="601" type="line"/>
    </contour>
    <contour>
      <point x="318" y="317" type="curve"/>
      <point x="421" y="317" type="line"/>
      <point x="439" y="384"/>
      <point x="405" y="441"/>
      <point x="343" y="441" type="curve" smooth="yes"/>
      <point x="277" y="441"/>
      <point x="209" y="386"/>
      <point x="194" y="268" type="curve" smooth="yes"/>
      <point x="180" y="152"/>
      <point x="232" y="79"/>
      <point x="319" y="79" type="curve" smooth="yes"/>
      <point x="365" y="79"/>
      <point x="406" y="89"/>
      <point x="467" y="116" type="curve"/>
      <point x="488" y="33" type="line"/>
      <point x="415" y="0"/>
      <point x="351" y="-12"/>
      <point x="295" y="-12" type="curve" smooth="yes"/>
      <point x="125" y="-12"/>
      <point x="55" y="122"/>
      <point x="73" y="265" type="curve" smooth="yes"/>
      <point x="93" y="429"/>
      <point x="213" y="529"/>
      <point x="361" y="529" type="curve" smooth="yes"/>
      <point x="504" y="529"/>
      <point x="585" y="402"/>
      <point x="512" y="241" type="curve"/>
      <point x="228" y="241" type="line"/>
      <point x="247" y="284"/>
      <point x="279" y="317"/>
    </contour>
  </outline>
</glyph>
<glyph name="edieresis" format="1">
  <advance width="544"/>
  <unicode hex="00EB"/>
  <outline>
    <contour>
      <point x="405" y="670" type="curve" smooth="yes" name="hr00"/>
      <point x="409" y="703"/>
      <point x="439" y="729"/>
      <point x="471" y="729" type="curve" smooth="yes"/>
      <point x="504" y="729"/>
      <point x="528" y="703"/>
      <point x="524" y="670" type="curve" smooth="yes"/>
      <point x="520" y="637"/>
      <point x="490" y="611"/>
      <point x="457" y="611" type="curve" smooth="yes"/>
      <point x="425" y="611"/>
      <point x="401" y="637"/>
    </contour>
    <contour>
      <point x="211" y="670" type="curve" smooth="yes"/>
      <point x="215" y="703"/>
      <point x="245" y="729"/>
      <point x="276" y="729" type="curve" smooth="yes"/>
      <point x="309" y="729"/>
      <point x="333" y="703"/>
      <point x="329" y="670" type="curve" smooth="yes"/>
      <point x="325" y="637"/>
      <point x="295" y="611"/>
      <point x="262" y="611" type="curve" smooth="yes"/>
      <point x="231" y="611"/>
      <point x="207" y="637"/>
    </contour>
    <contour>
      <point x="319" y="317" type="curve"/>
      <point x="423" y="317" type="line"/>
      <point x="440" y="384"/>
      <point x="406" y="441"/>
      <point x="344" y="441" type="curve" smooth="yes"/>
      <point x="278" y="441"/>
      <point x="210" y="386"/>
      <point x="195" y="268" type="curve" smooth="yes"/>
      <point x="181" y="152"/>
      <point x="233" y="79"/>
      <point x="320" y="79" type="curve" smooth="yes"/>
      <point x="366" y="79"/>
      <point x="407" y="89"/>
      <point x="468" y="116" type="curve"/>
      <point x="490" y="33" type="line"/>
      <point x="417" y="0"/>
      <point x="353" y="-12"/>
      <point x="296" y="-12" type="curve" smooth="yes"/>
      <point x="127" y="-12"/>
      <point x="56" y="122"/>
      <point x="74" y="265" type="curve" smooth="yes"/>
      <point x="94" y="429"/>
      <point x="215" y="529"/>
      <point x="362" y="529" type="curve" smooth="yes"/>
      <point x="506" y="529"/>
      <point x="587" y="402"/>
      <point x="513" y="241" type="curve"/>
      <point x="230" y="241" type="line"/>
      <point x="249" y="284"/>
      <point x="280" y="317"/>
    </contour>
  </outline>
</glyph>
<glyph name="igrave" format="1">
  <advance width="276"/>
  <unicode hex="00EC"/>
  <outline>
    <contour>
      <point x="151" y="642" type="curve" name="hr00"/>
      <point x="96" y="740" type="line"/>
      <point x="215" y="740" type="line"/>
      <point x="271" y="602" type="line"/>
      <point x="236" y="594"/>
      <point x="180" y="600"/>
    </contour>
    <contour>
      <point x="220" y="0" type="line"/>
      <point x="97" y="0" type="line"/>
      <point x="160" y="517" type="line"/>
      <point x="283" y="517" type="line"/>
    </contour>
  </outline>
</glyph>
<glyph name="iacute" format="1">
  <advance width="273"/>
  <unicode hex="00ED"/>
  <outline>
    <contour>
      <point x="362" y="740" type="line" name="hr00"/>
      <point x="267" y="640" type="line" smooth="yes"/>
      <point x="228" y="597"/>
      <point x="167" y="593"/>
      <point x="134" y="602" type="curve"/>
      <point x="239" y="740" type="line"/>
    </contour>
    <contour>
      <point x="180" y="0" type="line"/>
      <point x="56" y="0" type="line"/>
      <point x="119" y="517" type="line"/>
      <point x="243" y="517" type="line"/>
    </contour>
  </outline>
</glyph>
<glyph name="icircumflex" format="1">
  <advance width="337"/>
  <unicode hex="00EE"/>
  <outline>
    <contour>
      <point x="216" y="743" type="line" name="hr00"/>
      <point x="301" y="743" type="line"/>
      <point x="392" y="601" type="line"/>
      <point x="321" y="587" type="line"/>
      <point x="248" y="664" type="line"/>
      <point x="158" y="587" type="line"/>
      <point x="91" y="601" type="line"/>
    </contour>
    <contour>
      <point x="229" y="0" type="line"/>
      <point x="105" y="0" type="line"/>
      <point x="168" y="517" type="line"/>
      <point x="292" y="517" type="line"/>
    </contour>
  </outline>
</glyph>
<glyph name="idieresis" format="1">
  <advance width="352"/>
  <unicode hex="00EF"/>
  <outline>
    <contour>
      <point x="295" y="670" type="curve" smooth="yes" name="hr00"/>
      <point x="299" y="703"/>
      <point x="329" y="729"/>
      <point x="361" y="729" type="curve" smooth="yes"/>
      <point x="394" y="729"/>
      <point x="418" y="703"/>
      <point x="414" y="670" type="curve" smooth="yes"/>
      <point x="410" y="637"/>
      <point x="380" y="611"/>
      <point x="347" y="611" type="curve" smooth="yes"/>
      <point x="315" y="611"/>
      <point x="291" y="637"/>
    </contour>
    <contour>
      <point x="101" y="670" type="curve" smooth="yes"/>
      <point x="105" y="703"/>
      <point x="135" y="729"/>
      <point x="167" y="729" type="curve" smooth="yes"/>
      <point x="199" y="729"/>
      <point x="224" y="703"/>
      <point x="220" y="670" type="curve" smooth="yes"/>
      <point x="216" y="637"/>
      <point x="185" y="611"/>
      <point x="153" y="611" type="curve" smooth="yes"/>
      <point x="121" y="611"/>
      <point x="97" y="637"/>
    </contour>
    <contour>
      <point x="238" y="0" type="line"/>
      <point x="115" y="0" type="line"/>
      <point x="178" y="517" type="line"/>
      <point x="301" y="517" type="line"/>
    </contour>
  </outline>
</glyph>
